<?xml version="1.0" encoding="UTF-8" standalone="no"?>
<svg
   xmlns:dc="http://purl.org/dc/elements/1.1/"
   xmlns:cc="http://creativecommons.org/ns#"
   xmlns:rdf="http://www.w3.org/1999/02/22-rdf-syntax-ns#"
   xmlns:svg="http://www.w3.org/2000/svg"
   xmlns="http://www.w3.org/2000/svg"
   xml:space="preserve"
   id="svg2"
   height="291.16132"
   width="496.9371"
   version="1.1"><metadata
     id="metadata8"><rdf:RDF><cc:Work
         rdf:about=""><dc:format>image/svg+xml</dc:format><dc:type
           rdf:resource="http://purl.org/dc/dcmitype/StillImage" /><dc:title></dc:title></cc:Work></rdf:RDF></metadata><defs
     id="defs6"><clipPath
       id="clipPath18"><path
         id="path20"
         d="m 0,0 2863.91,0 0,1678 L 0,1678 0,0 Z" /></clipPath></defs><g
     id="g10"
     transform="matrix(1.7351701,0,0,-1.7351701,0,291.16154)"><g
       id="g12"
       transform="scale(0.1,0.1)"><g
         id="g14"><g
           id="g16"
           clip-path="url(#clipPath18)"><path
             style="fill:#7ab800;fill-opacity:1;fill-rule:nonzero;stroke:none"
             id="path22"
             d="m 1742.66,916.656 c -57.27,189.254 -186.71,325.744 -312.71,398.734 -263.04,148.69 -458.919,77.73 -451.688,77.64 -3.473,-18.3 188.738,29.09 424.878,-120.73 88.55,-56.9 176.97,-147.64 234.77,-266.31 19.74,-188.631 -164.02,-223.103 -214.26,-67.459 -57.96,179.549 -104.94,258.749 -173.84,249.529 -65.78,-7.13 -121.42,-183.59 -145.87,-259.478 C 1079.47,852.684 1019.4,633.988 974.32,535.27 929.242,436.59 859.18,392.91 791.941,394.609 c -67.234,1.7 -120.824,45.993 -178.617,154.313 -19.129,3.457 -71.215,12.238 -71.215,12.238 27.344,-137.961 145.746,-291.332 264.207,-289.68 118.481,1.649 177.047,81.739 239.304,252.629 62.24,170.918 110.76,347.395 219.15,351.368 87.25,5.273 100.6,-108.043 124.21,-190.723 23.57,-82.734 66.78,-235.715 180.06,-236.356 43.81,0 77.03,27.821 101.56,64.723 C 1651.56,455.199 1624.26,398.879 1588.1,346.73 1470.97,177.262 1281.74,79.2383 1104.28,67.5 925.562,52.0703 765.195,112.578 656.625,193.551 434.781,362.781 408.848,558.371 394.391,549.012 390.367,555.391 395.559,347.828 625.699,153.328 738.254,60.8789 912.066,-11.6484 1109.07,1.55859 c 195.77,9.03121 408.12,115.92941 538,304.29341 130.46,187.878 155.12,424.46 95.59,610.804" /><path
             style="fill:#747678;fill-opacity:1;fill-rule:nonzero;stroke:none"
             id="path24"
             d="m 367.148,633.199 -346.3863,0 C 8.73438,633.199 0,641.941 0,653.969 l 0,734.301 c 0,12.02 8.73438,20.76 20.7617,20.76 l 346.3863,0 c 12.016,0 20.762,-8.74 20.762,-20.76 l 0,-45.89 c 0,-12.03 -8.746,-20.77 -20.762,-20.77 l -274.273,0 0,-251.32 252.422,0 c 12.015,0 20.765,-8.74 20.765,-20.76 l 0,-45.9 c 0,-12.017 -8.75,-20.759 -20.765,-20.759 l -252.422,0 0,-262.242 274.273,0 c 12.016,0 20.762,-8.75 20.762,-20.77 l 0,-45.89 c 0,-12.028 -8.746,-20.77 -20.762,-20.77" /><path
             style="fill:#747678;fill-opacity:1;fill-rule:nonzero;stroke:none"
             id="path26"
             d="m 690.598,622.281 c -86.328,0 -159.539,20.758 -159.539,20.758 -13.106,3.281 -20.766,9.84 -20.766,21.852 l 0,49.171 c 0,12.028 8.75,16.399 20.766,14.211 0,0 95.062,-18.574 157.347,-18.574 90.696,0 138.782,46.981 138.782,123.473 l 0,46.992 c 0,76.477 -48.086,112.547 -131.133,112.547 l -110.356,0 c -12.015,0 -20.761,8.739 -20.761,20.759 l 0,45.9 c 0,12.01 8.746,20.76 20.761,20.76 l 88.504,0 c 83.047,0 131.129,36.05 131.129,112.54 l 0,24.04 c 0,76.49 -45.891,115.83 -123.48,115.83 -62.278,0 -150.793,-18.57 -150.793,-18.57 -12.016,-2.19 -20.766,3.28 -20.766,15.3 l 0,49.16 c 0,12.03 5.473,17.49 20.766,20.76 0,0 64.472,20.76 152.98,20.76 137.676,0 214.168,-62.28 214.168,-203.24 l 0,-24.04 c 0,-71.02 -28.406,-119.1 -75.391,-149.7 59.008,-28.41 97.258,-81.943 97.258,-162.806 l 0,-46.992 c 0,-143.145 -81.965,-210.891 -229.476,-210.891" /><path
             style="fill:#747678;fill-opacity:1;fill-rule:nonzero;stroke:none"
             id="path28"
             d="m 2272.87,1157.71 c 0,84.14 -39.34,163.9 -147.51,163.9 l -147.53,0 0,-600.981 147.53,0 c 108.17,0 147.51,79.762 147.51,163.902 l 0,273.179 z m -147.51,-524.511 -219.64,0 c -12.03,0 -20.76,8.742 -20.76,20.77 l 0,734.301 c 0,12.02 8.73,20.76 20.76,20.76 l 219.64,0 c 167.17,0 240.38,-105.99 240.38,-251.32 l 0,-273.179 c 0,-145.336 -73.21,-251.332 -240.38,-251.332" /><path
             style="fill:#747678;fill-opacity:1;fill-rule:nonzero;stroke:none"
             id="path30"
             d="m 2837.8,633.199 c 0,0 -60.09,-10.918 -114.73,-10.918 -159.54,0 -231.65,105.992 -231.65,251.324 l 0,295.025 c 0,145.34 71.02,251.32 231.65,251.32 59,0 114.73,-12.01 114.73,-12.01 13.12,-3.28 19.67,-8.75 19.67,-20.76 l 0,-48.08 c 0,-12.03 -8.74,-17.49 -20.75,-16.4 0,0 -61.2,9.84 -110.37,9.84 -102.72,0 -142.06,-79.77 -142.06,-163.91 l 0,-295.025 c 0,-84.136 38.24,-163.906 142.06,-163.906 43.71,0 110.37,9.832 110.37,9.832 12.01,1.098 20.75,-4.379 20.75,-16.39 l 0,-49.172 c 0,-12.028 -6.55,-17.481 -19.67,-20.77" /><path
             style="fill:#747678;fill-opacity:1;fill-rule:nonzero;stroke:none"
             id="path32"
             d="m 1059.61,1500.68 -78.255,0 c -2.71,0 -4.683,1.97 -4.683,4.69 l 0,165.88 c 0,2.71 1.973,4.68 4.683,4.68 l 78.255,0 c 2.72,0 4.7,-1.97 4.7,-4.68 l 0,-10.37 c 0,-2.72 -1.98,-4.69 -4.7,-4.69 l -61.958,0 0,-56.78 57.018,0 c 2.72,0 4.7,-1.97 4.7,-4.69 l 0,-10.36 c 0,-2.72 -1.98,-4.69 -4.7,-4.69 l -57.018,0 0,-59.25 61.958,0 c 2.72,0 4.7,-1.97 4.7,-4.69 l 0,-10.36 c 0,-2.72 -1.98,-4.69 -4.7,-4.69" /><path
             style="fill:#747678;fill-opacity:1;fill-rule:nonzero;stroke:none"
             id="path34"
             d="m 1210.11,1500.68 -13.08,0 c -2.72,0 -4.45,2.22 -5.69,4.69 l -64.18,124.65 0,-124.65 c 0,-2.72 -1.97,-4.69 -4.68,-4.69 l -11.61,0 c -2.72,0 -4.69,1.97 -4.69,4.69 l 0,165.88 c 0,2.71 1.97,4.68 4.69,4.68 l 12.85,0 c 3.2,0 4.43,-1.72 5.67,-4.19 l 64.43,-125.15 0,124.66 c 0,2.71 1.97,4.68 4.69,4.68 l 11.6,0 c 2.72,0 4.69,-1.97 4.69,-4.68 l 0,-165.88 c 0,-2.72 -1.97,-4.69 -4.69,-4.69" /><path
             style="fill:#747678;fill-opacity:1;fill-rule:nonzero;stroke:none"
             id="path36"
             d="m 1344.54,1500.68 -78.26,0 c -2.71,0 -4.68,1.97 -4.68,4.69 l 0,165.88 c 0,2.71 1.97,4.68 4.68,4.68 l 78.26,0 c 2.72,0 4.69,-1.97 4.69,-4.68 l 0,-10.37 c 0,-2.72 -1.97,-4.69 -4.69,-4.69 l -61.96,0 0,-56.78 57.02,0 c 2.72,0 4.69,-1.97 4.69,-4.69 l 0,-10.36 c 0,-2.72 -1.97,-4.69 -4.69,-4.69 l -57.02,0 0,-59.25 61.96,0 c 2.72,0 4.69,-1.97 4.69,-4.69 l 0,-10.36 c 0,-2.72 -1.97,-4.69 -4.69,-4.69" /><path
             style="fill:#747678;fill-opacity:1;fill-rule:nonzero;stroke:none"
             id="path38"
             d="m 1440.47,1656.19 -28.38,0 0,-61.71 28.38,0 c 21.99,0 33.34,11.84 33.34,30.85 0,19.01 -11.35,30.86 -33.34,30.86 z m 55.8,-155.51 -15.3,0 c -2.97,0 -4.7,2.46 -6.18,4.69 l -41.21,69.36 -21.49,0 0,-69.36 c 0,-2.72 -1.97,-4.69 -4.69,-4.69 l -11.6,0 c -2.71,0 -4.69,1.97 -4.69,4.69 l 0,165.88 c 0,2.71 1.98,4.68 4.69,4.68 l 44.67,0 c 35.56,0 54.32,-17.77 54.32,-50.6 0,-27.4 -12.83,-44.18 -37.52,-49.11 l 42.2,-70.85 c 1.49,-2.23 -0.49,-4.69 -3.2,-4.69" /><path
             style="fill:#747678;fill-opacity:1;fill-rule:nonzero;stroke:none"
             id="path40"
             d="m 1590.97,1498.21 c -37.77,0 -54.3,23.94 -54.3,56.78 l 0,61.71 c 0,37.51 18.76,61.7 59.24,61.7 21.97,0 39.99,-5.67 39.99,-5.67 2.96,-0.74 4.44,-1.98 4.44,-4.69 l 0,-11.11 c 0,-2.72 -1.98,-4.2 -4.7,-3.71 0,0 -22.21,5.44 -39.73,5.44 -27.39,0 -38.27,-18.27 -38.27,-41.96 l 0,-61.71 c 0,-19.01 8.89,-37.04 33.33,-37.04 20.74,0 33.33,6.91 33.33,6.91 l 0,52.34 -32.34,0 c -2.72,0 -4.69,1.98 -4.69,4.69 l 0,10.37 c 0,2.72 1.97,4.69 4.69,4.69 l 48.63,0 c 2.72,0 4.69,-1.97 4.69,-4.69 l 0,-79.24 c 0,0 -16.55,-14.81 -54.31,-14.81" /><path
             style="fill:#747678;fill-opacity:1;fill-rule:nonzero;stroke:none"
             id="path42"
             d="m 1745.16,1561.15 0,-55.78 c 0,-2.72 -1.97,-4.69 -4.69,-4.69 l -11.6,0 c -2.72,0 -4.7,1.97 -4.7,4.69 l 0,55.78 -49.61,109.86 c -1.24,2.46 0.49,4.92 3.21,4.92 l 14.07,0 c 2.71,0 4.93,-2.22 5.92,-4.68 l 37.03,-85.41 36.78,85.41 c 0.98,2.46 3.21,4.68 5.93,4.68 l 14.07,0 c 2.72,0 4.43,-2.46 3.21,-4.92 l -49.62,-109.86" /><path
             style="fill:#747678;fill-opacity:1;fill-rule:nonzero;stroke:none"
             id="path44"
             d="m 1951.86,1498.21 c -19,0 -38.02,5.18 -38.02,5.18 -3.2,0.74 -4.68,2.23 -4.68,4.93 l 0,11.36 c 0,2.72 1.48,4.2 4.68,3.71 0,0 21.49,-5.44 36.05,-5.44 18.76,0 32.09,7.67 32.09,27.66 l 0,7.41 c 0,16.52 -8.88,21.71 -23.46,26.9 l -16.04,5.68 c -16.54,5.92 -32.08,15.04 -32.08,41.46 l 0,6.17 c 0,30.12 20.72,45.17 50.1,45.17 18.27,0 35.3,-4.19 35.3,-4.19 3.21,-0.74 4.69,-2.22 4.69,-4.94 l 0,-10.86 c 0,-2.71 -1.48,-4.2 -4.69,-3.69 0,0 -18.76,3.94 -34.8,3.94 -18.77,0 -29.63,-8.15 -29.63,-25.43 l 0,-6.17 c 0,-12.09 8.4,-18.02 19.75,-21.97 l 15.8,-5.68 c 18.02,-6.41 36.04,-16.29 36.04,-46.39 l 0,-7.41 c 0,-34.81 -20.74,-47.4 -51.1,-47.4" /><path
             style="fill:#747678;fill-opacity:1;fill-rule:nonzero;stroke:none"
             id="path46"
             d="m 2138.9,1656.19 -39.01,0 0,-150.82 c 0,-2.72 -1.97,-4.69 -4.69,-4.69 l -11.6,0 c -2.72,0 -4.69,1.97 -4.69,4.69 l 0,150.82 -39.26,0 c -2.71,0 -4.68,1.97 -4.68,4.69 l 0,10.37 c 0,2.71 1.97,4.68 4.68,4.68 l 99.25,0 c 2.71,0 4.68,-1.97 4.68,-4.68 l 0,-10.37 c 0,-2.72 -1.97,-4.69 -4.68,-4.69" /><path
             style="fill:#747678;fill-opacity:1;fill-rule:nonzero;stroke:none"
             id="path48"
             d="m 2258.29,1621.63 c 0,19.01 -8.89,37.03 -33.33,37.03 -24.45,0 -33.33,-18.02 -33.33,-37.03 l 0,-66.64 c 0,-19.01 8.88,-37.04 33.33,-37.04 24.44,0 33.33,18.03 33.33,37.04 l 0,66.64 z m -33.33,-123.42 c -37.76,0 -54.31,23.94 -54.31,56.78 l 0,66.64 c 0,32.83 16.55,56.77 54.31,56.77 37.76,0 54.3,-23.94 54.3,-56.77 l 0,-66.64 c 0,-32.84 -16.54,-56.78 -54.3,-56.78" /><path
             style="fill:#747678;fill-opacity:1;fill-rule:nonzero;stroke:none"
             id="path50"
             d="m 2375.42,1656.19 -28.38,0 0,-61.71 28.38,0 c 21.99,0 33.33,11.84 33.33,30.85 0,19.01 -11.34,30.86 -33.33,30.86 z m 55.81,-155.51 -15.31,0 c -2.97,0 -4.7,2.46 -6.18,4.69 l -41.21,69.36 -21.49,0 0,-69.36 c 0,-2.72 -1.97,-4.69 -4.69,-4.69 l -11.6,0 c -2.71,0 -4.69,1.97 -4.69,4.69 l 0,165.88 c 0,2.71 1.98,4.68 4.69,4.68 l 44.67,0 c 35.56,0 54.32,-17.77 54.32,-50.6 0,-27.4 -12.83,-44.18 -37.51,-49.11 l 42.19,-70.85 c 1.49,-2.23 -0.49,-4.69 -3.19,-4.69" /><path
             style="fill:#747678;fill-opacity:1;fill-rule:nonzero;stroke:none"
             id="path52"
             d="m 2525.43,1642.12 -27.16,-87.13 54.07,0 -26.91,87.13 z m 60.97,-141.44 -13.58,0 c -2.71,0 -4.44,1.97 -5.17,4.69 l -9.14,29.86 -66.4,0 -9.14,-29.86 c -0.74,-2.72 -2.47,-4.69 -5.19,-4.69 l -13.57,0 c -2.72,0 -4.2,1.97 -3.45,4.69 l 52.57,165.88 c 0.74,2.71 2.71,4.68 5.43,4.68 l 13.08,0 c 2.72,0 4.7,-1.97 5.44,-4.68 l 52.57,-165.88 c 0.75,-2.72 -0.74,-4.69 -3.45,-4.69" /><path
             style="fill:#747678;fill-opacity:1;fill-rule:nonzero;stroke:none"
             id="path54"
             d="m 2675.17,1498.21 c -37.77,0 -54.31,23.94 -54.31,56.78 l 0,61.71 c 0,37.51 18.77,61.7 59.25,61.7 21.97,0 39.99,-5.67 39.99,-5.67 2.96,-0.74 4.43,-1.98 4.43,-4.69 l 0,-11.11 c 0,-2.72 -1.97,-4.2 -4.69,-3.71 0,0 -22.21,5.44 -39.73,5.44 -27.4,0 -38.27,-18.27 -38.27,-41.96 l 0,-61.71 c 0,-19.01 8.88,-37.04 33.33,-37.04 20.73,0 33.33,6.91 33.33,6.91 l 0,52.34 -32.35,0 c -2.71,0 -4.69,1.98 -4.69,4.69 l 0,10.37 c 0,2.72 1.98,4.69 4.69,4.69 l 48.64,0 c 2.71,0 4.68,-1.97 4.68,-4.69 l 0,-79.24 c 0,0 -16.54,-14.81 -54.3,-14.81" /><path
             style="fill:#747678;fill-opacity:1;fill-rule:nonzero;stroke:none"
             id="path56"
             d="m 2859.22,1500.68 -78.25,0 c -2.73,0 -4.7,1.97 -4.7,4.69 l 0,165.88 c 0,2.71 1.97,4.68 4.7,4.68 l 78.25,0 c 2.71,0 4.69,-1.97 4.69,-4.68 l 0,-10.37 c 0,-2.72 -1.98,-4.69 -4.69,-4.69 l -61.96,0 0,-56.78 57.02,0 c 2.71,0 4.68,-1.97 4.68,-4.69 l 0,-10.36 c 0,-2.72 -1.97,-4.69 -4.68,-4.69 l -57.02,0 0,-59.25 61.96,0 c 2.71,0 4.69,-1.97 4.69,-4.69 l 0,-10.36 c 0,-2.72 -1.98,-4.69 -4.69,-4.69" /></g></g></g></g></svg>