<?xml version="1.0" encoding="UTF-8" standalone="no"?>
<svg
   xmlns:svg="http://www.w3.org/2000/svg"
   xmlns="http://www.w3.org/2000/svg"
   version="1.1"
   width="847.28375"
   height="120.44397"
   id="svg3016">
  <defs
     id="defs3018" />
  <g
     transform="translate(3.64188,-463.56877)"
     id="layer1">
    <path
       d="m 839.09175,535.69157 c 2.56878,2.57691 3.55013,5.8275 3.55013,11.5121 l 0,5.07809 c 0,5.67901 -0.98135,8.93249 -3.55013,11.50659 -2.57807,2.57048 -5.98832,3.63582 -11.59205,3.63582 l -11.58507,0 0,15.1515 -10.59906,0 0,-50.5172 22.18413,0 c 5.60373,0 9.01398,1.06363 11.59207,3.6331 m -7.04895,12.04661 c 0,-5.00071 -1.05361,-6.06247 -6.05827,-6.06247 l -10.06992,0 0,16.13028 10.06992,0 c 5.00466,0 6.05827,-1.05616 6.05827,-6.05687 l 0,-4.01094 z m -62.19343,-15.67785 -10.60605,0 0,35.29281 c 0,5.7483 0.98835,9.0053 3.56643,11.5758 2.5641,2.58322 5.97436,3.64401 11.58508,3.64401 l 7.03496,0 c 5.60838,0 9.01397,-1.06079 11.59206,-3.64401 2.57343,-2.5705 3.55478,-5.8275 3.55478,-11.5758 l 0,-35.29281 -10.60372,0 0,34.83392 c 0,5.00253 -1.05828,6.05692 -6.06061,6.05692 l -4.00466,0 c -4.99999,0 -6.05827,-1.05439 -6.05827,-6.05692 l 0,-34.83392 z m -22.78554,3.63124 c 2.57808,2.57691 3.55244,5.8275 3.55244,11.59135 l 0,20.06841 c 0,5.74828 -0.97436,9.0126 -3.55244,11.57942 -2.57343,2.57958 -5.97902,3.64492 -11.58508,3.64492 l -7.04195,0 c -5.60606,0 -9.01398,-1.06534 -11.58972,-3.64492 -2.57342,-2.56682 -3.56178,-5.83114 -3.56178,-11.57942 l 0,-20.06841 c 0,-5.76385 0.98834,-9.01444 3.56178,-11.59135 2.57576,-2.56947 5.98368,-3.6331 11.58972,-3.6331 l 7.04195,0 c 5.60606,0 9.01165,1.06363 11.58508,3.6331 m -7.04427,12.04661 c 0,-5.00071 -1.05827,-6.06247 -6.05596,-6.06247 l -4.01629,0 c -4.99769,0 -6.05363,1.06176 -6.05363,6.06247 l 0,19.15331 c 0,5.00346 1.05596,6.05968 6.05363,6.05968 l 4.01629,0 c 4.99769,0 6.05596,-1.05622 6.05596,-6.05968 l 0,-19.15331 z m -33.21445,34.83749 -12.648,0 -10.14918,-16.4381 -5.45221,0 0,16.4381 -10.59673,0 0,-50.51534 22.1818,0 c 5.61305,0 9.01398,1.06177 11.58974,3.63124 2.57575,2.57971 3.5571,5.8275 3.5571,11.5093 l 0,3.79068 c 0,9.00709 -2.57342,12.71941 -10.29603,14.84371 l 11.81351,16.74041 z m -12.11654,-34.84029 c 0,-4.99791 -1.0606,-6.06153 -6.0606,-6.06153 l -10.07225,0 0,14.84661 10.07225,0 c 5,0 6.0606,-1.06365 6.0606,-6.06154 l 0,-2.72354 z m -54.27268,14.31201 0.98135,-9.54698 16.65735,0 0,14.85092 c 0,6.05969 -0.98137,9.1601 -3.55245,11.65681 -2.5781,2.50402 -5.98134,3.56298 -11.58975,3.56298 l -7.04893,0 c -5.59675,0 -9.00698,-1.05896 -11.58274,-3.63763 -2.57342,-2.57505 -3.55711,-5.83205 -3.55711,-11.58216 l 0,-20.15325 c 0,-5.68345 0.98367,-8.9296 3.55711,-11.50651 2.57576,-2.56947 5.98599,-3.6331 11.58274,-3.6331 l 7.04893,0 c 9.8415,0 14.00465,3.3282 15.1422,12.19229 l -10.60139,0.98788 c -0.60606,-2.88181 -1.74361,-3.56737 -6.05596,-3.56737 l -4.02098,0 c -4.98832,0 -6.05359,1.06807 -6.05359,6.06691 l 0,19.0732 c 0,5.08357 1.06527,6.13979 6.05359,6.13979 l 4.02098,0 c 4.99999,0 6.05596,-1.05622 6.05596,-6.13979 l 0,-4.76399 -7.03731,0"
       id="path22"
       style="fill:#66c430;fill-opacity:1;fill-rule:nonzero;stroke:none" />
    <path
       d="m 381.12706,496.50161 c 11.87878,0 19.05593,2.24919 24.77156,7.80605 5.56874,5.40606 7.65732,12.43822 7.65732,24.62494 l 0,53.827 -18.07225,0 0.004,-50.63004 c 0,-9.93961 -0.65501,-13.08274 -3.05827,-15.63052 -2.31702,-2.45572 -5.19811,-3.05035 -15.62237,-3.05035 l -20.74355,0.006 0,69.30531 -18.07227,0 0,-86.25799 43.13517,0 z m 205.96024,86.32902 -17.65036,0 c -11.88575,0 -19.06525,-2.25817 -24.78318,-7.81523 -5.63403,-5.47694 -7.65036,-12.42623 -7.65036,-24.62128 l 0,-36.87434 -10.69929,0 0,-16.94706 10.69929,0 0,-21.25034 18.07226,0 0,21.25034 24.57341,0 -2.20279,16.94706 -22.37062,0 0,36.87434 c 0,13.07371 3.2028,15.4803 18.67132,15.4803 l 13.34032,0 0,16.95621 z m -75.82512,-35.10621 -59.6107,0 c 0.009,10.18274 0.67601,13.36233 3.06762,15.75252 2.30303,2.29914 5.1958,3.04851 15.63169,3.04851 l 4.14683,0 c 10.27041,0 13.08857,-0.50809 15.6387,-3.05762 1.14916,-1.14727 1.95338,-2.40108 2.45921,-4.50728 l 18.42422,0 c -3.01864,17.41248 -12.10022,24.05219 -32.19811,24.05219 l -12.79253,0 c -11.88579,0 -19.2331,-2.24177 -24.79485,-7.80158 -5.48718,-5.49515 -7.65501,-12.45354 -7.65501,-24.65294 l 0,-21.68834 c 0,-12.19952 2.09324,-19.23355 7.65501,-24.7988 5.56643,-5.56621 12.91372,-7.80792 24.79951,-7.80792 l 12.77855,0 c 11.88575,0 19.22374,2.24171 24.79017,7.63844 5.56876,5.41423 7.66901,12.12494 7.66901,24.96828 l -0.009,18.85454 z m -36.76456,-34.97689 -4.14683,0 c -16.52682,0 -18.6387,1.85408 -18.68998,16.5902 l 0,2.3811 41.51513,0 0.0131,-2.3811 c 0.0628,-14.73612 -2.1655,-16.5902 -18.69228,-16.5902"
       id="path24"
       style="fill:#101f3a;fill-opacity:1;fill-rule:nonzero;stroke:none" />
    <path
       d="m 67.866225,582.7596 0,-86.25519 31.853831,0 c 23.108854,0 32.018384,8.38973 32.432854,28.72492 l -18.25664,0 c -0.26411,-3.87248 -1.12354,-6.64242 -3.13684,-8.72121 -2.4993,-2.58508 -5.8219,-3.06129 -16.063855,-3.06129 l -8.765718,0.009 0,69.30345 -18.063632,0 z m -17.30022,-69.30531 -24.441939,0 0,69.30531 -18.0670264,0 0,-69.30531 -10.6989196,0 0,-16.95268 10.7007658,0 c 0.2076082,-12.65662 2.1516072,-18.78902 7.6513322,-24.13587 5.720145,-5.5571 12.896139,-7.79697 24.77421,-7.79697 l 17.655483,0 0,16.94801 -13.344065,0 c -15.418394,0 -18.286457,1.71631 -18.66268,14.98483 l 26.806506,0 -2.373667,16.95268 z m 169.864225,34.27013 -59.61534,0 c 0.0187,10.18274 0.68017,13.36233 3.07599,15.75252 2.29812,2.29914 5.18739,3.04851 15.62399,3.04851 l 4.14754,0 c 10.27553,0 13.09183,-0.50809 15.6415,-3.05762 1.15175,-1.14727 1.95129,-2.40108 2.45851,-4.50728 l 18.42656,0 c -3.01283,17.41248 -12.10119,24.05219 -32.20046,24.05219 l -12.79604,0 c -11.8825,0 -19.23075,-2.24177 -24.79134,-7.80158 -5.49162,-5.49515 -7.65874,-12.45354 -7.65874,-24.65294 l 0,-21.68834 c 0,-12.19952 2.09697,-19.23355 7.66222,-24.7988 5.56621,-5.56621 12.90979,-7.80792 24.79696,-7.80792 l 12.77506,0 c 11.88436,0 19.22444,2.24171 24.79694,7.63844 5.56807,5.41423 7.66224,12.12494 7.66224,24.96828 l -0.006,18.85454 z m -36.76782,-34.97689 -4.14754,0 c -16.53099,0 -18.64077,1.85408 -18.68157,16.5902 l -0.0131,2.3811 41.52094,0 0.009,-2.3811 c 0.071,-14.73612 -2.1606,-16.5902 -18.68715,-16.5902 m 133.89825,34.97689 -59.61068,0 c 0.013,10.18274 0.67599,13.36233 3.06995,15.75252 2.30534,2.29914 5.18878,3.04851 15.62467,3.04851 l 4.14918,0 c 10.27506,0 13.09557,-0.50809 15.65034,-3.05762 1.14685,-1.14727 1.94406,-2.40108 2.44755,-4.50728 l 18.42889,0 c -3.01398,17.41248 -12.10488,24.05219 -32.20277,24.05219 l -12.79719,0 c -11.88111,0 -19.22843,-2.24177 -24.78553,-7.80158 -5.4965,-5.49515 -7.65501,-12.45354 -7.65501,-24.65294 l 0,-21.68834 c 0,-12.19952 2.09326,-19.23355 7.65501,-24.7988 5.56643,-5.56621 12.91374,-7.80792 24.79953,-7.80792 l 12.7762,0 c 11.88577,0 19.22609,2.24171 24.78786,7.63844 5.57342,5.41423 7.66899,12.12494 7.662,24.96828 l 0,18.85454 z m -36.76688,-34.97689 -4.14918,0 c -16.52912,0 -18.64334,1.85408 -18.68063,16.5902 l -0.009,2.3811 41.51978,0 0.007,-2.3811 c 0.0677,-14.73612 -2.15151,-16.5902 -18.68763,-16.5902"
       id="path26"
       style="fill:#a7a5a6;fill-opacity:1;fill-rule:nonzero;stroke:none" />
  </g>
</svg>
