<?xml version="1.0" encoding="UTF-8" standalone="no"?>
<!-- Created with Inkscape (http://www.inkscape.org/) -->

<svg
   xmlns:dc="http://purl.org/dc/elements/1.1/"
   xmlns:cc="http://creativecommons.org/ns#"
   xmlns:rdf="http://www.w3.org/1999/02/22-rdf-syntax-ns#"
   xmlns:svg="http://www.w3.org/2000/svg"
   xmlns="http://www.w3.org/2000/svg"
   xmlns:sodipodi="http://sodipodi.sourceforge.net/DTD/sodipodi-0.dtd"
   xmlns:inkscape="http://www.inkscape.org/namespaces/inkscape"
   id="svg2"
   version="1.1"
   inkscape:version="0.48.3.1 r9886"
   width="656.70001"
   height="49.4883"
   xml:space="preserve"
   sodipodi:docname="haufe-lexware.svg"><metadata
     id="metadata8"><rdf:RDF><cc:Work
         rdf:about=""><dc:format>image/svg+xml</dc:format><dc:type
           rdf:resource="http://purl.org/dc/dcmitype/StillImage" /><dc:title /></cc:Work></rdf:RDF></metadata><defs
     id="defs6"><inkscape:perspective
       sodipodi:type="inkscape:persp3d"
       inkscape:vp_x="0 : 0.5 : 1"
       inkscape:vp_y="0 : 1000 : 0"
       inkscape:vp_z="1 : 0.5 : 1"
       inkscape:persp3d-origin="0.5 : 0.33333333 : 1"
       id="perspective10" /><clipPath
       clipPathUnits="userSpaceOnUse"
       id="clipPath20"><path
         d="m 0,0 2189,0 0,164.961 -2189,0 L 0,0 z"
         id="path22"
         inkscape:connector-curvature="0" /></clipPath></defs><sodipodi:namedview
     pagecolor="#ffffff"
     bordercolor="#666666"
     borderopacity="1"
     objecttolerance="10"
     gridtolerance="10"
     guidetolerance="10"
     inkscape:pageopacity="0"
     inkscape:pageshadow="2"
     inkscape:window-width="589"
     inkscape:window-height="383"
     id="namedview4"
     showgrid="false"
     inkscape:zoom="0.5"
     inkscape:cx="288.39374"
     inkscape:cy="24.743751"
     inkscape:window-x="0"
     inkscape:window-y="24"
     inkscape:window-maximized="0"
     inkscape:current-layer="g12"
     fit-margin-top="0"
     fit-margin-left="0"
     fit-margin-right="0"
     fit-margin-bottom="0" /><g
     id="g12"
     inkscape:groupmode="layer"
     inkscape:label="LO_HauLex_2010_cmyk_pos"
     transform="matrix(1.25,0,0,-1.25,0,49.4883)"><g
       id="g14"
       transform="scale(0.24,0.24)"><g
         id="g16"><g
           id="g18"
           clip-path="url(#clipPath20)"><path
             d="M 1218.88,164.957 1218.88,0 2189.3,0.00390625 2189.3,164.961 1218.88,164.957"
             style="fill:#231f20;fill-opacity:1;fill-rule:nonzero;stroke:none"
             id="path24"
             inkscape:connector-curvature="0" /><path
             d="m 1228.89,9.98828 384.031,0 0,144.992 -384.031,0 0,-144.992 z"
             style="fill:#ed1c24;fill-opacity:1;fill-rule:nonzero;stroke:none"
             id="path26"
             inkscape:connector-curvature="0" /><path
             d="m 1611.26,11.6563 -380.72,0 0,141.6597 380.72,0 0,-141.6597 z m -384.06,144.9917 0,-148.32769 387.4,0 0,148.32769 -387.4,0"
             style="fill:#231f20;fill-opacity:1;fill-rule:nonzero;stroke:none"
             id="path28"
             inkscape:connector-curvature="0" /><path
             d="m 1770.2,126.727 c 0,0 -23.11,-45.0786 -27.75,-54.1176 -3.13,9.5234 -17.8,54.1176 -17.8,54.1176 l -30.7,0 c 0,0 -15.58,-44.1332 -18.82,-53.3207 -4.52,8.7812 -27.42,53.3207 -27.42,53.3207 l -25.97,0 41.36,-88.5278 25.46,0 c 0,0 16.28,46.0625 20.17,57.0664 3.82,-11.0156 19.78,-57.0664 19.78,-57.0664 l 27.81,0 42.17,88.5278 -28.29,0"
             style="fill:#ffffff;fill-opacity:1;fill-rule:nonzero;stroke:none"
             id="path30"
             inkscape:connector-curvature="0" /><path
             d="m 1845.8,98.8984 c 2.93,-5.7578 9.08,-17.7773 11.55,-22.6132 -5.33,0 -17.27,0 -22.46,0 2.29,4.7734 8.1,16.8007 10.91,22.6132 z m -13.61,27.8286 -45.6,-88.5278 29.92,0 c 0,0 7.9,16.3906 9.1,18.8906 2.91,0 38.72,0 41.55,0 1.24,-2.4257 9.66,-18.8906 9.66,-18.8906 l 30.03,0 -47.8,88.5278 -26.86,0"
             style="fill:#ffffff;fill-opacity:1;fill-rule:nonzero;stroke:none"
             id="path32"
             inkscape:connector-curvature="0" /><path
             d="m 1961.54,107.52 c 11.14,0 14.91,-0.161 16.1,-0.274 3.05,-0.391 5.42,-1.289 7.01,-2.672 1.45,-1.246 2.1,-2.804 2.1,-4.8982 0,-1.8672 -0.52,-3.3633 -1.59,-4.5508 -1.19,-1.3203 -2.83,-2.2227 -5.02,-2.793 -1.69,-0.4297 -6.44,-0.9414 -19.51,-0.9414 0,0 -10.32,0 -14.01,0 0,3.4453 0,12.6914 0,16.1294 3.76,0 14.92,0 14.92,0 z m -42.48,19.207 0,-88.5278 27.56,0 c 0,0 0,30.3594 0,34.8047 0.99,0 2,0 2,0 4.92,0 8.55,-0.3047 10.73,-0.8516 2.02,-0.5234 3.98,-1.5117 5.84,-2.9609 2.01,-1.5547 5.91,-5.5234 11.58,-11.7695 0,0.0156 16.36,-18.3555 16.36,-18.3555 l 0.75,-0.8672 33.1,0 -17.11,20.5039 c -5.44,6.6563 -9.72,11.2149 -13,13.8828 -1.6,1.2891 -3.41,2.5313 -5.42,3.7227 6.43,1.4766 11.63,3.7812 15.45,6.9687 5.47,4.5704 8.24,10.4493 8.24,17.4807 0,5.527 -1.84,10.508 -5.48,14.808 -3.56,4.219 -8.33,7.176 -14.18,8.817 -5.68,1.582 -14.38,2.344 -26.6,2.344 l -49.82,0"
             style="fill:#ffffff;fill-opacity:1;fill-rule:nonzero;stroke:none"
             id="path34"
             inkscape:connector-curvature="0" /><path
             d="m 2039.88,126.727 0,-88.5278 89.61,0 0,19.211 c 0,0 -57.28,0 -62.03,0 0,3.539 0,13.9296 0,17.4687 4.7,0 55.83,0 55.83,0 l 0,19.207 c 0,0 -51.13,0 -55.83,0 0,3.211 0,10.2111 0,13.4341 4.74,0 59.88,0 59.88,0 l 0,19.207 -87.46,0"
             style="fill:#ffffff;fill-opacity:1;fill-rule:nonzero;stroke:none"
             id="path36"
             inkscape:connector-curvature="0" /><path
             d="m 1278.88,126.344 0,-88.1838 84.58,0 0.02,23.8632 c 0,0 -52.21,0.0547 -56.92,0.0586 0,4.7774 0.03,64.262 0.03,64.262 l -27.71,0"
             style="fill:#ffffff;fill-opacity:1;fill-rule:nonzero;stroke:none"
             id="path38"
             inkscape:connector-curvature="0" /><path
             d="m 1453.86,91.6406 0,0.3321 c 0,4.6836 -5.97,19.1873 -26.77,19.1873 -22.4,0 -27.08,-17.1014 -27.08,-19.1873 l 0,-0.3321 53.85,0 z m 27.72,-26.5976 c -8.22,-20.4649 -27.88,-29.0078 -53.83,-29.0078 -34.19,0 -57.07,13.8554 -57.07,46.4257 0,32.5701 22.88,46.4221 57.07,46.4221 37.4,0 55.46,-18.856 55.46,-51.4182 l 0,-2.5742 -83.2,0 0,-0.3359 c 0,-8.2109 8.39,-20.7969 27.74,-20.7969 11.44,0 19.5,3.875 23.52,11.2852 l 30.31,0"
             style="fill:#ffffff;fill-opacity:1;fill-rule:nonzero;stroke:none"
             id="path40"
             inkscape:connector-curvature="0" /><path
             d="m 1567.71,126.988 c 0,0 -17.8,-17.992 -20.89,-21.117 -3.09,3.125 -20.84,21.117 -20.84,21.117 l -33.04,0 c 0,0 34.4,-39.4802 37.12,-42.613 -2.77,-3.1445 -40.88,-46.3555 -40.88,-46.3555 l 33.97,0 c 0,0 20.36,23.3125 23.68,27.1055 3.31,-3.8047 23.61,-27.1055 23.61,-27.1055 l 33.88,0 c 0,0 -37.96,43.1641 -40.72,46.293 2.73,3.1406 37.24,42.6755 37.24,42.6755 l -33.13,0"
             style="fill:#ffffff;fill-opacity:1;fill-rule:nonzero;stroke:none"
             id="path42"
             inkscape:connector-curvature="0" /><path
             d="m 488.629,23.8125 c -62.649,0 -81.746,16.5156 -81.746,37.8984 l 0.008,75.9491 41.062,0 0,-71.5975 c 0,-17.4453 18.195,-22.2031 42.652,-22.2031 16.625,0 29.059,0.5 38.254,1.6172 l 0,92.1834 41.067,0 0,-108.8514 C 554.617,26.25 523.863,23.8125 488.629,23.8125"
             style="fill:#231f20;fill-opacity:1;fill-rule:nonzero;stroke:none"
             id="path44"
             inkscape:connector-curvature="0" /><path
             d="m 121.973,26.5039 0,45.8828 -80.8988,0 0,-45.8828 -41.0742,0 0,111.1561 41.0742,0 0,-45.4608 80.8988,0 0,45.4608 41.07,0 0,-111.1561 -41.07,0"
             style="fill:#231f20;fill-opacity:1;fill-rule:nonzero;stroke:none"
             id="path46"
             inkscape:connector-curvature="0" /><path
             d="m 664.504,115.434 110.879,0 0,22.226 -119.496,0 c -32.422,0 -43.547,-5.785 -43.547,-22.551 l 0,-88.6051 41.055,0 0.007,46.5117 121.981,0 0,19.7539 -121.981,0 -0.007,15.8245 c 0,4.082 2.347,6.836 11.109,6.84"
             style="fill:#231f20;fill-opacity:1;fill-rule:nonzero;stroke:none"
             id="path48"
             inkscape:connector-curvature="0" /><path
             d="m 859.738,115.434 c -8.765,-0.004 -11.109,-2.758 -11.105,-6.84 l 0.008,-16.2151 121.972,0 0,-18.9687 -121.972,0 -0.008,-17.8477 c -0.008,-4.0781 2.34,-6.832 11.105,-6.832 l 110.875,-0.0039 0,-22.2227 -119.492,0 c -32.426,0 -43.555,5.7852 -43.555,22.543 l 0,66.0621 c 0,16.766 11.129,22.551 43.555,22.551 l 119.492,0 0,-22.226 -110.875,0"
             style="fill:#231f20;fill-opacity:1;fill-rule:nonzero;stroke:none"
             id="path50"
             inkscape:connector-curvature="0" /><path
             d="m 1012.14,47.4023 c 0,5.6133 3.25,7.586 12.73,7.586 l 16.33,0 c 9.48,0 12.73,-1.9727 12.73,-7.586 l 0,-13.3164 c 0,-5.6054 -3.25,-7.582 -12.73,-7.582 l -16.33,0 c -9.48,0 -12.73,1.9766 -12.73,7.582 l 0,13.3164"
             style="fill:#1c63b7;fill-opacity:1;fill-rule:nonzero;stroke:none"
             id="path52"
             inkscape:connector-curvature="0" /><path
             d="m 285.773,42.2422 c -12.91,0 -25.609,1.0117 -33.855,2.6641 -5.852,0.9296 -8.375,3.1289 -8.375,8.0937 l 0,12.9297 c 0,4.9609 2.523,7.168 8.375,8.0898 8.246,1.6641 20.949,2.625 33.863,2.625 l 38.469,0 0,-32.7343 c -7.762,-1.0821 -22.988,-1.6211 -38.465,-1.6211 l -0.012,-0.0469 z m 0.059,52.75 c -26.191,0 -49.926,-2.3359 -66.301,-5.2266 -11.84,-1.8984 -16.949,-6.3359 -16.949,-16.3554 l 0,-27.9375 c 0,-10.0274 5.109,-14.4766 16.949,-16.375 16.375,-2.8868 40.102,-5.1797 66.301,-5.2852 34.402,-0.1406 64.773,2.5117 79.789,5.0117 l 0,71.9688 c 0,34.746 -13.43,36.867 -58.918,36.867 l -91.344,0 0,-19.215 90.36,0 c 16.969,0 18.531,-4.64 18.531,-14.91 l 0,-8.5428 -38.418,0"
             style="fill:#231f20;fill-opacity:1;fill-rule:evenodd;stroke:none"
             id="path54"
             inkscape:connector-curvature="0" /></g></g></g></g></svg>