<?xml version="1.0" encoding="UTF-8" standalone="no"?>
<svg
   xmlns:dc="http://purl.org/dc/elements/1.1/"
   xmlns:cc="http://creativecommons.org/ns#"
   xmlns:rdf="http://www.w3.org/1999/02/22-rdf-syntax-ns#"
   xmlns:svg="http://www.w3.org/2000/svg"
   xmlns="http://www.w3.org/2000/svg"
   id="svg4336"
   viewBox="-2.0229366 -2.0229366 189.22326 67.379251"
   height="357.27161"
   width="1002.5638"
   version="1.0">
  <metadata
     id="metadata83">
    <rdf:RDF>
      <cc:Work
         rdf:about="">
        <dc:format>image/svg+xml</dc:format>
        <dc:type
           rdf:resource="http://purl.org/dc/dcmitype/StillImage" />
        <dc:title></dc:title>
      </cc:Work>
    </rdf:RDF>
  </metadata>
  <defs
     id="defs4338" />
  <path
     style="fill:#e10019;fill-opacity:1;fill-rule:nonzero;stroke:none"
     id="path2539"
     d="m 48.379563,22.136971 -1.3525,-2.34 c -0.31625,-0.5225 -0.8875,-0.8725 -1.5425,-0.87875 l 0,-0.0025 -18.3275,0 2.9575,-5.12375 c 0.3175,-0.565 0.305,-1.23 0.015,-1.765 l 0.0012,0.0013 -1.35625,-2.3487504 c -0.15375,-0.30125 -0.39,-0.56 -0.70375,-0.7425 -0.31125,-0.18125 -0.6575,-0.25375 -0.9925,-0.23875 l -2.7,-0.0012 c -0.61375,0.0125 -1.20125,0.3325 -1.53375,0.89625 l -2.96,5.1237504 -9.1625,-15.8700009 -0.0025,0.00125 c -0.32875,-0.56 -0.9112496,-0.87875 -1.5162596,-0.89625 l -2.71124,0 c -0.3375,-0.0175 -0.68125,0.0575 -0.99625,0.24 -0.3125,0.17875 -0.5475,0.43875 -0.70375,0.735 l -1.3512,2.3424001 c -0.29375,0.535 -0.31125,1.205 0.00875,1.77625 l 9.1649996,15.8700008 -11.4549996,0 c -0.65749998,0.0075 -1.22749998,0.35875 -1.54374998,0.88125 l -1.35250002,2.34 c -0.18125,0.2825 -0.285,0.61875 -0.28625,0.9775 0,0.3625 0.1075,0.69875 0.29,0.98375 l 1.35500002,2.3475 0.0025,-0.0025 c 0.3175,0.5175 0.88375,0.86125 1.53499998,0.8675 l 0,0.0025 11.4549996,0 -9.1624996,15.8725 c -0.3225,0.56625 -0.305,1.23875 -0.00875,1.77125 l -0.0025,0.0025 1.35125,2.3425 c 0.15625,0.295 0.39125,0.55375 0.70375,0.735 0.315,0.18125 0.6575,0.255 0.99625,0.24 l 2.71124,0.0025 -0.0025,-0.0025 c 0.6075,-0.01875 1.1924996,-0.33625 1.5212496,-0.8975 l 0,0.0025 9.1625,-15.87 2.96,5.125 c 0.3325,0.5625 0.92,0.8825 1.53375,0.895 l 2.7025,0.0025 c 0.3325,0.015 0.67625,-0.06375 0.99,-0.2425 0.31375,-0.18125 0.55,-0.44 0.70625,-0.74125 l 1.35375,-2.3475 -0.0012,0 c 0.29,-0.535 0.3025,-1.20125 -0.015,-1.76625 l 0.0025,0 -2.95875,-5.12375 18.32625,0 0,-0.0025 c 0.64875,-0.0063 1.21874,-0.35 1.53625,-0.8675 l 1.355,-2.345 c 0.1825,-0.285 0.2925,-0.62125 0.2925,-0.98375 0,-0.35875 -0.1075,-0.695 -0.28875,-0.9775" />
  <path
     style="fill:#484848;fill-opacity:1;fill-rule:nonzero;stroke:none"
     id="path2543"
     d="m 48.700813,37.546971 0.69875,0 0,2.665 3.11375,0 0,-2.665 0.6975,0 0,6.15 -0.6975,0 0,-2.8725 -3.11375,0 0,2.8725 -0.69875,0 0,-6.15 z" />
  <path
     style="fill:#484848;fill-opacity:1;fill-rule:nonzero;stroke:none"
     id="path2555"
     d="m 54.404813,42.135351 0,-1.12125 c 0,-1.13875 0.8275,-1.73375 1.8025,-1.73375 1.06875,0 1.81875,0.63 1.81875,1.725 l 0,1.06 c 0,1.13 -0.81,1.7425 -1.7925,1.7425 -1.0625,0 -1.82875,-0.5775 -1.82875,-1.6725 m 2.96625,-0.04375 0,-1.14625 c 0,-0.655 -0.3875,-1.12125 -1.16375,-1.12125 -0.715,0 -1.15625,0.4225 -1.15625,1.155 l 0,1.13875 c 0,0.68125 0.415,1.13875 1.1825,1.13875 0.715,0 1.1375,-0.3875 1.1375,-1.165" />
  <path
     style="fill:#484848;fill-opacity:1;fill-rule:nonzero;stroke:none"
     id="path2559"
     d="m 58.952063,42.057471 0,-0.96625 c 0,-1.14625 0.7425,-1.81 1.79375,-1.81 0.9925,0 1.70875,0.56 1.70875,1.5 l 0,0.11125 -0.62125,0 0,-0.145 c 0,-0.48375 -0.3625,-0.93125 -1.07875,-0.93125 -0.715,0 -1.1375,0.49 -1.1375,1.215 l 0,1.0425 c 0,0.7 0.37,1.1825 1.14625,1.1825 0.71625,0 1.07,-0.44 1.07,-0.9225 l 0,-0.12125 0.62125,0 0,0.09625 c 0,0.93 -0.69125,1.5 -1.69125,1.5 -1.0775,0 -1.81125,-0.63 -1.81125,-1.75125" />
  <path
     style="fill:#484848;fill-opacity:1;fill-rule:nonzero;stroke:none"
     id="path2563"
     d="m 63.474183,37.538471 0.63875,0 0,2.57875 0.025,0 c 0.2925,-0.56 0.845,-0.845 1.39625,-0.845 0.9225,0 1.38875,0.60375 1.38875,1.43125 l 0,2.9925 -0.64625,0 0,-2.75125 c 0,-0.7675 -0.36125,-1.1125 -0.94,-1.1125 -0.655,0 -1.22375,0.49125 -1.22375,1.31125 l 0,2.5525 -0.63875,0 0,-6.1575 z" />
  <path
     style="fill:#484848;fill-opacity:1;fill-rule:nonzero;stroke:none"
     id="path2567"
     d="m 67.917063,43.109721 0.44,-0.3625 c 0.34625,0.3525 0.75875,0.53375 1.31125,0.53375 0.5175,0 1.0525,-0.2675 1.0525,-0.775 0,-0.48375 -0.3025,-0.62125 -0.8975,-0.7325 l -0.5,-0.10375 c -0.75125,-0.1475 -1.21625,-0.4925 -1.21625,-1.11375 0,-0.74875 0.6125,-1.2925 1.5525,-1.2925 0.65499,0 1.17375,0.155 1.50875,0.54375 l -0.43875,0.335 c -0.27626,-0.24 -0.6125,-0.37875 -1.10375,-0.37875 -0.5275,0 -0.88875,0.28375 -0.88875,0.6975 0,0.415 0.35375,0.5525 0.93875,0.67375 l 0.64875,0.1375 c 0.63625,0.13875 1.06,0.48375 1.06,1.12125 0,0.94125 -0.87125,1.40625 -1.70875,1.40625 -0.705,0 -1.35375,-0.19 -1.75875,-0.69" />
  <path
     style="fill:#484848;fill-opacity:1;fill-rule:nonzero;stroke:none"
     id="path2571"
     d="m 72.257063,42.057471 0,-0.96625 c 0,-1.14625 0.7425,-1.81 1.795,-1.81 0.99125,0 1.7075,0.56 1.7075,1.5 l 0,0.11125 -0.62,0 0,-0.145 c 0,-0.48375 -0.3625,-0.93125 -1.07875,-0.93125 -0.71625,0 -1.13875,0.49 -1.13875,1.215 l 0,1.0425 c 0,0.7 0.37,1.1825 1.14625,1.1825 0.71625,0 1.07125,-0.44 1.07125,-0.9225 l 0,-0.12125 0.62,0 0,0.09625 c 0,0.93 -0.69,1.5 -1.69125,1.5 -1.07875,0 -1.81125,-0.63 -1.81125,-1.75125" />
  <path
     style="fill:#484848;fill-opacity:1;fill-rule:nonzero;stroke:none"
     id="path2575"
     d="m 76.778933,37.538471 0.63875,0 0,2.57875 0.02625,0 c 0.2925,-0.56 0.845,-0.845 1.39625,-0.845 0.9225,0 1.38875,0.60375 1.38875,1.43125 l 0,2.9925 -0.6475,0 0,-2.75125 c 0,-0.7675 -0.36125,-1.1125 -0.93875,-1.1125 -0.655,0 -1.225,0.49125 -1.225,1.31125 l 0,2.5525 -0.63875,0 0,-6.1575 z" />
  <path
     style="fill:#484848;fill-opacity:1;fill-rule:nonzero;stroke:none"
     id="path2579"
     d="m 81.490683,42.358721 0,-2.99125 0.64625,0 0,2.75 c 0,0.7675 0.37125,1.10375 0.94875,1.10375 0.64625,0 1.21625,-0.49125 1.21625,-1.31125 l 0,-2.5425 0.63875,0 0,4.32875 -0.62125,0 0,-0.75125 -0.0175,0 c -0.3025,0.57 -0.84625,0.855 -1.4225,0.855 -0.92375,0 -1.38875,-0.62125 -1.38875,-1.44125" />
  <path
     style="fill:#484848;fill-opacity:1;fill-rule:nonzero;stroke:none"
     id="path2583"
     d="m 86.270683,42.634601 0,-5.09625 0.6475,0 0,5.1225 c 0,0.3025 0.16375,0.53375 0.56,0.53375 0.1725,0 0.32,-0.025 0.475,-0.04125 l 0,0.49 c -0.21625,0.07 -0.48375,0.10375 -0.69,0.10375 -0.8275,0 -0.9925,-0.61125 -0.9925,-1.1125" />
  <path
     style="fill:#484848;fill-opacity:1;fill-rule:nonzero;stroke:none"
     id="path2587"
     d="m 88.678813,42.049101 0,-0.915 c 0,-1.19 0.81125,-1.85375 1.85375,-1.85375 0.9575,0 1.7175,0.5775 1.7175,1.69875 l 0,0.68125 -2.9075,0 0,0.44875 c 0,0.70625 0.4825,1.1475 1.24125,1.1475 0.50125,0 0.86375,-0.26 1.09625,-0.5525 l 0.49125,0.2925 c -0.38875,0.605 -1.00875,0.81125 -1.63,0.81125 -1.06125,0 -1.8625,-0.56875 -1.8625,-1.75875 m 2.9325,-0.83625 0,-0.25125 c 0,-0.655 -0.38875,-1.145 -1.11375,-1.145 -0.6975,0 -1.155,0.51625 -1.155,1.20625 l 0,0.19 2.26875,0 z" />
  <path
     style="fill:#484848;fill-opacity:1;fill-rule:nonzero;stroke:none"
     id="path2591"
     d="m 95.832063,37.546971 2.4325,0 c 1.155,0 2.086247,0.67375 2.086247,1.9325 0,0.7325 -0.387497,1.49125 -1.214997,1.78375 l 1.526247,2.43375 -1.251247,0 -1.44,-2.30375 -0.99125,0 0,2.30375 -1.1475,0 0,-6.15 z m 2.29375,2.88125 c 0.665,0 1.105,-0.32 1.105,-0.9575 0,-0.725 -0.48375,-0.95625 -1.1225,-0.95625 l -1.12875,0 0,1.91375 1.14625,0 z" />
  <path
     style="fill:#484848;fill-opacity:1;fill-rule:nonzero;stroke:none"
     id="path2595"
     d="m 101.52768,37.546971 1.05125,0 0,2.2775 0.0262,0 c 0.2925,-0.42375 0.76,-0.63 1.215,-0.63 0.9925,0 1.545,0.62125 1.545,1.6725 l 0,2.83 -1.0525,0 0,-2.5625 c 0,-0.66375 -0.285,-1.0175 -0.82,-1.0175 -0.57625,0 -0.91375,0.35375 -0.91375,1.10375 l 0,2.47625 -1.05125,0 0,-6.15 z" />
  <path
     style="fill:#484848;fill-opacity:1;fill-rule:nonzero;stroke:none"
     id="path2599"
     d="m 106.37731,41.996351 0,-0.86125 c 0,-1.24125 0.93125,-1.9325 2.02624,-1.9325 0.95626,0 1.90625,0.56125 1.90625,1.73375 l 0,0.85375 -2.83874,0 0,0.2425 c 0,0.56 0.45749,0.88625 1.01875,0.88625 0.35375,0 0.72375,-0.23125 0.95749,-0.56875 l 0.81001,0.46625 c -0.345,0.69 -1.04375,0.98375 -1.82001,0.98375 -1.08624,0 -2.05999,-0.595 -2.05999,-1.80375 m 2.88,-0.94 0,-0.12 c 0,-0.60375 -0.4225,-0.845 -0.85376,-0.845 -0.44874,0 -0.93249,0.24125 -0.93249,0.905 l 0,0.06 1.78625,0 z" />
  <path
     style="fill:#484848;fill-opacity:1;fill-rule:nonzero;stroke:none"
     id="path2601"
     d="m 111.39043,37.487471 1.0525,0 0,1.12125 -1.0525,0 0,-1.12125 z m 0,1.79375 1.0525,0 0,4.41625 -1.0525,0 0,-4.41625 z" />
  <path
     style="fill:#484848;fill-opacity:1;fill-rule:nonzero;stroke:none"
     id="path2613"
     d="m 113.71068,39.280851 1.02625,0 0,0.54375 0.0175,0 c 0.29375,-0.42375 0.76,-0.63 1.25,-0.63 0.9925,0 1.545,0.62125 1.545,1.6725 l 0,2.83 -1.0525,0 0,-2.5625 c 0,-0.66375 -0.285,-1.0175 -0.82,-1.0175 -0.5775,0 -0.91375,0.35375 -0.91375,1.10375 l 0,2.47625 -1.0525,0 0,-4.41625 z" />
  <path
     style="fill:#484848;fill-opacity:1;fill-rule:nonzero;stroke:none"
     id="path2617"
     d="m 118.99218,37.546971 1.39625,0 1.5875,3.84625 0.0175,0 1.54375,-3.84625 1.3975,0 0,6.15 -1.105,0 0,-4.0975 -0.0162,0 -1.3975,3.38875 -0.905,0 -1.3975,-3.37 -0.0175,0 0,4.07875 -1.10375,0 0,-6.15 z" />
  <path
     style="fill:#484848;fill-opacity:1;fill-rule:nonzero;stroke:none"
     id="path2629"
     d="m 125.97281,42.445101 c 0,-0.85375 0.77625,-1.3625 1.63,-1.3625 l 1.1725,0 0,-0.405 c 0,-0.46625 -0.30875,-0.66375 -0.84375,-0.66375 -0.4575,0 -0.795,0.155 -0.795,0.43875 l 0,0.15625 -0.9475,0 0,-0.12125 c 0,-0.965 0.9225,-1.29375 1.74999,-1.29375 0.98376,0 1.88875,0.32875 1.88875,1.40625 l 0,2.1475 c 0,0.1975 0.0263,0.85375 0.0775,0.94875 l -1.0425,0 c -0.0175,-0.07 -0.035,-0.3375 -0.0437,-0.40625 l -0.0175,0 c -0.3875,0.40625 -0.72375,0.4925 -1.29375,0.4925 -0.915,0 -1.535,-0.50125 -1.535,-1.3375 m 2.8025,-0.37875 0,-0.215 -1.03375,0 c -0.44875,0 -0.74125,0.155 -0.74125,0.5425 0,0.37 0.30125,0.56125 0.7925,0.56125 0.845,0 0.9825,-0.415 0.9825,-0.88875" />
  <path
     style="fill:#484848;fill-opacity:1;fill-rule:nonzero;stroke:none"
     id="path2631"
     d="m 131.05543,37.487471 1.0525,0 0,1.12125 -1.0525,0 0,-1.12125 z m 0,1.79375 1.0525,0 0,4.41625 -1.0525,0 0,-4.41625 z" />
  <path
     style="fill:#484848;fill-opacity:1;fill-rule:nonzero;stroke:none"
     id="path2643"
     d="m 133.37668,39.280851 1.02625,0 0,0.54375 0.0162,0 c 0.29375,-0.42375 0.76,-0.63 1.25125,-0.63 0.9925,0 1.545,0.62125 1.545,1.6725 l 0,2.83 -1.05375,0 0,-2.5625 c 0,-0.66375 -0.28375,-1.0175 -0.81875,-1.0175 -0.5775,0 -0.91375,0.35375 -0.91375,1.10375 l 0,2.47625 -1.0525,0 0,-4.41625 z" />
  <path
     style="fill:#484848;fill-opacity:1;fill-rule:nonzero;stroke:none"
     id="path2647"
     d="m 48.649183,52.472971 0,-4.14 0.69875,0 0,4.01875 c 0,1.095 0.66375,1.605 1.5875,1.605 0.99875,0 1.6025,-0.56875 1.5775,-1.57875 l 0,-4.045 0.68875,0 0,4.0975 c 0.01,1.3525 -0.9225,2.155 -2.285,2.155 -1.19,0 -2.2675,-0.62875 -2.2675,-2.1125" />
  <path
     style="fill:#484848;fill-opacity:1;fill-rule:nonzero;stroke:none"
     id="path2651"
     d="m 54.551063,50.153471 0.62,0 0,0.75 0.01875,0 c 0.3025,-0.56 0.84499,-0.845 1.4225,-0.845 0.9225,0 1.38875,0.6025 1.38875,1.43125 l 0,2.99375 -0.6475,0 0,-2.7525 c 0,-0.7675 -0.36125,-1.11125 -0.93875,-1.11125 -0.655,0 -1.225,0.49 -1.225,1.31 l 0,2.55375 -0.63875,0 0,-4.33 z" />
  <path
     style="fill:#484848;fill-opacity:1;fill-rule:nonzero;stroke:none"
     id="path2653"
     d="m 59.305433,48.333721 0.63875,0 0,0.94 -0.63875,0 0,-0.94 z m 0,1.82 0.63875,0 0,4.33 -0.63875,0 0,-4.33 z" />
  <path
     style="fill:#484848;fill-opacity:1;fill-rule:nonzero;stroke:none"
     id="path2657"
     d="m 60.815433,50.153471 0.69125,0 1.19875,3.52625 0.0088,0 1.22375,-3.52625 0.655,0 -1.5775,4.34625 -0.63875,0 -1.56125,-4.34625 z" />
  <path
     style="fill:#484848;fill-opacity:1;fill-rule:nonzero;stroke:none"
     id="path2669"
     d="m 65.259563,52.835471 0,-0.915 c 0,-1.19 0.81124,-1.85375 1.855,-1.85375 0.95625,0 1.71625,0.5775 1.71625,1.69875 l 0,0.68125 -2.90625,0 0,0.44875 c 0,0.70625 0.4825,1.1475 1.23999,1.1475 0.50251,0 0.86376,-0.26 1.09626,-0.5525 l 0.49125,0.2925 c -0.38875,0.605 -1.00875,0.81125 -1.62875,0.81125 -1.0625,0 -1.86375,-0.56875 -1.86375,-1.75875 m 2.9325,-0.83625 0,-0.25125 c 0,-0.655 -0.38876,-1.14625 -1.1125,-1.14625 -0.69875,0 -1.155,0.51625 -1.155,1.2075 l 0,0.19 2.2675,0 z" />
  <path
     style="fill:#484848;fill-opacity:1;fill-rule:nonzero;stroke:none"
     id="path2673"
     d="m 69.918563,50.153471 0.63,0 0,0.87 0.01625,0 c 0.34625,-0.68875 0.99249,-0.94 1.55375,-0.94 0.11125,0 0.22375,0.0087 0.31875,0.02625 l 0,0.60375 c -0.14626,-0.02625 -0.285,-0.02625 -0.3975,-0.02625 -0.81875,0 -1.45626,0.50125 -1.475,1.4325 l 0,2.36375 -0.64625,0 0,-4.33 z" />
  <path
     style="fill:#484848;fill-opacity:1;fill-rule:nonzero;stroke:none"
     id="path2677"
     d="m 72.974313,53.896101 0.43874,-0.3625 c 0.34626,0.3525 0.76001,0.53375 1.31126,0.53375 0.5175,0 1.0525,-0.2675 1.0525,-0.775 0,-0.48375 -0.30125,-0.62125 -0.8975,-0.7325 l -0.49875,-0.10375 c -0.75125,-0.1475 -1.21625,-0.4925 -1.21625,-1.11375 0,-0.75 0.61125,-1.29375 1.5525,-1.29375 0.65499,0 1.17249,0.155 1.50875,0.54375 l -0.44,0.33625 c -0.27626,-0.24125 -0.61125,-0.37875 -1.10376,-0.37875 -0.52624,0 -0.88749,0.28375 -0.88749,0.6975 0,0.415 0.35249,0.5525 0.93875,0.67375 l 0.6475,0.1375 c 0.6375,0.13875 1.06,0.48375 1.06,1.12125 0,0.94125 -0.87001,1.40625 -1.7075,1.40625 -0.70626,0 -1.35375,-0.19 -1.75875,-0.69" />
  <path
     style="fill:#484848;fill-opacity:1;fill-rule:nonzero;stroke:none"
     id="path2679"
     d="m 77.521683,48.333721 0.63875,0 0,0.94 -0.63875,0 0,-0.94 z m 0,1.82 0.63875,0 0,4.33 -0.63875,0 0,-4.33 z" />
  <path
     style="fill:#484848;fill-opacity:1;fill-rule:nonzero;stroke:none"
     id="path2691"
     d="m 79.798933,53.576971 0,-2.8975 -0.75,0 0,-0.5175 0.75,0 0,-1.355 0.63875,0 0,1.355 1.19875,0 0,0.5175 -1.19875,0 0,2.73375 c 0,0.43125 0.22375,0.56 0.61125,0.56 0.225,0 0.4225,-0.03375 0.63,-0.0775 l 0,0.5525 c -0.2675,0.085 -0.62,0.11125 -0.80125,0.11125 -0.57,0 -1.07875,-0.24125 -1.07875,-0.9825" />
  <path
     style="fill:#484848;fill-opacity:1;fill-rule:nonzero;stroke:none"
     id="path2695"
     d="m 82.223813,56.172351 0,-0.5525 c 0.18125,0.04375 0.3625,0.07 0.535,0.07 0.35375,0 0.60375,-0.21625 0.725,-0.54375 l 0.2925,-0.7675 -1.63,-4.225 0.69875,0 1.25,3.42375 0.0175,0 1.19875,-3.42375 0.65625,0 -1.86375,5.0625 c -0.27625,0.775 -0.80125,1.0175 -1.35375,1.0175 -0.13875,0 -0.32875,-0.0175 -0.52625,-0.06125" />
  <path
     style="fill:#484848;fill-opacity:1;fill-rule:nonzero;stroke:none"
     id="path2699"
     d="m 88.634563,52.921721 0,-1.12125 c 0,-1.13875 0.8275,-1.73375 1.80375,-1.73375 1.06875,0 1.82,0.62875 1.82,1.725 l 0,1.06 c 0,1.13 -0.81125,1.7425 -1.795,1.7425 -1.06,0 -1.82875,-0.5775 -1.82875,-1.6725 m 2.9675,-0.04375 0,-1.14625 c 0,-0.655 -0.3875,-1.12125 -1.16375,-1.12125 -0.71625,0 -1.15625,0.42125 -1.15625,1.155 l 0,1.13875 c 0,0.68125 0.41374,1.13875 1.18125,1.13875 0.71625,0 1.13875,-0.38875 1.13875,-1.165" />
  <path
     style="fill:#484848;fill-opacity:1;fill-rule:nonzero;stroke:none"
     id="path2703"
     d="m 93.768563,50.669721 -0.76625,0 0,-0.5075 0.76625,0 0,-0.7425 c 0,-0.79375 0.415,-1.22375 1.17375,-1.22375 0.16375,0 0.3275,0.01625 0.47374,0.05125 l 0,0.56 c -0.14624,-0.03375 -0.24999,-0.0425 -0.42249,-0.0425 -0.32751,0 -0.58625,0.16375 -0.58625,0.62 l 0,0.7775 0.98374,0 0,0.5075 -0.98374,0 0,3.8125 -0.63875,0 0,-3.8125 z" />
  <path
     style="fill:#484848;fill-opacity:1;fill-rule:nonzero;stroke:none"
     id="path2707"
     d="m 100.14556,48.316471 0.64625,0 2.26875,6.16625 -0.73376,0 -0.63,-1.78625 -2.509997,0 -0.64625,1.78625 -0.69749,0 2.302497,-6.16625 z m 1.35375,3.79375 -1.04376,-2.9575 -0.009,0 -1.061237,2.9575 2.113747,0 z" />
  <path
     style="fill:#484848;fill-opacity:1;fill-rule:nonzero;stroke:none"
     id="path2719"
     d="m 104.00293,50.153471 0.62125,0 0,0.70625 0.0175,0 c 0.31,-0.56875 0.8975,-0.80125 1.3625,-0.80125 0.9225,0 1.57,0.5775 1.57,1.53375 l 0,1.33 c 0,1.16375 -0.8025,1.6725 -1.6475,1.6725 -0.54375,0 -1.07,-0.31125 -1.26,-0.8025 l -0.025,0 0,2.36375 -0.63875,0 0,-6.0025 z m 2.91625,2.82875 0,-1.36375 c 0,-0.5775 -0.42375,-1.0075 -1.105,-1.0075 -0.55125,0 -1.1725,0.45625 -1.1725,1.28375 l 0,0.92375 c 0,0.75 0.55125,1.22375 1.19,1.22375 0.52625,0 1.0875,-0.31875 1.0875,-1.06" />
  <path
     style="fill:#484848;fill-opacity:1;fill-rule:nonzero;stroke:none"
     id="path2723"
     d="m 108.71468,50.153471 0.62,0 0,0.70625 0.0187,0 c 0.31,-0.56875 0.89625,-0.80125 1.36125,-0.80125 0.92375,0 1.57125,0.5775 1.57125,1.53375 l 0,1.33 c 0,1.16375 -0.8025,1.6725 -1.6475,1.6725 -0.54375,0 -1.07,-0.31125 -1.25875,-0.8025 l -0.0263,0 0,2.36375 -0.63875,0 0,-6.0025 z m 2.915,2.82875 0,-1.36375 c 0,-0.5775 -0.42125,-1.0075 -1.10375,-1.0075 -0.5525,0 -1.1725,0.45625 -1.1725,1.28375 l 0,0.92375 c 0,0.75 0.55125,1.22375 1.19,1.22375 0.525,0 1.08625,-0.31875 1.08625,-1.06" />
  <path
     style="fill:#484848;fill-opacity:1;fill-rule:nonzero;stroke:none"
     id="path2727"
     d="m 113.43468,53.420971 0,-5.09625 0.64625,0 0,5.1225 c 0,0.3025 0.165,0.53375 0.56125,0.53375 0.1725,0 0.32,-0.025 0.475,-0.04125 l 0,0.49 c -0.21625,0.07 -0.48375,0.10375 -0.69,0.10375 -0.82875,0 -0.9925,-0.61125 -0.9925,-1.1125" />
  <path
     style="fill:#484848;fill-opacity:1;fill-rule:nonzero;stroke:none"
     id="path2729"
     d="m 116.04918,48.333721 0.63875,0 0,0.94 -0.63875,0 0,-0.94 z m 0,1.82 0.63875,0 0,4.33 -0.63875,0 0,-4.33 z" />
  <path
     style="fill:#484848;fill-opacity:1;fill-rule:nonzero;stroke:none"
     id="path2741"
     d="m 117.82718,52.835471 0,-0.915 c 0,-1.19 0.81125,-1.85375 1.85375,-1.85375 0.9575,0 1.7175,0.5775 1.7175,1.69875 l 0,0.68125 -2.9075,0 0,0.44875 c 0,0.70625 0.4825,1.1475 1.24125,1.1475 0.50125,0 0.86375,-0.26 1.09625,-0.5525 l 0.49125,0.2925 c -0.38875,0.605 -1.00875,0.81125 -1.63,0.81125 -1.06125,0 -1.8625,-0.56875 -1.8625,-1.75875 m 2.9325,-0.83625 0,-0.25125 c 0,-0.655 -0.38875,-1.14625 -1.11375,-1.14625 -0.6975,0 -1.155,0.51625 -1.155,1.2075 l 0,0.19 2.26875,0 z" />
  <path
     style="fill:#484848;fill-opacity:1;fill-rule:nonzero;stroke:none"
     id="path2745"
     d="m 122.31443,53.050221 0,-1.3275 c 0,-1.165 0.80125,-1.66375 1.65625,-1.66375 0.535,0 1.06,0.30125 1.25,0.79125 l 0.0262,0 0,-2.5175 0.63875,0 0,6.15 -0.6225,0 0,-0.76 -0.0162,0 c -0.29375,0.60375 -0.90625,0.87125 -1.355,0.87125 -0.93125,0 -1.5775,-0.58625 -1.5775,-1.54375 m 2.9325,-0.3175 0,-0.90625 c 0,-0.75 -0.54375,-1.225 -1.19,-1.225 -0.5275,0 -1.09625,0.31875 -1.09625,1.06 l 0,1.36375 c 0,0.5775 0.43125,1.00875 1.1125,1.00875 0.56125,0 1.17375,-0.465 1.17375,-1.30125" />
  <path
     style="fill:#484848;fill-opacity:1;fill-rule:nonzero;stroke:none"
     id="path2749"
     d="m 129.07068,53.111351 0.63875,-0.23375 c 0.24125,0.69125 0.86125,1.095 1.6975,1.095 0.81125,0 1.46625,-0.39625 1.46625,-1.10375 0,-0.655 -0.405,-0.9225 -0.9475,-1.095 l -1.165,-0.32625 c -0.8625,-0.2425 -1.3625,-0.69125 -1.3625,-1.57 0,-1.01875 0.8625,-1.65625 1.975,-1.65625 0.94875,0 1.7425,0.35375 2.06125,1.16375 l -0.60375,0.24125 c -0.2675,-0.52625 -0.7675,-0.81875 -1.46625,-0.81875 -0.63,0 -1.27625,0.31875 -1.27625,1.00875 0,0.4825 0.2925,0.82 1.0175,1.035 l 1.17375,0.32875 c 0.725,0.1975 1.27625,0.64625 1.27625,1.62 0,1.0525 -0.8725,1.78625 -2.1825,1.78625 -1.12125,0 -2.0175,-0.51 -2.3025,-1.475" />
  <path
     style="fill:#484848;fill-opacity:1;fill-rule:nonzero;stroke:none"
     id="path2753"
     d="m 134.42905,52.843851 0,-0.96625 c 0,-1.14625 0.74251,-1.81 1.79376,-1.81 0.9925,0 1.70875,0.56 1.70875,1.5 l 0,0.11125 -0.62126,0 0,-0.145 c 0,-0.48375 -0.36249,-0.9325 -1.07874,-0.9325 -0.715,0 -1.1375,0.49125 -1.1375,1.21625 l 0,1.0425 c 0,0.7 0.37,1.1825 1.14625,1.1825 0.71625,0 1.06999,-0.44 1.06999,-0.9225 l 0,-0.12125 0.62126,0 0,0.09625 c 0,0.93 -0.69125,1.5 -1.69125,1.5 -1.07875,0 -1.81126,-0.63 -1.81126,-1.75125" />
  <path
     style="fill:#484848;fill-opacity:1;fill-rule:nonzero;stroke:none"
     id="path2755"
     d="m 138.95168,48.333721 0.63875,0 0,0.94 -0.63875,0 0,-0.94 z m 0,1.82 0.63875,0 0,4.33 -0.63875,0 0,-4.33 z" />
  <path
     style="fill:#484848;fill-opacity:1;fill-rule:nonzero;stroke:none"
     id="path2767"
     d="m 140.72806,52.835471 0,-0.915 c 0,-1.19 0.81124,-1.85375 1.85499,-1.85375 0.95625,0 1.71626,0.5775 1.71626,1.69875 l 0,0.68125 -2.90625,0 0,0.44875 c 0,0.70625 0.4825,1.1475 1.24,1.1475 0.5025,0 0.86374,-0.26 1.09625,-0.5525 l 0.49125,0.2925 c -0.38875,0.605 -1.00875,0.81125 -1.62875,0.81125 -1.0625,0 -1.86375,-0.56875 -1.86375,-1.75875 m 2.9325,-0.83625 0,-0.25125 c 0,-0.655 -0.38875,-1.14625 -1.1125,-1.14625 -0.69875,0 -1.155,0.51625 -1.155,1.2075 l 0,0.19 2.2675,0 z" />
  <path
     style="fill:#484848;fill-opacity:1;fill-rule:nonzero;stroke:none"
     id="path2771"
     d="m 145.4218,50.153471 0.62001,0 0,0.75 0.0187,0 c 0.3025,-0.56 0.845,-0.845 1.4225,-0.845 0.92249,0 1.38875,0.6025 1.38875,1.43125 l 0,2.99375 -0.6475,0 0,-2.7525 c 0,-0.7675 -0.36125,-1.11125 -0.93875,-1.11125 -0.655,0 -1.225,0.49 -1.225,1.31 l 0,2.55375 -0.63876,0 0,-4.33 z" />
  <path
     style="fill:#484848;fill-opacity:1;fill-rule:nonzero;stroke:none"
     id="path2775"
     d="m 149.96918,52.843851 0,-0.96625 c 0,-1.14625 0.7425,-1.81 1.795,-1.81 0.99125,0 1.7075,0.56 1.7075,1.5 l 0,0.11125 -0.62,0 0,-0.145 c 0,-0.48375 -0.3625,-0.9325 -1.07875,-0.9325 -0.71625,0 -1.13875,0.49125 -1.13875,1.21625 l 0,1.0425 c 0,0.7 0.37,1.1825 1.14625,1.1825 0.71625,0 1.07125,-0.44 1.07125,-0.9225 l 0,-0.12125 0.62,0 0,0.09625 c 0,0.93 -0.69,1.5 -1.69125,1.5 -1.07875,0 -1.81125,-0.63 -1.81125,-1.75125" />
  <path
     style="fill:#484848;fill-opacity:1;fill-rule:nonzero;stroke:none"
     id="path2779"
     d="m 154.28368,52.835471 0,-0.915 c 0,-1.19 0.81125,-1.85375 1.85375,-1.85375 0.95875,0 1.7175,0.5775 1.7175,1.69875 l 0,0.68125 -2.9075,0 0,0.44875 c 0,0.70625 0.48375,1.1475 1.2425,1.1475 0.5,0 0.8625,-0.26 1.09625,-0.5525 l 0.49,0.2925 c -0.3875,0.605 -1.00875,0.81125 -1.63,0.81125 -1.06,0 -1.8625,-0.56875 -1.8625,-1.75875 m 2.9325,-0.83625 0,-0.25125 c 0,-0.655 -0.3875,-1.14625 -1.1125,-1.14625 -0.69875,0 -1.15625,0.51625 -1.15625,1.2075 l 0,0.19 2.26875,0 z" />
  <path
     style="fill:#484848;fill-opacity:1;fill-rule:nonzero;stroke:none"
     id="path2783"
     d="m 158.66781,53.896101 0.44,-0.3625 c 0.345,0.3525 0.75875,0.53375 1.31125,0.53375 0.51624,0 1.05125,-0.2675 1.05125,-0.775 0,-0.48375 -0.3025,-0.62125 -0.89625,-0.7325 l -0.50125,-0.10375 c -0.75001,-0.1475 -1.215,-0.4925 -1.215,-1.11375 0,-0.75 0.6125,-1.29375 1.55249,-1.29375 0.65501,0 1.17375,0.155 1.50876,0.54375 l -0.44,0.33625 c -0.27625,-0.24125 -0.6125,-0.37875 -1.10375,-0.37875 -0.52625,0 -0.8875,0.28375 -0.8875,0.6975 0,0.415 0.35375,0.5525 0.93875,0.67375 l 0.6475,0.1375 c 0.6375,0.13875 1.06124,0.48375 1.06124,1.12125 0,0.94125 -0.87249,1.40625 -1.70874,1.40625 -0.70625,0 -1.35376,-0.19 -1.75875,-0.69" />
  <path
     style="fill:#484848;fill-opacity:1;fill-rule:nonzero;stroke:none"
     id="path2787"
     d="m 48.225813,59.119601 0.71625,0 1.215,5.07875 0.0087,0 1.31125,-5.07875 0.62125,0 1.285,5.07875 0.0175,0 1.23375,-5.07875 0.69,0 -1.59625,6.18375 -0.655,0 -1.285,-5.09625 -0.0175,0 -1.285,5.09625 -0.6725,0 -1.5875,-6.18375 z" />
  <path
     style="fill:#484848;fill-opacity:1;fill-rule:nonzero;stroke:none"
     id="path2789"
     d="m 56.250433,59.119971 0.63875,0 0,0.94 -0.63875,0 0,-0.94 z m 0,1.82 0.63875,0 0,4.32875 -0.63875,0 0,-4.32875 z" />
  <path
     style="fill:#484848;fill-opacity:1;fill-rule:nonzero;stroke:none"
     id="path2801"
     d="m 58.201063,63.621721 0,-0.91375 c 0,-1.19125 0.81125,-1.855 1.85375,-1.855 0.95875,0 1.7175,0.5775 1.7175,1.69875 l 0,0.68125 -2.9075,0 0,0.44875 c 0,0.70625 0.48375,1.1475 1.2425,1.1475 0.5,0 0.8625,-0.26 1.09624,-0.5525 l 0.49,0.2925 c -0.38749,0.605 -1.00874,0.81125 -1.62999,0.81125 -1.06001,0 -1.8625,-0.56875 -1.8625,-1.75875 m 2.9325,-0.83625 0,-0.25125 c 0,-0.655 -0.3875,-1.14625 -1.1125,-1.14625 -0.69876,0 -1.15625,0.51625 -1.15625,1.2075 l 0,0.19 2.26875,0 z" />
  <path
     style="fill:#484848;fill-opacity:1;fill-rule:nonzero;stroke:none"
     id="path2805"
     d="m 62.585063,64.682471 0.43875,-0.3625 c 0.345,0.3525 0.76,0.53375 1.3125,0.53375 0.51625,0 1.05125,-0.2675 1.05125,-0.775 0,-0.48375 -0.3025,-0.62125 -0.8975,-0.7325 l -0.5,-0.10375 c -0.75,-0.1475 -1.215,-0.4925 -1.215,-1.11375 0,-0.75 0.61125,-1.29375 1.5525,-1.29375 0.655,0 1.1725,0.155 1.5075,0.54375 l -0.44,0.33625 c -0.275,-0.24125 -0.61125,-0.37875 -1.10375,-0.37875 -0.525,0 -0.8875,0.28375 -0.8875,0.6975 0,0.415 0.35375,0.5525 0.94,0.67375 l 0.6475,0.1375 c 0.6375,0.13875 1.06,0.48375 1.06,1.12125 0,0.94 -0.87125,1.40625 -1.7075,1.40625 -0.7075,0 -1.35375,-0.19 -1.75875,-0.69" />
  <path
     style="fill:#484848;fill-opacity:1;fill-rule:nonzero;stroke:none"
     id="path2809"
     d="m 67.769683,64.578101 -0.025,0 0,0.69125 -0.61375,0 0,-6.15 0.63875,0 0,2.5275 0.02625,0 c 0.29375,-0.57875 0.87125,-0.8025 1.33625,-0.8025 0.92375,0 1.57,0.58625 1.57,1.54375 l 0,1.32 c 0,1.16375 -0.82,1.6725 -1.6725,1.6725 -0.535,0 -1.07,-0.31 -1.26,-0.8025 m 2.2775,-0.81 0,-1.38 c 0,-0.57875 -0.4225,-0.99125 -1.10375,-0.99125 -0.5525,0 -1.17375,0.4825 -1.17375,1.31 l 0,0.8975 c 0,0.75 0.5525,1.225 1.19,1.225 0.5275,0 1.0875,-0.32 1.0875,-1.06125" />
  <path
     style="fill:#484848;fill-opacity:1;fill-rule:nonzero;stroke:none"
     id="path2813"
     d="m 71.601683,64.104101 c 0,-0.94 0.85375,-1.3025 1.60375,-1.3025 l 1.23375,0 0,-0.6025 c 0,-0.6225 -0.415,-0.84625 -1.035,-0.84625 -0.50875,0 -1.02625,0.18125 -1.02625,0.6725 l 0,0.1475 -0.58625,0 0,-0.12875 c 0,-0.88125 0.8275,-1.19875 1.63875,-1.19875 0.87,0 1.65625,0.30125 1.65625,1.275 l 0,2.095 c 0,0.2425 0.03375,0.88125 0.06,1.05375 l -0.62875,0 c -0.01875,-0.13 -0.03625,-0.50125 -0.045,-0.6125 l -0.01625,0 c -0.3625,0.595 -0.88,0.7075 -1.415,0.7075 -0.81,0 -1.44,-0.4575 -1.44,-1.26 m 2.8375,-0.41375 0,-0.41375 -1.12125,0 c -0.5525,0 -1.0775,0.1475 -1.0775,0.79375 0,0.52625 0.44875,0.78375 0.97375,0.78375 0.8625,0 1.225,-0.4825 1.225,-1.16375" />
  <path
     style="fill:#484848;fill-opacity:1;fill-rule:nonzero;stroke:none"
     id="path2817"
     d="m 76.157683,63.836601 0,-1.3275 c 0,-1.165 0.80125,-1.66375 1.65625,-1.66375 0.535,0 1.06,0.30125 1.25,0.79125 l 0.02625,0 0,-2.5175 0.63875,0 0,6.15 -0.62125,0 0,-0.75875 -0.0175,0 c -0.29375,0.6025 -0.90625,0.87 -1.35375,0.87 -0.9325,0 -1.57875,-0.58625 -1.57875,-1.54375 m 2.9325,-0.3175 0,-0.90625 c 0,-0.75 -0.54375,-1.225 -1.19,-1.225 -0.52625,0 -1.09625,0.31875 -1.09625,1.06 l 0,1.36375 c 0,0.5775 0.43125,1.00875 1.11375,1.00875 0.56,0 1.1725,-0.465 1.1725,-1.30125" />
  <path
     style="fill:#484848;fill-opacity:1;fill-rule:nonzero;stroke:none"
     id="path2821"
     d="m 80.877563,63.621721 0,-0.91375 c 0,-1.19125 0.81125,-1.855 1.85375,-1.855 0.95875,0 1.7175,0.5775 1.7175,1.69875 l 0,0.68125 -2.9075,0 0,0.44875 c 0,0.70625 0.48375,1.1475 1.2425,1.1475 0.5,0 0.8625,-0.26 1.09625,-0.5525 l 0.49,0.2925 c -0.3875,0.605 -1.00875,0.81125 -1.63,0.81125 -1.06,0 -1.8625,-0.56875 -1.8625,-1.75875 m 2.9325,-0.83625 0,-0.25125 c 0,-0.655 -0.3875,-1.14625 -1.1125,-1.14625 -0.69875,0 -1.15625,0.51625 -1.15625,1.2075 l 0,0.19 2.26875,0 z" />
  <path
     style="fill:#484848;fill-opacity:1;fill-rule:nonzero;stroke:none"
     id="path2825"
     d="m 85.571433,60.939851 0.62125,0 0,0.75 0.0175,0 c 0.3025,-0.56 0.845,-0.845 1.42375,-0.845 0.9225,0 1.38875,0.6025 1.38875,1.43125 l 0,2.9925 -0.6475,0 0,-2.75125 c 0,-0.7675 -0.3625,-1.11125 -0.94,-1.11125 -0.655,0 -1.225,0.49 -1.225,1.31 l 0,2.5525 -0.63875,0 0,-4.32875 z" />
  <path
     style="fill:#484848;fill-opacity:1;fill-rule:nonzero;stroke:none"
     id="path2829"
     d="m 92.890063,59.111221 2.18125,0 c 1.1725,0 2.00875,0.6725 2.00875,1.8375 0,0.83625 -0.4825,1.58625 -1.5,1.775 l 1.785,2.545 -0.775,0 -1.735,-2.48375 -1.2675,0 0,2.48375 -0.6975,0 0,-6.1575 z m 2.02625,3.09625 c 0.93125,0 1.475,-0.40625 1.475,-1.2675 0,-0.855 -0.5875,-1.2425 -1.4925,-1.2425 l -1.31125,0 0,2.51 1.32875,0 z" />
  <path
     style="fill:#484848;fill-opacity:1;fill-rule:nonzero;stroke:none"
     id="path2833"
     d="m 98.273813,63.931471 0,-2.99125 0.6475,0 0,2.75 c 0,0.7675 0.37125,1.10375 0.94875,1.10375 0.646247,0 1.214997,-0.49125 1.214997,-1.31125 l 0,-2.5425 0.63875,0 0,4.32875 -0.62125,0 0,-0.75125 -0.0175,0 c -0.30125,0.57 -0.845,0.855 -1.421247,0.855 -0.92375,0 -1.39,-0.62125 -1.39,-1.44125 m 0.6125,-4.58875 0.63875,0 0,0.88875 -0.63875,0 0,-0.88875 z m 1.638747,0 0.63875,0 0,0.88875 -0.63875,0 0,-0.88875 z" />
  <path
     style="fill:#484848;fill-opacity:1;fill-rule:nonzero;stroke:none"
     id="path2837"
     d="m 102.73468,64.682471 0.44,-0.3625 c 0.34625,0.3525 0.75875,0.53375 1.31125,0.53375 0.5175,0 1.0525,-0.2675 1.0525,-0.775 0,-0.48375 -0.3025,-0.62125 -0.8975,-0.7325 l -0.5,-0.10375 c -0.75125,-0.1475 -1.21625,-0.4925 -1.21625,-1.11375 0,-0.75 0.6125,-1.29375 1.5525,-1.29375 0.655,0 1.17375,0.155 1.50875,0.54375 l -0.43875,0.33625 c -0.27625,-0.24125 -0.6125,-0.37875 -1.10375,-0.37875 -0.5275,0 -0.88875,0.28375 -0.88875,0.6975 0,0.415 0.35375,0.5525 0.93875,0.67375 l 0.64875,0.1375 c 0.63625,0.13875 1.06,0.48375 1.06,1.12125 0,0.94 -0.87125,1.40625 -1.70875,1.40625 -0.705,0 -1.35375,-0.19 -1.75875,-0.69" />
  <path
     style="fill:#484848;fill-opacity:1;fill-rule:nonzero;stroke:none"
     id="path2841"
     d="m 106.97143,64.682471 0.44,-0.3625 c 0.34625,0.3525 0.75875,0.53375 1.31125,0.53375 0.5175,0 1.0525,-0.2675 1.0525,-0.775 0,-0.48375 -0.3025,-0.62125 -0.8975,-0.7325 l -0.5,-0.10375 c -0.75125,-0.1475 -1.21625,-0.4925 -1.21625,-1.11375 0,-0.75 0.6125,-1.29375 1.5525,-1.29375 0.655,0 1.17375,0.155 1.50875,0.54375 l -0.43875,0.33625 c -0.27625,-0.24125 -0.61375,-0.37875 -1.10375,-0.37875 -0.5275,0 -0.88875,0.28375 -0.88875,0.6975 0,0.415 0.35375,0.5525 0.93875,0.67375 l 0.6475,0.1375 c 0.6375,0.13875 1.06125,0.48375 1.06125,1.12125 0,0.94 -0.87125,1.40625 -1.70875,1.40625 -0.705,0 -1.35375,-0.19 -1.75875,-0.69" />
  <path
     style="fill:#484848;fill-opacity:1;fill-rule:nonzero;stroke:none"
     id="path2845"
     d="m 111.31218,63.621721 0,-0.91375 c 0,-1.19125 0.81125,-1.855 1.855,-1.855 0.95625,0 1.71625,0.5775 1.71625,1.69875 l 0,0.68125 -2.90625,0 0,0.44875 c 0,0.70625 0.4825,1.1475 1.24,1.1475 0.50125,0 0.86375,-0.26 1.09625,-0.5525 l 0.49125,0.2925 c -0.38875,0.605 -1.00875,0.81125 -1.62875,0.81125 -1.0625,0 -1.86375,-0.56875 -1.86375,-1.75875 m 2.9325,-0.83625 0,-0.25125 c 0,-0.655 -0.38875,-1.14625 -1.1125,-1.14625 -0.69875,0 -1.155,0.51625 -1.155,1.2075 l 0,0.19 2.2675,0 z" />
  <path
     style="fill:#484848;fill-opacity:1;fill-rule:nonzero;stroke:none"
     id="path2849"
     d="m 116.01543,64.207351 0,-5.09625 0.64625,0 0,5.1225 c 0,0.3025 0.16375,0.53375 0.56125,0.53375 0.1725,0 0.3175,-0.025 0.47375,-0.04125 l 0,0.49 c -0.21625,0.07 -0.4825,0.10375 -0.69,0.10375 -0.8275,0 -0.99125,-0.61125 -0.99125,-1.1125" />
  <path
     style="fill:#484848;fill-opacity:1;fill-rule:nonzero;stroke:none"
     id="path2853"
     d="m 118.31906,64.682471 0.43875,-0.3625 c 0.34625,0.3525 0.76,0.53375 1.3125,0.53375 0.51625,0 1.05125,-0.2675 1.05125,-0.775 0,-0.48375 -0.30125,-0.62125 -0.8975,-0.7325 l -0.49875,-0.10375 c -0.75125,-0.1475 -1.21625,-0.4925 -1.21625,-1.11375 0,-0.75 0.61125,-1.29375 1.5525,-1.29375 0.655,0 1.1725,0.155 1.50875,0.54375 l -0.44,0.33625 c -0.27625,-0.24125 -0.6125,-0.37875 -1.10375,-0.37875 -0.52625,0 -0.8875,0.28375 -0.8875,0.6975 0,0.415 0.3525,0.5525 0.93875,0.67375 l 0.6475,0.1375 c 0.6375,0.13875 1.06,0.48375 1.06,1.12125 0,0.94 -0.87001,1.40625 -1.7075,1.40625 -0.70625,0 -1.35375,-0.19 -1.75875,-0.69" />
  <path
     style="fill:#484848;fill-opacity:1;fill-rule:nonzero;stroke:none"
     id="path2857"
     d="m 122.86643,59.111221 0.63875,0 0,2.57875 0.025,0 c 0.2925,-0.56 0.845,-0.845 1.39625,-0.845 0.9225,0 1.38875,0.6025 1.38875,1.43 l 0,2.99375 -0.6475,0 0,-2.75125 c 0,-0.7675 -0.36,-1.1125 -0.93875,-1.1125 -0.655,0 -1.22375,0.49125 -1.22375,1.31125 l 0,2.5525 -0.63875,0 0,-6.1575 z" />
  <path
     style="fill:#484848;fill-opacity:1;fill-rule:nonzero;stroke:none"
     id="path2861"
     d="m 127.41368,63.621721 0,-0.91375 c 0,-1.19125 0.81125,-1.855 1.855,-1.855 0.95625,0 1.71625,0.5775 1.71625,1.69875 l 0,0.68125 -2.90625,0 0,0.44875 c 0,0.70625 0.4825,1.1475 1.24,1.1475 0.50125,0 0.86375,-0.26 1.09625,-0.5525 l 0.49125,0.2925 c -0.38875,0.605 -1.00875,0.81125 -1.62875,0.81125 -1.0625,0 -1.86375,-0.56875 -1.86375,-1.75875 m 2.9325,-0.83625 0,-0.25125 c 0,-0.655 -0.38875,-1.14625 -1.1125,-1.14625 -0.69875,0 -1.155,0.51625 -1.155,1.2075 l 0,0.19 2.2675,0 z" />
  <path
     style="fill:#484848;fill-opacity:1;fill-rule:nonzero;stroke:none"
     id="path2863"
     d="m 132.10793,59.119971 0.63875,0 0,0.94 -0.63875,0 0,-0.94 z m 0,1.82 0.63875,0 0,4.32875 -0.63875,0 0,-4.32875 z" />
  <path
     style="fill:#484848;fill-opacity:1;fill-rule:nonzero;stroke:none"
     id="path2875"
     d="m 134.08355,60.939851 0.62,0 0,0.75 0.0188,0 c 0.3025,-0.56 0.83625,-0.845 1.43125,-0.845 0.6725,0 1.06,0.3875 1.22375,0.8625 l 0.01,0 c 0.31,-0.5525 0.85375,-0.8625 1.4825,-0.8625 0.83624,0 1.38874,0.52625 1.38874,1.37125 l 0,3.0525 -0.63749,0 0,-2.75125 c 0,-0.7325 -0.32875,-1.11125 -0.94125,-1.11125 -0.64625,0 -1.16375,0.53375 -1.18125,1.24 l 0,2.6225 -0.6375,0 0,-2.7675 c -0.0175,-0.7 -0.32001,-1.095 -0.94001,-1.095 -0.54374,0 -1.19124,0.43 -1.19124,1.24875 l 0,2.61375 -0.64626,0 0,-4.32875 z" />
  <path
     style="fill:#484848;fill-opacity:1;fill-rule:nonzero;stroke:none"
     id="path2879"
     d="m 144.01568,63.319471 0,-2.14 c 0,-1.31 0.9925,-2.18125 2.3275,-2.18125 1.225,0 2.2,0.67375 2.2,1.81125 l 0,0.29375 -0.66375,0 0,-0.2075 c 0,-0.8275 -0.64625,-1.27625 -1.5525,-1.27625 -0.89625,0 -1.62125,0.56875 -1.62125,1.5525 l 0,2.07 c 0,0.93125 0.69875,1.5175 1.66375,1.5175 0.8975,0 1.535,-0.4825 1.535,-1.31 l 0,-0.69 -1.68875,0 0,-0.62125 2.35375,0 0,1.3975 c 0,1.16375 -0.93125,1.845 -2.2,1.845 -1.31125,0 -2.35375,-0.71625 -2.35375,-2.06125" />
  <path
     style="fill:#484848;fill-opacity:1;fill-rule:nonzero;stroke:none"
     id="path2883"
     d="m 149.65006,63.621721 0,-0.91375 c 0,-1.19125 0.81125,-1.855 1.855,-1.855 0.95625,0 1.71625,0.5775 1.71625,1.69875 l 0,0.68125 -2.90625,0 0,0.44875 c 0,0.70625 0.4825,1.1475 1.24,1.1475 0.5025,0 0.86375,-0.26 1.09625,-0.5525 l 0.49125,0.2925 c -0.38875,0.605 -1.00875,0.81125 -1.62875,0.81125 -1.0625,0 -1.86375,-0.56875 -1.86375,-1.75875 m 2.9325,-0.83625 0,-0.25125 c 0,-0.655 -0.38875,-1.14625 -1.1125,-1.14625 -0.69875,0 -1.155,0.51625 -1.155,1.2075 l 0,0.19 2.2675,0 z" />
  <path
     style="fill:#484848;fill-opacity:1;fill-rule:nonzero;stroke:none"
     id="path2885"
     d="m 154.34543,59.119971 0.63875,0 0,0.94 -0.63875,0 0,-0.94 z m 0,1.82 0.63875,0 0,4.32875 -0.63875,0 0,-4.32875 z" />
  <path
     style="fill:#484848;fill-opacity:1;fill-rule:nonzero;stroke:none"
     id="path2897"
     d="m 156.01868,64.682471 0.43875,-0.3625 c 0.34625,0.3525 0.76,0.53375 1.3125,0.53375 0.51625,0 1.05125,-0.2675 1.05125,-0.775 0,-0.48375 -0.30125,-0.62125 -0.8975,-0.7325 l -0.49875,-0.10375 c -0.75125,-0.1475 -1.21625,-0.4925 -1.21625,-1.11375 0,-0.75 0.61125,-1.29375 1.5525,-1.29375 0.655,0 1.1725,0.155 1.50875,0.54375 l -0.44,0.33625 c -0.27625,-0.24125 -0.61125,-0.37875 -1.10375,-0.37875 -0.52625,0 -0.8875,0.28375 -0.8875,0.6975 0,0.415 0.3525,0.5525 0.93875,0.67375 l 0.6475,0.1375 c 0.6375,0.13875 1.06,0.48375 1.06,1.12125 0,0.94 -0.87,1.40625 -1.7075,1.40625 -0.70625,0 -1.35375,-0.19 -1.75875,-0.69" />
  <path
     style="fill:#484848;fill-opacity:1;fill-rule:nonzero;stroke:none"
     id="path2901"
     d="m 160.35856,63.621721 0,-0.91375 c 0,-1.19125 0.81125,-1.855 1.855,-1.855 0.95625,0 1.71625,0.5775 1.71625,1.69875 l 0,0.68125 -2.90625,0 0,0.44875 c 0,0.70625 0.4825,1.1475 1.24,1.1475 0.50124,0 0.86375,-0.26 1.09625,-0.5525 l 0.49125,0.2925 c -0.38876,0.605 -1.00875,0.81125 -1.62875,0.81125 -1.06251,0 -1.86375,-0.56875 -1.86375,-1.75875 m 2.9325,-0.83625 0,-0.25125 c 0,-0.655 -0.38875,-1.14625 -1.11251,-1.14625 -0.69874,0 -1.15499,0.51625 -1.15499,1.2075 l 0,0.19 2.2675,0 z" />
  <path
     style="fill:#484848;fill-opacity:1;fill-rule:nonzero;stroke:none"
     id="path2905"
     d="m 165.05318,60.939851 0.62,0 0,0.75 0.0187,0 c 0.30125,-0.56 0.845,-0.845 1.42125,-0.845 0.9225,0 1.38875,0.6025 1.38875,1.43125 l 0,2.9925 -0.64625,0 0,-2.75125 c 0,-0.7675 -0.36125,-1.11125 -0.94,-1.11125 -0.655,0 -1.22375,0.49 -1.22375,1.31 l 0,2.5525 -0.63875,0 0,-4.32875 z" />
  <path
     style="fill:#484848;fill-opacity:1;fill-rule:nonzero;stroke:none"
     id="path2909"
     d="m 169.80706,59.111221 0.63874,0 0,2.57875 0.0263,0 c 0.2925,-0.56 0.845,-0.845 1.39625,-0.845 0.9225,0 1.38875,0.6025 1.38875,1.43 l 0,2.99375 -0.6475,0 0,-2.75125 c 0,-0.7675 -0.36125,-1.1125 -0.93875,-1.1125 -0.655,0 -1.22501,0.49125 -1.22501,1.31125 l 0,2.5525 -0.63874,0 0,-6.1575 z" />
  <path
     style="fill:#484848;fill-opacity:1;fill-rule:nonzero;stroke:none"
     id="path2913"
     d="m 174.35443,63.621721 0,-0.91375 c 0,-1.19125 0.81125,-1.855 1.855,-1.855 0.9575,0 1.71625,0.5775 1.71625,1.69875 l 0,0.68125 -2.90625,0 0,0.44875 c 0,0.70625 0.4825,1.1475 1.24125,1.1475 0.5,0 0.8625,-0.26 1.09625,-0.5525 l 0.49,0.2925 c -0.3875,0.605 -1.00875,0.81125 -1.62875,0.81125 -1.06125,0 -1.86375,-0.56875 -1.86375,-1.75875 m 2.9325,-0.83625 0,-0.25125 c 0,-0.655 -0.3875,-1.14625 -1.1125,-1.14625 -0.69875,0 -1.155,0.51625 -1.155,1.2075 l 0,0.19 2.2675,0 z" />
  <path
     style="fill:#484848;fill-opacity:1;fill-rule:nonzero;stroke:none"
     id="path2915"
     d="m 179.04793,59.119971 0.63875,0 0,0.94 -0.63875,0 0,-0.94 z m 0,1.82 0.63875,0 0,4.32875 -0.63875,0 0,-4.32875 z" />
  <path
     style="fill:#484848;fill-opacity:1;fill-rule:nonzero;stroke:none"
     id="path2927"
     d="m 181.02406,60.939851 0.62125,0 0,0.75 0.0175,0 c 0.3025,-0.56 0.83625,-0.845 1.4325,-0.845 0.67125,0 1.06,0.3875 1.22375,0.8625 l 0.009,0 c 0.31,-0.5525 0.85375,-0.8625 1.4825,-0.8625 0.83749,0 1.39,0.52625 1.39,1.37125 l 0,3.0525 -0.63875,0 0,-2.75125 c 0,-0.7325 -0.3275,-1.11125 -0.94,-1.11125 -0.6475,0 -1.165,0.53375 -1.18125,1.24 l 0,2.6225 -0.63875,0 0,-2.7675 c -0.0175,-0.7 -0.31875,-1.095 -0.94,-1.095 -0.54375,0 -1.19,0.43 -1.19,1.24875 l 0,2.61375 -0.6475,0 0,-4.32875 z" />
</svg>
