<?xml version="1.0" encoding="UTF-8" standalone="no"?>
<svg
   xmlns:dc="http://purl.org/dc/elements/1.1/"
   xmlns:cc="http://creativecommons.org/ns#"
   xmlns:rdf="http://www.w3.org/1999/02/22-rdf-syntax-ns#"
   xmlns:svg="http://www.w3.org/2000/svg"
   xmlns="http://www.w3.org/2000/svg"
   height="56.700001"
   width="362"
   xml:space="preserve"
   enable-background="new 0 0 416.7 113.4"
   viewBox="0 0 361.99999 56.7"
   y="0px"
   x="0px"
   id="Ebene_1"
   version="1.1"><metadata
     id="metadata53"><rdf:RDF><cc:Work
         rdf:about=""><dc:format>image/svg+xml</dc:format><dc:type
           rdf:resource="http://purl.org/dc/dcmitype/StillImage" /><dc:title></dc:title></cc:Work></rdf:RDF></metadata><defs
     id="defs51" /><g
     transform="translate(-28.3,-28.3)"
     id="g5"><g
       id="g7"><g
         id="g9"><g
           id="g11"><g
             id="g13"><g
               id="g15"><rect
                 width="416.70001"
                 height="113.4"
                 id="rect17"
                 x="0"
                 y="0"
                 style="fill:none" /></g></g></g></g></g></g><g
     transform="translate(-28.3,-28.3)"
     id="g19"><polyline
       points="86.1,85 86.1,28.3 28.3,28.3 28.3,85   "
       id="polyline21"
       style="fill:#ffffff" /><g
       id="g23"><path
         d="m 272.4,50.1 c -2.7,-2.5 -7.6,-4.2 -12,-4.2 -6.8,0 -13.6,2.8 -13.7,9.9 -0.1,7.3 7.1,9.9 13,10.2 4.3,0.2 5.9,1.4 5.9,2.9 0,1.6 -2.7,3.2 -5.3,3.1 -3.3,-0.1 -7,-0.9 -10.8,-4.2 l -4.2,5.9 c 5.3,4.5 10.2,5.4 14.8,5.5 10,0.2 13.9,-5.1 13.9,-10.2 0.1,-8.2 -7.3,-10 -13.5,-10.3 -3.1,-0.1 -5.2,-1.1 -5.2,-2.8 0,-1.5 2.1,-3.1 5.1,-3.1 2.9,0 5.6,0.9 7.9,2.5 l 4.1,-5.2 z"
         id="path25"
         style="fill:#c5073d" /><path
         d="m 212.8,59 -14.9,0 c 0.2,-2.5 2.8,-5.9 7.4,-5.9 4.8,0.1 7.5,3.2 7.5,5.9 m -7.5,-13.1 c -9.9,0 -16.1,7.2 -16.1,16.4 0,9.6 6,16.9 17.1,16.9 4.6,0 9.1,-1.4 12.9,-4.8 l -4.8,-5.5 c -2.2,1.9 -5.6,2.9 -8,2.9 -5,0 -8.3,-3.1 -8.7,-6.5 l 22.9,0 c 1.8,-12.9 -5,-19.4 -15.3,-19.4"
         id="path27"
         style="fill:#c5073d" /><path
         d="m 336.6,62.6 c 0,4.5 -2.2,8.9 -7.6,8.9 -5.3,0 -7.6,-4.6 -7.6,-8.9 0,-4.3 2.3,-8.9 7.6,-8.9 5.4,0 7.6,4.6 7.6,8.9 m 9,0 c 0,-10.7 -7.4,-16.7 -16.6,-16.7 -9.2,0 -16.6,6 -16.6,16.7 0,10.7 7.4,16.7 16.6,16.7 9.2,0 16.6,-6.6 16.6,-16.7"
         id="path29"
         style="fill:#c5073d" /><path
         d="m 246.4,47 c -1.2,-0.6 -2.6,-1.1 -4.1,-1.1 -3,0 -6.4,2 -8.3,4.9 l -1.7,-4.3 -7.1,0 0,32.1 9,0 0.1,-16.6 c 0,-4.8 3,-7.6 6.8,-7.6 0.4,0 0.9,0.1 1.5,0.2 l 3.8,-7.6 z"
         id="path31"
         style="fill:#c5073d" /><path
         d="m 186.6,46.5 -7.2,0 0,-7.8 -9,2.3 0,26.2 c 0,9.5 4.5,12.1 10.7,12.1 2.9,0 4.8,-0.7 8,-2.2 L 186,70.9 c -1,0.5 -2.4,0.9 -3.3,0.9 -1.7,0 -3.3,-0.5 -3.3,-4.7 l 0,-12.7 7.2,0 0,-7.9 z"
         id="path33"
         style="fill:#c5073d" /><rect
         x="118.5"
         y="46.5"
         width="9.1999998"
         height="32.099998"
         id="rect35"
         style="fill:#c5073d" /><path
         d="m 164.7,78.6 0,-17 c 0,-12.4 -6.1,-15.7 -13,-15.7 -3.5,0 -6.7,1.2 -8.9,4.8 l -1.5,-4.1 -7.1,0 0,32.1 9,0 0,-17.2 c 0,-4.7 2.3,-7.6 6.5,-7.5 4.3,0 6,2.6 6,7.5 l 0,17.1 9,0 z"
         id="path37"
         style="fill:#c5073d" /><path
         d="m 308.3,78.6 0,-17 c 0,-12.4 -6.1,-15.7 -13,-15.7 -3.1,0 -7.2,2 -8.5,4.7 l 0,-12.6 -9,0 0,40.6 9,0 0,-17.1 c 0,-4.7 2.3,-7.6 6.5,-7.5 4.3,0 6,2.6 6,7.5 l 0,17.1 9,0 z"
         id="path39"
         style="fill:#c5073d" /><polygon
         points="86.1,28.3 28.3,28.3 28.3,85 55.5,85 55.5,49 73.7,30.9 73.7,67.2 55.8,85 86.1,85 "
         id="polygon41"
         style="fill:#c5073d" /><path
         d="m 373.7,62.3 c 0,4.4 -2.2,8.7 -7.6,8.7 -5.3,0 -7.6,-4.5 -7.6,-8.7 0,-4.2 2.3,-8.6 7.6,-8.6 5.3,0 7.6,4.5 7.6,8.6 m 8.8,0 c 0,-10.6 -6.3,-16.4 -15.3,-16.4 -3.6,0 -6.7,1.5 -9.2,3.7 l -1.1,-3.2 -7,0 0,38.6 9,0 0,-9.3 c 2.4,1.9 5.1,3 8.3,3 9,0.1 15.3,-6.3 15.3,-16.4"
         id="path43"
         style="fill:#c5073d" /><path
         d="m 385.9,39.4 c -2.8,0 -4.4,2.1 -4.4,4.5 0,2.4 1.6,4.5 4.4,4.5 2.8,0 4.4,-2.1 4.4,-4.5 0,-2.4 -1.6,-4.5 -4.4,-4.5 m 0,8.4 c -2.4,0 -3.8,-1.7 -3.8,-3.9 0,-2.2 1.4,-3.9 3.8,-3.9 2.4,0 3.8,1.7 3.8,3.9 0,2.1 -1.4,3.9 -3.8,3.9"
         id="path45"
         style="fill:#c5073d" /><path
         d="m 386.8,44.2 c 0.8,-0.2 1.2,-0.7 1.2,-1.5 0,-0.5 -0.2,-0.8 -0.5,-1.1 -0.3,-0.3 -0.9,-0.4 -1.6,-0.4 l 0,0 -1.8,0 0,5.2 0.7,0 0,-2.1 1.2,0 c 0,0 0,0 0.1,0 l 1.2,2.1 0.8,0 -1.3,-2.2 z m -2,-2.4 1.1,0 c 1,0 1.4,0.3 1.4,0.9 0,0.8 -1,0.9 -1.4,0.9 l -1.1,0 0,-1.8 z"
         id="path47"
         style="fill:#c5073d" /></g></g></svg>