<?xml version="1.0" encoding="UTF-8" standalone="no"?>
<svg
   xmlns:dc="http://purl.org/dc/elements/1.1/"
   xmlns:cc="http://creativecommons.org/ns#"
   xmlns:rdf="http://www.w3.org/1999/02/22-rdf-syntax-ns#"
   xmlns:svg="http://www.w3.org/2000/svg"
   xmlns="http://www.w3.org/2000/svg"
   id="svg2969"
   viewBox="-1.565625 -1.565625 108.09261 52.187501"
   height="480.18869"
   width="994.88196"
   version="1.0">
  <metadata
     id="metadata8">
    <rdf:RDF>
      <cc:Work
         rdf:about="">
        <dc:format>image/svg+xml</dc:format>
        <dc:type
           rdf:resource="http://purl.org/dc/dcmitype/StillImage" />
        <dc:title></dc:title>
      </cc:Work>
    </rdf:RDF>
  </metadata>
  <defs
     id="defs2971" />
  <path
     style="fill:#00adef;fill-opacity:1;fill-rule:nonzero;stroke:none"
     id="path2473"
     d="m 4.3864087,-1.565625 -5.9687,41.71875 6.3125,0 1.6562,-11.8125 0.0313,-0.3125 0.1875,-1.4375 0.0312,1.96875 0.0313,0.625 0.5313,10.96875 6.2812003,0 -1.7188,-15.28125 5.5626,-13.28125 -6,0 -3.7500003,10.15625 -0.1563,0.375 -0.4063,1.375 0.2188,-1.5 0.0625,-0.34375 3.2187003,-23.21875 -6.1250003,0 z m 35.2813003,13.09375 -8.6875,28.5625 6.0312,0 1.375,-5.5625 2.5313,0 -0.625,5.5625 5.9687,0 1.625,-28.5625 -8.2187,0 z m -20.4687,0.0625 -4.3126,28.5625 5.5,0 2,-13.09375 0.25,-1.84375 -0.0312,1.4375 0.0312,0.34375 0.5938,13.15625 6,0 4.3125,-28.5625 -5.125,0 -1.875,11.8125 -0.2813,1.8125 0.0313,-1.4375 -0.0313,-0.34375 -0.4062,-11.84375 -6.6562,0 z m 39.375,0 -6.2813,0.03125 c -1.3762,8.57875 -2.0412,14.04376 -3.375,21.25 -0.0338,0.20375 -0.08,0.41876 -0.125,0.6875 -0.09,0.55375 -0.1175,0.59751 -0.2187,1.40625 -0.0888,0.71875 -0.1201,1.25625 0,1.96875 0.1149,0.685 0.205,1.07626 0.5624,1.65625 0.3088,0.49125 0.5638,0.74875 1.0313,1.09375 0.4838,0.3575 0.83,0.49251 1.4063,0.71875 0.585,0.23 1.5999,0.35 2.5,0.40625 1.1925,0.07625 2.4,0.02876 3.4687,-0.125 1.1813,-0.16875 2.1275,-0.47875 2.8437,-0.96875 0.7638,-0.52 1.4325,-1.12499 1.8126,-1.9375 0.2775,-0.59 0.5037,-1.28875 0.6562,-2.21875 0.3212,-1.965 0.0025,0.0087 0.3125,-1.96875 l 3.4687,-21.96875 -6.1874,0 -3.5938,22.53125 c 0,0 -0.0337,0.425 -0.0938,0.6875 -0.0662,0.30125 -0.0575,0.51501 -0.2187,0.78125 -0.0975,0.155 -0.1588,0.24126 -0.3125,0.34375 -0.1737,0.11375 -0.2925,0.15625 -0.5,0.15625 -0.2337,0.0025 -0.3925,-0.09375 -0.5625,-0.25 -0.1825,-0.16875 -0.235,-0.31875 -0.2813,-0.5625 -0.0449,-0.22125 0,-0.5625 0,-0.5625 l 0.125,-0.65625 3.5626,-22.5 z m 10.5624,0 -5.9687,39.03125 6.375,0 3.8437,-24.0625 3.5626,0 0.7187,-4.75 -3.6563,0 0.8126,-5.6875 3.75,0 0.625,-4.53125 -10.0626,0 z m -25.9062,3.21875 -0.3125,2.1875 -0.0937,0.5625 -1.3438,12.1875 -1.9062,0 3.0312,-12.28125 0.125,-0.53125 0.5,-2.125 z" />
  <path
     style="fill:#858b8f;fill-opacity:1;fill-rule:nonzero;stroke:none"
     id="path2501"
     d="m 92.167709,27.746875 c -0.8625,0 -1.6763,0.80001 -1.8125,1.75 -0.1425,0.9825 0.4663,1.75001 1.3437,1.75 0.8926,0 1.7038,-0.81374 1.8438,-1.78125 0.1388,-0.9825 -0.4975,-1.71875 -1.375,-1.71875 z m -6,0.625 c -3.0775,0 -4.525,3.16001 -4.9375,6.03125 -0.4213,2.93125 0.155,5.9375 3.25,5.9375 3.285,0 4.3087,-3.55124 4.7187,-6.40625 l 0.0313,-0.5 -3.9375,0 -0.3437,2.4375 1.0312,0 c -0.0825,0.67625 -0.465,1.65625 -1.2188,1.65625 -1.0987,0 -0.7337,-2.01625 -0.6562,-2.84375 0.125,-0.87375 0.3762,-3.53124 1.6875,-3.53125 0.5,0 0.695,0.7275 0.6563,1.1875 l 2.9062,-1.125 c -0.3737,-1.67125 -1.49,-2.84375 -3.1875,-2.84375 z m 11.9062,3.5 c -0.6721,0.1136 -1.195,0.62672 -1.5625,1.3125 l -0.0312,-0.03125 0.25,-1.125 -2.75,0 -1.6875,11.71875 2.75,0 0.4375,-3.1875 c 0.0713,-0.5075 0.1125,-0.99374 0.1563,-1.5 l 0.0312,-0.03125 c 0.28,0.74875 0.725,1.28125 1.5625,1.28125 1.8787,0 2.675,-2.6225 2.906301,-4.21875 0.2324,-1.625 0.0862,-4.21874 -1.781301,-4.21875 -0.1027,0 -0.1852,-0.01622 -0.2813,0 z m 6.312501,0 c -1.7112,0 -3.1025,1.0475 -3.3437,2.71875 -0.1988,1.38125 0.58,1.99375 1.5938,2.40625 0.4462,0.185 0.6325,0.36625 0.5937,0.65625 -0.0437,0.29125 -0.3575,0.40625 -0.5937,0.40625 -0.5026,0 -0.9538,-0.46 -1.2188,-0.84375 l -1.3438,2.25 c 0.7876,0.52375 1.5275,0.84375 2.5313,0.84375 1.5187,0 3.08,-1.0175 3.3437,-2.84375 0.1888,-1.32 -0.5087,-1.89874 -1.4375,-2.3125 -0.2749,-0.12125 -0.7787,-0.335 -0.7187,-0.75 0.0375,-0.26 0.275,-0.40625 0.4688,-0.40625 0.4612,0 0.7574,0.395 1.0312,0.71875 l 1.25,-2.1875 c -0.5825,-0.39625 -1.4175,-0.65625 -2.1563,-0.65625 z m -14.187501,0.15625 -1.1562,8.09375 2.7188,0 1.1562,-8.09375 -2.7188,0 z m 6.7188,2.3125 c 0.5438,0 0.52,1.0125 0.4375,1.59375 -0.0837,0.58375 -0.3237,1.84375 -0.9375,1.84375 -0.5275,0 -0.455,-1.01249 -0.3438,-1.78125 0.0976,-0.69 0.3163,-1.65625 0.8438,-1.65625 z" />
</svg>
