<?xml version="1.0" encoding="UTF-8" standalone="no"?>
<svg
   xmlns:dc="http://purl.org/dc/elements/1.1/"
   xmlns:cc="http://creativecommons.org/ns#"
   xmlns:rdf="http://www.w3.org/1999/02/22-rdf-syntax-ns#"
   xmlns:svg="http://www.w3.org/2000/svg"
   xmlns="http://www.w3.org/2000/svg"
   xml:space="preserve"
   id="svg2"
   height="226.69524"
   width="958.45612"
   version="1.0"><metadata
     id="metadata8"><rdf:RDF><cc:Work
         rdf:about=""><dc:format>image/svg+xml</dc:format><dc:type
           rdf:resource="http://purl.org/dc/dcmitype/StillImage" /><dc:title></dc:title></cc:Work></rdf:RDF></metadata><defs
     id="defs5" /><path
     style="fill:#ab208e;fill-opacity:1;fill-rule:nonzero;stroke:none"
     id="path15"
     d="m 554.02417,0 -60.67404,113.45552 c -2.22102,3.66881 -5.88737,6.46078 -10.32816,6.53603 l -10.26649,0 0,9.74237 46.95456,0 0,-9.74237 -10.08151,0 c -2.44916,0 -4.03753,0.5303 -6.19689,-1.26405 -0.76461,-0.9915 -0.67213,-2.52069 -0.21582,-3.6688 l 14.36693,-27.346482 54.35382,0.308303 14.36693,29.381279 0.73992,1.63401 c 0.52412,1.28994 -0.82133,0.88049 -0.89408,0.95574 l -13.68865,0 0,9.74237 98.96528,0 0,-9.74237 -11.74635,0 c -2.04097,0 -3.35432,0.15287 -4.87119,-0.80159 -2.67854,-1.7561 -3.1311,-3.77241 -3.20635,-6.75184 0,0 -0.0111,-88.220299 0.0617,-88.14384 l 87.31143,85.09164 -0.0617,0.15415 14.45941,14.21277 5.36447,5.05617 c 2.67854,2.0607 5.3472,5.18318 9.09494,3.73047 1.75855,-0.53398 2.18896,-2.58849 2.34311,-4.19292 l 0.18498,-101.000079 0.0308,-4.593716 c 0.15292,-1.680858 -0.16154,-2.362825 0.98657,-5.271982 0.57343,-1.192516 2.91776,-2.698278 5.21032,-2.620576 l 11.09891,0 0,-9.002449 -46.4921,0 0,9.002449 13.31869,0 1.51069,0.09249 c 4.92422,1.145654 4.24104,6.444787 4.62454,10.11234 l 0,66.470138 -0.24664,0.462455 C 760.02239,91.921162 672.25836,5.857758 672.25839,5.857758 l -49.236,0 0,9.002449 18.15905,0 0.0925,97.732063 c -0.15168,1.60441 -0.17267,3.23224 -0.86325,4.53206 -0.99397,2.13715 -2.85487,2.86719 -5.14866,2.86722 l -13.34952,0 c -4.89338,-0.30337 -7.75197,-4.70716 -9.74238,-8.44751 C 612.09366,111.31343 554.02418,9.9e-6 554.02417,0 Z M 36.814962,0.8324183 c -0.61044,0 -1.0544,0.2971844 -1.510685,0.5241152 -1.372565,1.1431877 -3.455457,1.0765843 -5.210321,0.7707576 l -4.254583,0 c -2.137156,0.151695 -4.427228,0.2281344 -6.412703,0.9865698 -1.525474,0.5352141 -3.036169,0.971781 -4.100431,2.3431031 -0.229387,1.1382648 -0.379819,2.5218993 0.154152,3.3605031 0.990269,-0.229387 2.198807,-0.547546 3.113861,-0.09249 0.456288,0.304594 0.907654,0.778157 0.832418,1.3873639 0,0.226921 -0.219512,0.462445 -0.524115,0.462455 -1.60071,0 -2.991773,0.524105 -4.593716,0.524115 C 12.783346,11.023694 12.27033,9.3391061 11.811585,8.2008612 11.58344,7.8950147 11.342974,7.2192144 10.886675,7.5225945 c 0.37984,1.5217736 0.07399,3.3456845 1.294873,4.5628855 2.209916,1.675925 4.493825,-0.524125 6.782667,-0.369964 0.37983,0.150462 0.707854,0.439023 0.554946,0.894079 -0.609207,1.21717 -2.291318,0.854616 -3.206352,1.233212 -0.07524,0.686899 -0.08387,1.440412 0.524115,1.818988 1.372556,0.154151 3.218684,-0.06659 4.285413,0.924909 0.15169,0.151685 0.06166,0.511793 0.06166,0.739927 -0.533971,0.989027 -1.842429,0.832419 -2.528085,0.832419 l -5.333643,-0.431625 c -1.830086,-0.151685 -3.28282,-1.014933 -4.6553763,-2.003969 -1.906556,-0.987813 -4.628245,-0.912568 -6.3818729,0.154151 -1.37133191,0.911344 -1.99041431,2.223501 -2.21978191,3.668806 0.1529084,0.226921 0.2343103,0.524106 0.4624546,0.524116 l 6.47436421,0.246642 0.98657,0.431624 4.9020183,3.514655 4.408734,3.422164 c 1.449024,1.143188 3.049744,2.068097 4.347073,3.514655 0.304603,0.91381 -0.854626,1.288697 -1.387364,1.973139 l -3.946279,3.206352 c -0.838594,0.532738 -1.846119,1.123476 -2.99054,0.894079 -1.603175,-0.838575 -3.3358293,-1.810356 -5.3953033,-1.202382 -1.677159,0.378596 -3.288967,1.657437 -3.977109,3.329673 -0.229378,0.229377 -0.06536,0.759659 -0.369964,0.98657 0.151685,0.456278 -0.3157024,1.22088 0.369964,1.449024 l 7.7692373,0.09249 9.927358,-0.09249 c 0.990269,-0.763358 2.123591,-1.281327 3.268012,-1.510685 l 4.871188,-0.678267 6.566855,-1.07906 c 1.906547,-0.532738 4.038767,-1.069185 5.333643,-2.743897 1.296106,-0.913811 2.745128,-0.06657 4.347073,-0.524116 l 5.641946,-0.924909 4.03877,-1.449024 4.131261,-1.726497 c 2.896816,-1.368866 5.476694,-3.292667 8.601655,-4.131261 0.763359,0.07769 1.85352,-0.587019 2.158122,0.400794 -0.838585,2.282686 -0.863249,4.77995 -0.863249,7.368443 0,0.684442 0.0099,1.437925 -0.524115,1.818988 -1.675936,0 -3.578783,0.176349 -5.179491,0.709097 -1.524251,0.532738 -2.747596,2.053288 -3.052201,3.576315 -0.152918,0.226921 0.0037,0.663468 0.308303,0.739928 l 13.873638,0.09249 c 0.760892,-0.07523 0.989037,-0.854616 1.140721,-1.387363 l 1.849818,-4.470395 c 0.839818,-1.521783 1.828855,-3.05588 2.898049,-4.501224 0.91381,-0.532748 1.368868,-1.984239 2.589746,-1.603176 l 2.898048,2.065631 3.884619,2.0348 3.268017,1.541515 c 0.91504,0.304603 1.90284,0.456279 2.74389,0.98657 0.0765,0.229377 -0.0617,0.309526 -0.21581,0.462454 -0.99027,0.305837 -2.07673,0.299681 -2.990539,0.832418 -1.296106,0.760892 -2.191419,2.053279 -2.343104,3.422164 0,0.762126 0.911344,0.295971 1.294873,0.678267 l 10.8831,-0.06166 c 1.21965,-0.07523 2.53795,0.312013 3.453,-0.524115 0.53398,-1.294873 0.44642,-2.841321 0.36996,-4.285412 -0.15292,-1.521784 -0.0888,-3.099062 -1.07906,-4.316243 -1.98177,-1.673469 -5.33118,-1.164152 -6.47437,-4.131261 l -2.65141,-7.522594 c -0.76089,-1.29363 -1.16785,-2.743878 -2.00397,-4.03877 -0.53521,-1.445315 1.08523,-1.678412 1.69567,-2.898049 1.75116,-2.357912 1.35654,-5.9354699 -0.0925,-8.4475034 C 93.388572,1.3491342 88.144953,1.5180843 83.492044,2.1272911 L 78.682517,3.329673 71.745698,5.7652671 65.332994,7.8925582 60.153503,9.3415821 c -1.447791,0.303361 -2.899279,0.542614 -4.347073,0.7707579 -3.279111,0.378606 -7.168661,0.286115 -8.694146,-2.8363879 -0.533981,-1.6747022 0.520419,-3.0189035 1.664836,-4.1620912 0.151686,-0.073993 0.229382,-0.3860053 0,-0.4624546 -1.907779,-0.1516851 -3.650309,0.9754708 -4.717036,2.4972547 -0.992736,1.2924064 -0.701697,3.4221641 0.06166,4.7170371 2.440527,3.6515409 7.180993,3.9832649 11.222231,3.4529939 l 4.717037,-0.616606 5.210322,-1.294873 c 1.983005,-0.609197 3.952446,-1.211015 5.857758,-1.9731399 l 4.347073,-1.6031755 4.717036,-1.6031759 c 3.815559,-0.9890461 9.684416,-2.5885322 12.732917,1.1407213 0.685662,1.1419451 1.010002,2.882027 0.400793,4.10043 -0.381062,1.065486 -1.675935,1.83871 -2.743897,2.065631 -12.054649,-1.844886 -19.870746,1.349134 -31.261929,3.730467 -4.237317,0.926142 -12.115079,0.5796 -16.247571,-0.678267 C 41.322353,16.0552 40.185329,14.053696 39.65135,12.455443 L 38.356477,8.3550127 C 37.897722,6.8319858 37.49693,5.316368 36.660811,3.9462791 35.668075,3.0337021 36.58805,1.8189782 36.814962,0.8324183 Z M 24.821973,4.1929215 c 1.004799,-0.045787 2.052376,0.4032604 2.682237,1.2023819 0.07523,0.9890362 -1.130854,1.2997958 -1.818988,1.6031759 -0.533981,0.076459 -1.298575,0.1331968 -1.757328,-0.2466424 -0.532747,-0.685666 -0.442725,-1.6586803 -0.06166,-2.3431032 0.304911,-0.1325654 0.620807,-0.2005499 0.955739,-0.2158122 z m 119.744907,1.6648365 0,9.002449 17.41913,-0.03083 0,105.193003 -18.06656,-0.0308 0,9.74237 125.60266,0 0.0617,-45.320544 -8.20086,0 c 0.22938,9.167709 -2.45164,17.633694 -8.87913,24.355934 -15.90845,17.53383 -42.89235,9.31818 -62.83216,11.40722 l -0.0308,-105.193002 20.28634,0 0,-9.12577 -65.36025,0 z m 649.07042,0 0,9.002449 15.81594,0 0.12333,105.131343 -18.25154,0 -0.0308,9.74237 64.65115,0 0,-9.74237 -19.17644,0 0,-32.09435 21.55038,-17.604104 48.00278,49.266824 c 0.0765,0.0752 -10e-4,0.31076 -0.15415,0.46246 l -16.74085,-0.0308 0.0617,9.74237 68.81324,0 0,-9.74237 -10.14317,0 c -3.74526,-0.53274 -6.94299,-2.58356 -9.77321,-5.4878 L 879.59219,53.798883 922.07635,19.268941 c 3.44436,-2.673604 5.39158,-4.10414 9.68072,-4.408734 l 13.01038,0 0,-9.002449 -58.88588,0 0,9.002449 20.28634,0 c 1.52796,0.636347 1.12099,1.654981 1.20238,2.343103 -0.15415,0.763359 -0.74363,1.299816 -1.20238,1.911479 l -69.39901,55.617871 0,-59.872453 20.13218,0 0,-9.002449 -63.26378,0 z m -458.93993,0.03083 0,8.971619 19.05313,0 -0.0617,105.162173 -18.99147,0 0,9.71154 84.04342,0.0308 14.08945,0 c 0.22936,0.0789 0.30831,-0.30336 0.46245,0 14.21154,-0.46491 23.68631,-0.93234 34.80742,-10.38981 5.12647,-4.50863 8.41298,-10.15306 10.01984,-16.34006 l 0.92491,-4.501228 c 0.84475,-6.339931 -0.90147,-12.145914 -4.03877,-17.110816 l -2.92888,-3.607146 -3.51465,-3.360503 c -2.98067,-2.216082 -6.05014,-4.328575 -9.34158,-5.703606 l -4.34708,-1.479855 -2.15812,-0.524115 c -0.22937,-0.151685 -0.67827,-0.0049 -0.67826,-0.462455 0.46245,-0.383519 1.08398,-0.388452 1.69566,-0.616606 l 4.19292,-1.911479 4.06961,-2.497255 c 8.87541,-6.951617 13.21509,-17.428978 11.06807,-28.733844 l -0.40079,-2.00397 -0.73993,-2.343103 -0.89408,-2.219782 -0.9249,-1.757327 c -0.35765,-0.594399 -0.7572,-1.223357 -1.29488,-1.97314 -0.15537,-0.420525 -0.92493,-1.372545 -1.3257,-1.911479 -0.44642,-0.591942 -0.88792,-1.006301 -1.20238,-1.418194 -0.37984,-0.489575 -0.61662,-0.801598 -0.61661,-0.801588 -2.75376,-2.88696 -6.04769,-5.22882 -9.64988,-6.936819 0,0 -0.96192,-0.421778 -1.57235,-0.678266 -0.53768,-0.223212 -1.88065,-0.6474269 -1.88065,-0.6474369 l -0.95574,-0.308303 -1.20238,-0.369963 -1.29487,-0.339134 -1.51069,-0.339133 c 0,0 -0.69062,-0.1738834 -1.634,-0.3391338 -0.59195,-0.1023665 -1.28502,-0.2503421 -1.66484,-0.3391334 l -4.59372,-0.709097 -5.087,-0.4624546 -5.64194,-0.4316242 -11.65386,-0.3083031 -82.62522,0 z m 45.50554,9.09494 39.55528,0 3.20635,0.03083 c 6.35845,0.478496 14.44585,4.538211 19.11479,11.098909 l 2.15812,3.452995 c 2.98683,5.365716 3.80692,13.712086 1.04823,19.515583 -1.68087,4.430921 -5.62222,9.180022 -11.74635,11.900498 l -2.3431,0.801588 c -2.13962,0.53398 -4.02768,0.894078 -6.65935,0.894078 l -44.33397,0 0,-47.694482 z M 545.515,34.684093 c 0.0492,-0.006 0.0965,-0.0188 0.15415,0 l 1.54152,2.99054 10.42064,21.149589 c 0.0789,0.154152 0.23184,0.54139 0.3083,0.770758 l 9.15661,18.713995 c 0.22815,0.381073 -0.29723,0.540147 -0.67827,0.462455 l -43.62488,-0.154152 c -0.38108,0 -0.22938,-0.524115 -0.15415,-0.678267 l 15.47681,-29.504602 c 0.0789,-0.381072 0.29102,-0.680723 0.52411,-0.986569 l 6.5052,-12.517104 c 0.11283,-0.114679 0.22226,-0.228549 0.36996,-0.246643 z M 36.59915,44.272318 c -1.222113,0.381063 -2.232114,1.375032 -3.452994,1.603176 l -5.703607,-0.369964 -4.347073,0.215813 c -2.671137,0.30337 -5.189357,1.083983 -7.399273,2.682236 -0.992736,0.990269 -0.751026,2.819113 -0.369964,4.03877 1.219647,0.30337 2.568781,-0.620296 3.637976,0.369964 0.226911,0.304603 0.537681,0.526591 0.462455,0.98657 -0.151685,0.149218 -0.235544,0.294737 -0.462455,0.369963 -1.45149,-0.07523 -2.74513,0.403251 -4.192921,0.554946 -1.067962,0.151685 -1.810356,-0.704165 -2.343103,-1.541516 -0.228145,-0.684432 -0.469854,-1.580988 -1.079061,-2.188951 -0.229378,-0.151685 -0.693065,-0.146762 -0.616606,0.308303 0.457522,1.446558 0.167717,3.173055 1.233212,4.316243 0.916277,1.064262 2.51082,0.829951 3.730467,0.678266 1.219647,-0.229377 2.509587,-1.346677 3.730467,-0.431624 0.152918,0.456288 -0.141819,0.818853 -0.524115,1.04823 -0.686899,0.456289 -1.901614,0.312013 -2.589746,0.616606 -0.30337,0.533981 -0.01356,1.301029 0.215812,1.757328 1.372565,0.686899 3.295143,-0.09619 4.439564,0.894079 0.229378,0.226911 0.292272,0.605497 0.215812,0.986569 -0.229377,0.684433 -0.974237,0.619073 -1.510685,0.770758 l -6.196891,-0.524115 c -1.983005,-0.07646 -3.5627503,-1.366409 -5.2411523,-2.281443 -2.056998,-0.989036 -4.8144604,-0.552479 -6.566855,0.739928 -1.14442091,0.91381 -1.43545891,2.143332 -1.66483641,3.514654 0,0.226911 0.2959709,0.384772 0.5241152,0.462455 l 5.70360621,0.215812 c 1.675936,-0.07646 2.681004,1.379974 3.9771103,2.065631 l 8.755806,6.628515 2.682237,2.281443 c 0.304603,0.684433 -0.466154,1.207324 -0.924909,1.664836 l -4.03877,3.360504 -1.510685,0.894078 c -1.678402,1.065496 -3.068232,-0.669644 -4.593716,-1.04823 -1.5994763,-0.229377 -3.4332633,-0.16895 -4.6553763,0.894079 -1.599476,1.065495 -2.267877,2.677313 -2.343103,4.501224 0.07523,0.231844 0.235543,0.386006 0.462455,0.462455 l 16.4633833,0.154152 1.233212,-0.09249 c 1.751161,-1.446558 4.015342,-1.574822 6.227721,-1.880649 l 7.245122,-1.079061 c 2.362835,-0.457521 4.874889,-0.906421 6.628516,-2.959709 0.992736,-0.838584 2.75746,-0.249109 3.977109,-0.554945 l 5.02534,-0.678267 c 3.432029,-0.99027 6.956549,-2.195108 10.08151,-3.946279 l 5.641946,-2.95971 c 1.22088,-0.459988 2.435593,-0.770747 3.730466,-0.770757 0.228145,0 0.462456,0.2343 0.462455,0.462454 -0.531514,1.673469 -0.771993,3.4937 -0.924909,5.395304 -0.154152,1.21718 0.451356,3.032469 -0.616606,3.792127 -1.753628,0 -3.407367,0.159085 -4.932849,0.616606 -1.526717,0.456289 -2.766097,2.066854 -3.298843,3.514655 0,0.378596 -0.07276,0.832428 0.308303,0.98657 l 12.948729,0.06166 1.387363,-0.154152 c 0.765825,-0.383529 0.77569,-1.273918 1.079061,-2.0348 l 1.97314,-4.408734 c 0.990269,-1.901613 2.286374,-3.751431 4.038769,-5.271982 0.229378,-0.229377 0.54138,-0.13813 0.92491,-0.06166 3.810625,2.741431 8.003547,4.874878 12.424614,6.320213 0.15292,0.07523 0.59934,0.204713 0.52411,0.431624 -1.14442,0.533981 -2.43436,0.61044 -3.42216,1.294873 -1.296106,0.838584 -2.068097,2.06934 -2.219782,3.514655 0.229377,0.230611 0.389695,0.369964 0.616606,0.369964 l 13.102886,0 1.44902,-0.154152 c 0.38106,-0.07769 0.55741,-0.515492 0.7091,-0.894079 0.22938,-2.590979 0.37366,-5.794854 -0.77076,-8.07754 -1.98054,-1.674702 -5.11536,-1.206091 -6.4127,-3.792127 l -3.05221,-8.293352 -0.67826,-1.695667 c -0.45876,-0.916277 -1.15799,-1.740053 -1.23322,-2.805558 1.44656,-1.521784 2.68717,-2.830222 2.99054,-4.809528 0.45753,-3.502322 -1.29857,-6.834452 -4.50122,-8.509164 -5.111665,-2.13099 -10.981753,-0.768281 -15.939268,0.832418 l -5.333643,1.97314 -6.628515,2.219782 -4.593716,1.294873 -4.655376,0.832418 c -3.202652,0.381063 -7.139068,0.373663 -8.663316,-2.898049 -0.382295,-1.674702 0.600571,-2.957252 1.818988,-4.10043 0.154152,-0.151685 0.07276,-0.448899 -0.154151,-0.524115 -1.907779,-0.229378 -3.89695,0.901488 -4.963679,2.651406 -0.915044,1.21718 -0.611673,3.284034 0,4.501224 1.981772,3.654008 6.191958,4.036294 9.927358,3.884619 8.977785,-0.166484 17.335264,-4.295278 25.774135,-7.02931 1.675936,-0.60674 3.503557,-0.91381 5.333643,-1.294873 2.973275,-0.228144 6.322679,-0.150451 8.07754,2.589746 0.68443,1.066729 0.74609,2.741431 0.06166,3.884619 -0.458755,0.912577 -1.365166,1.682111 -2.435595,1.757327 -9.02588,-1.407095 -17.523945,0.196071 -26.236589,2.651406 -4.802129,1.292407 -9.969292,1.979306 -15.384323,1.449024 l -4.347072,-0.678267 c -1.525483,-0.381063 -3.198956,-0.899022 -4.03877,-2.497255 -1.983005,-3.576315 -2.135927,-8.07753 -4.347073,-11.653855 -0.07769,-0.838585 0.599343,-1.518075 0.524116,-2.281443 l -0.369964,-0.09249 z m -11.530534,3.822958 c 0.82406,-0.02139 1.707999,0.272846 2.373933,0.462455 0.381063,0.151685 0.366264,0.589475 0.215812,0.894078 -0.839817,1.065496 -2.03603,1.693191 -3.483824,1.541516 -0.686899,-0.535214 -0.614142,-1.59702 -0.462455,-2.435594 0.400486,-0.313542 0.862098,-0.44962 1.356534,-0.462455 z m 250.403744,14.243601 0,9.742376 47.29369,0 0,-9.742376 -47.29369,0 z m 104.73055,9.742376 50.31505,0 c 5.70485,0.765815 12.91667,2.216073 15.87761,6.751837 0,0 4.36432,3.173026 5.33364,15.230171 l -0.0617,4.347073 c -0.68567,6.647016 -2.91162,12.862416 -8.72497,17.141646 -3.21498,2.369 -6.88626,3.71811 -10.79061,4.40874 l -7.36844,0.18498 -44.58062,0 0,-48.064447 z M 36.59915,88.205503 c -1.222113,0.458755 -2.281439,1.451481 -3.730467,1.603176 l -5.05617,-0.400794 c -3.12496,0.07646 -6.378177,0.242953 -9.12577,1.233212 -1.447792,0.759659 -3.990675,1.203615 -3.761298,3.483825 0,0.838584 0.02097,1.749957 0.554946,2.435594 1.219647,-0.151685 2.738964,-0.834885 3.730467,0.308303 0.229377,0.381062 0.302137,0.929852 -0.154152,1.233212 -1.601942,0 -3.115094,0.385981 -4.717036,0.462451 -1.981772,-0.229374 -1.846119,-2.435571 -2.99054,-3.730463 -0.229378,0 -0.463688,-0.24173 -0.616606,0.06166 0.304603,1.90408 0.159084,3.961083 1.911479,5.179491 2.211149,1.06549 4.123861,-0.525328 6.258552,-0.678268 0.382296,0.0777 0.751026,0.43656 0.524115,0.894078 -0.685666,0.91381 -1.736363,0.84843 -2.805558,0.92491 -0.760892,0.0765 -0.325568,1.14687 -0.400794,1.60318 0.304604,0.15168 0.402027,0.60305 0.709097,0.67826 1.449025,0.15169 3.034935,-0.22075 4.100431,0.77076 0.229377,0.30584 0.167717,0.74242 -0.06166,1.04823 -0.456288,0.45752 -0.931075,0.53642 -1.541515,0.46246 l -5.241152,-0.46246 c -1.222113,0 -2.370234,-0.20842 -3.360503,-0.73993 -2.0594653,-1.60071 -4.6529103,-2.82284 -7.3992739,-1.75732 -1.4490243,0.45505 -2.82528911,1.76225 -3.20635171,3.20635 -0.075226,0.53275 -0.5339809,1.3479 0.1541515,1.72649 l 5.48779481,0.24665 c 1.601942,-0.22815 2.662505,0.99767 3.884618,1.75732 l 6.9368193,5.24116 4.809527,3.79212 0.246643,0.61661 c -0.07646,0.75966 -1.082761,1.05316 -1.387364,1.51068 l -4.347073,3.51466 c -1.906546,1.97684 -3.968477,-0.4489 -5.950249,-0.67827 -2.4392943,-0.45752 -4.5764503,0.76338 -5.7960973,2.7439 -0.381063,0.91258 -1.2233469,2.26174 -0.308303,3.17552 l 3.422163,0.0925 14.2744323,0 c 1.82762,-1.44656 4.189222,-1.60566 6.474364,-1.91148 l 7.245122,-1.04823 c 2.287608,-0.38353 4.518486,-0.85708 6.196891,-2.68223 0.915044,-1.21965 2.742665,-0.45015 4.03877,-0.67827 8.736075,-0.37613 14.581501,-4.82682 22.166989,-8.07754 0.992736,-0.15169 2.229649,-0.91137 2.99054,0 -0.760892,2.13346 -0.91011,4.57766 -0.98657,6.93682 -0.07769,0.75966 0.302138,1.88808 -0.462454,2.3431 -1.828854,0.15292 -3.732935,0.007 -5.333643,0.77076 -1.680868,0.6832 -2.990542,2.28636 -2.99054,4.03877 0,0.22814 0.325569,0.21825 0.554946,0.36996 l 10.204831,0.0925 3.977109,-0.15415 0.369964,-0.36996 c 1.294873,-3.57878 2.678536,-6.77651 5.117831,-9.89653 0.838584,-0.53275 1.352834,-1.99657 2.497254,-1.54151 3.963544,2.96957 8.160166,4.95135 12.732913,6.47436 0.22815,0.15292 0.09,0.44522 -0.0617,0.52411 -1.14442,0.22692 -2.29254,0.37863 -3.206349,0.98657 -0.535214,0.22815 -0.928609,0.91135 -1.387364,0.98657 -0.226911,0.75966 -0.832418,1.55264 -0.832418,2.46643 0.151685,0.15168 0.233076,0.43159 0.462455,0.43162 l 13.411186,0.0925 c 0.76336,0 1.52795,0.0839 1.91148,-0.67826 0.76089,-2.3579 0.37736,-5.19308 -0.15415,-7.55343 -0.83982,-2.13099 -3.34818,-2.04591 -5.02534,-2.95971 -2.3616,-1.2924 -2.43066,-3.97217 -3.42217,-6.1044 0,-0.22691 -0.38106,-0.1406 -0.15415,-0.36996 l -1.84982,-4.71704 c -0.3046,-1.21964 -1.50699,-2.2839 -1.20238,-3.73046 0.83981,-0.6869 1.76102,-1.5995 2.21978,-2.58975 1.21965,-2.434358 0.661,-5.854047 -0.86325,-7.985047 -3.049732,-4.338441 -9.129467,-4.027681 -13.781145,-3.113861 -8.954353,2.219782 -17.171244,6.850523 -26.390741,7.738407 -3.0485,0.455055 -6.405302,0.324354 -8.385843,-2.034801 -0.688132,-0.91381 -0.456286,-2.201264 0,-3.11386 0.302137,-0.834885 1.44902,-1.308429 1.603176,-2.219782 -0.228144,-0.457522 -0.776924,-0.234301 -1.233212,-0.308303 -1.753628,0.455055 -3.720603,1.689491 -4.408734,3.514654 -0.532748,1.368866 -0.07029,2.82161 0.462455,4.03877 1.906546,3.195253 5.539589,3.869803 9.12577,3.792123 9.36378,-0.27254 17.949403,-4.107815 26.637384,-7.152626 3.737866,-0.989036 8.761972,-2.431875 12.270461,0.154152 1.294869,1.065495 1.981769,2.720495 1.449019,4.470396 -0.45505,1.065488 -1.461351,2.298688 -2.682231,2.373928 -11.403513,-1.701828 -19.53655,0.97425 -30.429511,3.57632 -3.583715,0.6092 -7.394338,0.82872 -11.12974,0.52411 l -4.408734,-0.58577 c -2.516986,-0.22938 -4.567817,-2.29377 -5.179491,-4.65538 -0.991503,-3.27171 -1.772129,-6.621104 -3.298843,-9.588223 -0.07646,-0.838584 0.541377,-1.535349 0.616606,-2.373933 l -0.524115,-0.06166 z m -11.438043,3.792128 c 0.845509,0.0093 1.720331,0.283638 2.435594,0.616606 0.304603,0.229377 0.22691,0.620296 0,0.924909 -0.992736,0.836118 -2.278975,1.597029 -3.576316,1.140721 -0.53398,-0.611673 -0.45999,-1.691967 -0.308303,-2.373933 0.458293,-0.227987 0.94172,-0.313887 1.449025,-0.308303 z" /><path
     style="fill:#231f20;fill-opacity:1;fill-rule:nonzero;stroke:none"
     id="path17"
     d="m 331.55268,168.85758 c -2.51575,-2e-5 -5.28554,0.79172 -7.33761,2.77473 -2.52437,2.45654 -3.51465,6.30171 -3.51465,10.54396 l 0,1.44903 -4.19293,0 0,4.13126 4.19293,0 0,25.92828 5.45696,0 0,-25.92828 7.24512,0 0,-4.13126 -7.27595,0 0,-1.63401 c 0,-4.6406 1.2295,-8.72498 5.85776,-8.72498 1.61056,-1e-5 2.67608,0.31324 3.51465,0.67827 l 0.7091,-4.19292 c -1.0507,-0.46859 -2.66621,-0.89408 -4.65538,-0.89408 z m -165.03462,0.67827 0,36.41059 c 0,2.67486 -0.0987,5.67277 -0.24664,7.7384 l 4.71703,0 0.27748,-4.93285 0.15415,0 c 2.27403,3.92285 5.73813,5.61112 10.08151,5.61112 6.72224,-2e-5 13.56533,-5.33734 13.56533,-16.12425 0.0296,-9.1048 -5.21649,-15.29183 -12.70208,-15.29183 -4.85886,0 -8.34392,2.10508 -10.26649,5.48779 l -0.12333,0 0,-18.89897 -5.45696,0 z m 105.25466,0 0,44.14899 5.45697,0 0,-11.31472 2.80555,-3.14469 10.35899,14.45941 6.65934,0 -13.25703,-17.69659 11.65386,-12.36295 -6.59769,0 -8.87913,10.35898 c -0.86325,1.03715 -1.88803,2.3653 -2.62057,3.42216 l -0.12332,0 0,-27.87059 -5.45697,0 z m 225.70867,0 0,17.97406 -0.12332,0 c -1.34665,-2.39613 -4.46793,-4.56288 -9.09494,-4.56288 -7.33267,0 -13.58138,6.10317 -13.53451,16.15508 1e-5,9.11589 5.64935,15.261 12.94873,15.261 4.92175,-2e-5 8.52643,-2.52808 10.20483,-5.88859 l 0.15415,0 0.27747,5.21032 4.87119,0 c -0.14553,-2.07548 -0.24664,-5.06356 -0.24664,-7.7384 l 0,-36.41059 -5.45696,0 z m 343.91205,0 0,36.41059 c 10e-6,2.67486 -0.0974,5.67277 -0.24664,7.7384 l 4.71704,0 0.27747,-4.93285 0.15415,0 c 2.27158,3.92285 5.73689,5.61112 10.08151,5.61112 6.72222,-2e-5 13.56533,-5.33734 13.56533,-16.12425 0.0247,-9.1048 -5.21771,-15.29183 -12.70208,-15.29183 -4.85763,0 -8.34392,2.10508 -10.26649,5.48779 l -0.12333,0 0,-18.89897 -5.45696,0 z m -823.600776,1.60317 c -8.1749743,-10e-6 -13.5961653,4.82185 -13.5961653,11.34555 0,5.86147 4.244716,9.47355 11.0989103,11.9005 5.661677,2.11495 7.923388,4.40627 7.923388,8.29335 2e-6,4.24227 -3.243348,7.1218 -8.786637,7.1218 -3.725534,-2e-5 -7.2870413,-1.1999 -9.7115463,-2.71306 l -1.4181938,4.53205 c 2.2407368,1.51441 6.6667548,2.71307 10.7289471,2.71307 9.945861,1e-5 14.706055,-5.65673 14.706055,-12.08548 -10e-7,-6.14262 -3.607141,-9.54383 -10.728946,-12.33212 -5.797321,-2.23459 -8.3550133,-4.15592 -8.3550133,-8.04671 0,-2.85614 2.1877193,-6.25855 7.9542193,-6.25855 3.779791,-1e-5 6.586586,1.17896 7.923388,1.97314 l 1.510685,-4.43957 c -1.828855,-1.03836 -4.984648,-2.00397 -9.249091,-2.00397 z m 401.749706,0.30831 c -3.75884,1e-5 -7.53,0.40572 -9.92735,0.9249 l 0,41.22012 c 1.82269,0.20593 4.66031,0.46246 8.41667,0.46246 6.87886,-2e-5 11.63411,-1.20609 14.52107,-3.91545 2.16677,-2.00277 3.57632,-4.77623 3.57632,-8.35501 1e-5,-6.26842 -4.66772,-9.55617 -8.66332,-10.51314 l 0,-0.18498 c 4.39762,-1.56124 7.09097,-5.10797 7.09097,-9.1566 -1e-5,-3.28281 -1.34421,-5.785 -3.51465,-7.4301 -2.607,-2.11865 -6.05754,-3.0522 -11.49971,-3.0522 z m 177.82921,0.33913 10.63645,41.89838 5.70361,0 5.95025,-21.79702 c 1.55877,-5.42117 2.54411,-9.51547 3.23718,-13.71949 l 0.12332,0 c 0.56483,4.23612 1.44778,8.32541 2.77473,13.71949 l 5.27198,21.79702 5.67277,0 11.9005,-41.89838 -5.54945,0 -5.54946,21.11876 c -1.30474,5.21523 -2.48984,9.90023 -3.32967,14.49024 l -0.12332,0 c -0.64991,-4.41368 -1.78569,-9.3465 -2.95971,-14.36692 l -5.11783,-21.24208 -5.61112,0 -5.64194,21.14959 c -1.41573,5.38793 -2.74019,10.39228 -3.42217,14.5519 l -0.15415,0 c -0.74978,-4.05604 -1.87201,-9.25156 -3.08303,-14.49024 l -4.99451,-21.21125 -5.73443,0 z m -250.4654,1.07906 c -1.75734,2e-5 -3.11387,1.40093 -3.11387,3.11386 1e-5,1.66235 1.25171,3.11386 3.02137,3.11386 l 0.0617,0 c 1.79555,2e-5 2.99054,-1.4515 2.99054,-3.11386 -1e-5,-1.74995 -1.26405,-3.11386 -2.95971,-3.11386 z m 11.37638,0 c -1.76103,2e-5 -3.08303,1.40093 -3.08303,3.11386 0,1.66235 1.22333,3.11386 2.99054,3.11386 l 0.0617,0 c 1.8264,2e-5 3.02137,-1.4515 3.02137,-3.11386 -1e-5,-1.74995 -1.27022,-3.11386 -2.99054,-3.11386 z m 302.3528,0 c -1.75854,2e-5 -3.11386,1.40093 -3.11386,3.11386 -10e-6,1.66235 1.25419,3.11386 3.02137,3.11386 l 0.0617,0 c 1.79556,2e-5 2.99054,-1.4515 2.99054,-3.11386 -10e-6,-1.74995 -1.26528,-3.11386 -2.95971,-3.11386 z m 11.37638,0 c -1.761,2e-5 -3.08303,1.40093 -3.08303,3.11386 0,1.66235 1.22087,3.11386 2.99054,3.11386 l 0.0617,0 c 1.82271,2e-5 3.02137,-1.4515 3.02137,-3.11386 -1e-5,-1.74995 -1.26896,-3.11386 -2.99054,-3.11386 z m -252.13023,2.7439 c 5.49026,3e-5 9.1566,1.98671 9.1566,6.84432 10e-6,4.06343 -3.35433,7.06014 -9.03328,7.06014 l -4.96368,0 0,-13.50367 c 0.88422,-0.20347 2.32214,-0.40079 4.84036,-0.40079 z m -377.270451,0.80158 -5.364473,1.63401 0,5.58029 -4.686206,0 0,4.13126 4.686206,0 0,16.43255 c -4e-6,3.53314 0.619073,6.17222 2.127291,7.8309 1.307204,1.48846 3.372836,2.31227 5.888589,2.31227 2.130987,-3e-5 3.836523,-0.32186 4.902018,-0.73993 l -0.246642,-4.16209 c -0.818856,0.24788 -1.715398,0.4008 -3.175522,0.4008 -3.063302,1e-5 -4.131261,-2.1125 -4.131261,-5.85776 l 0,-16.21674 7.861728,0 0,-4.13126 -7.861728,0 0,-7.2143 z m 84.845001,0 -5.36447,1.63401 0,5.58029 -4.68621,0 0,4.13126 4.68621,0 0,16.43255 c 0,3.53314 0.61784,6.17222 2.12729,7.8309 1.30474,1.48846 3.37037,2.31227 5.88859,2.31227 2.12976,-3e-5 3.83899,-0.32186 4.90202,-0.73993 l -0.24664,-4.16209 c -0.81886,0.24788 -1.71417,0.4008 -3.17553,0.4008 -3.06329,1e-5 -4.13126,-2.1125 -4.13126,-5.85776 l 0,-16.21674 7.86173,0 0,-4.13126 -7.86173,0 0,-7.2143 z m 591.72605,0 -5.36447,1.63401 0,5.58029 -4.65538,0 0,4.13126 4.65538,0 0,16.43255 c 10e-6,3.53314 0.62031,6.17222 2.12729,7.8309 1.30475,1.48846 3.4012,2.31227 5.91942,2.31227 2.12605,-3e-5 3.83899,-0.32186 4.90202,-0.73993 l -0.27748,-4.16209 c -0.81884,0.24788 -1.68704,0.4008 -3.14469,0.4008 -3.06576,1e-5 -4.16209,-2.1125 -4.16209,-5.85776 l 0,-16.21674 7.86173,0 0,-4.13126 -7.86173,0 0,-7.2143 z m 22.04367,0 -5.36447,1.63401 0,5.58029 -4.68621,0 0,4.13126 4.68621,0 0,16.43255 c 2e-5,3.53314 0.61413,6.17222 2.12729,7.8309 1.30228,1.48846 3.4012,2.31227 5.91942,2.31227 2.12729,-3e-5 3.80816,-0.32186 4.87118,-0.73993 l -0.24664,-4.16209 c -0.82132,0.24788 -1.71664,0.4008 -3.17552,0.4008 -3.06576,1e-5 -4.13126,-2.1125 -4.13126,-5.85776 l 0,-16.21674 7.86173,0 0,-4.13126 -7.86173,0 0,-7.2143 z m -673.426361,6.53603 c -3.801993,0 -7.463401,1.0137 -9.958189,2.62057 l 1.264043,3.63798 c 2.113724,-1.40712 5.025339,-2.25061 7.830897,-2.25061 6.168526,-0.0333 6.875158,4.52465 6.875158,6.96765 l 0,0.6166 c -11.637821,-0.0802 -18.128219,3.93888 -18.128219,11.22223 0,4.31501 3.133592,8.60166 9.218261,8.60166 4.313775,-2e-5 7.564524,-2.12236 9.218261,-4.47039 l 0.154152,0 0.493285,3.79212 4.932849,0 c -0.336666,-2.06562 -0.462455,-4.61591 -0.462455,-7.18346 l 0,-11.25306 c 0,-6.02303 -2.230881,-12.30129 -11.438043,-12.30129 z m 31.539401,0 c -3.79953,0 -7.462166,1.0137 -9.958188,2.62057 l 1.233213,3.63798 c 2.112492,-1.40712 5.057405,-2.25061 7.861725,-2.25061 6.171,-0.0333 6.84433,4.52465 6.84433,6.96765 l 0,0.6166 c -11.63782,-0.0802 -18.097389,3.93888 -18.097389,11.22223 0,4.31501 3.133592,8.60166 9.218259,8.60166 4.31625,-2e-5 7.56453,-2.12236 9.21827,-4.47039 l 0.15415,0 0.49328,3.79212 4.93285,0 c -0.33913,-2.06562 -0.46245,-4.61591 -0.46245,-7.18346 l 0,-11.25306 c 0,-6.02303 -2.22965,-12.30129 -11.43805,-12.30129 z m 52.10322,0 c -6.4793,0 -10.42064,3.97463 -10.42064,8.81747 -0.0136,3.60346 2.54288,6.54095 7.98505,8.50916 4.00423,1.49833 5.61111,2.88943 5.61111,5.51863 -1e-5,2.51697 -1.85598,4.47039 -5.85776,4.47039 -2.72786,1e-5 -5.59508,-1.09879 -7.24512,-2.12729 l -1.3257,4.10043 c 2.11989,1.24679 5.14989,2.09646 8.4475,2.09646 7.1181,1e-5 11.28389,-3.73292 11.28389,-9.06411 -0.0123,-4.4901 -2.73156,-7.10207 -7.92338,-9.03328 -3.94875,-1.52791 -5.70361,-2.62921 -5.70361,-5.11783 0,-2.26662 1.76226,-4.13126 4.99451,-4.13126 2.81419,10e-6 5.00561,1.06426 6.16606,1.78816 l 1.35653,-3.97711 c -1.67594,-1.02232 -4.30267,-1.84982 -7.36844,-1.84982 z m 62.4622,0 c -3.79953,0 -7.46093,1.0137 -9.95819,2.62057 l 1.26404,3.63798 c 2.11495,-1.40712 5.02904,-2.25061 7.8309,-2.25061 6.17099,-0.0333 6.87516,4.52465 6.87516,6.96765 l 0,0.6166 c -11.63906,-0.0802 -18.12822,3.93888 -18.12822,11.22223 -10e-6,4.31501 3.13112,8.60166 9.21826,8.60166 4.31623,-2e-5 7.56329,-2.12236 9.21826,-4.47039 l 0.15415,0 0.49329,3.79212 4.93285,0 c -0.33914,-2.06562 -0.46246,-4.61591 -0.46246,-7.18346 l 0,-11.25306 c 0,-6.02303 -2.22964,-12.30129 -11.43804,-12.30129 z m 36.78055,0 c -4.97231,2e-5 -8.47832,2.78583 -9.95819,5.61111 l -0.15415,0 -0.27747,-4.93284 -4.84036,0 c 0.14675,2.49231 0.24664,4.96984 0.24664,8.10837 l 0,21.95117 5.42614,0 0,-18.09739 c 0,-0.90027 0.16896,-1.88928 0.40079,-2.55891 0.97917,-3.06082 3.77117,-5.61112 7.36845,-5.61112 5.1277,1e-5 6.96764,4.07823 6.96764,8.94079 l 0,17.32663 5.45697,0 0,-17.94323 c 0,-10.32935 -6.49534,-12.79458 -10.63646,-12.79458 z m 138.24309,0 c -3.65893,2e-5 -6.98122,2.52933 -8.38584,6.56685 l -0.18498,0 -0.21582,-5.88858 -4.80952,0 c 0.16401,2.78951 0.24664,5.82199 0.24664,9.37241 l 0,20.68713 5.45696,0 0,-16.06259 c 10e-6,-0.88792 0.0728,-1.79309 0.21582,-2.55891 0.74486,-4.09306 3.47395,-6.99848 7.33761,-6.99848 0.7498,3e-5 1.32447,0.0678 1.88065,0.18498 l 0,-5.14866 c -0.50069,-0.11716 -0.94587,-0.15415 -1.54152,-0.15415 z m 66.19267,0 c -3.80076,0 -7.43628,1.0137 -9.92736,2.62057 l 1.23321,3.63798 c 2.11374,-1.40712 5.05618,-2.25061 7.86173,-2.25061 6.17099,-0.0333 6.84433,4.52465 6.84433,6.96765 l 0,0.6166 c -11.63783,-0.0802 -18.09739,3.93888 -18.09739,11.22223 -1e-5,4.31501 3.13113,8.60166 9.21826,8.60166 4.31377,-2e-5 7.56082,-2.12236 9.21826,-4.47039 l 0.15415,0 0.46246,3.79212 4.96368,0 c -0.33544,-2.06562 -0.46246,-4.61591 -0.46246,-7.18346 l 0,-11.25306 c -1e-5,-6.02303 -2.26049,-12.30129 -11.46887,-12.30129 z m 70.41641,0 c -8.79896,0 -14.15111,7.10331 -14.15111,16.21674 0,9.0197 5.54207,15.16851 14.79855,15.16851 4.78363,1e-5 8.13672,-1.03837 10.05068,-1.91148 l -0.95574,-3.88462 c -2.02123,0.83613 -4.40749,1.54152 -8.32418,1.54152 -5.5026,-2e-5 -10.22457,-3.02999 -10.32815,-10.42065 l 21.11875,0 c 0.12086,-0.59562 0.18499,-1.44162 0.18499,-2.58974 0,-5.53465 -2.56754,-14.12028 -12.39379,-14.12028 z m 35.73233,0 c -4.97848,2e-5 -8.47587,2.78583 -9.95819,5.61111 l -0.15415,0 -0.27748,-4.93284 -4.84035,0 c 0.14798,2.49231 0.24664,4.96984 0.24664,8.10837 l 0,21.95117 5.45696,0 0,-18.09739 c 0,-0.90027 0.14429,-1.88928 0.36997,-2.55891 0.98287,-3.06082 3.77116,-5.61112 7.36844,-5.61112 5.12892,1e-5 6.96765,4.07823 6.96765,8.94079 l 0,17.32663 5.45696,0 0,-17.94323 c -1e-5,-10.32935 -6.50026,-12.79458 -10.63645,-12.79458 z m 141.38778,0 c -3.66263,2e-5 -6.98121,2.52933 -8.38585,6.56685 l -0.21581,0 -0.18498,-5.88858 -4.80953,0 c 0.1603,2.78951 0.24665,5.82199 0.24665,9.37241 l 0,20.68713 5.45696,0 0,-16.06259 c 3e-5,-0.88792 0.074,-1.79309 0.21581,-2.55891 0.74365,-4.09306 3.47396,-6.99848 7.33761,-6.99848 0.75349,3e-5 1.28624,0.0678 1.84982,0.18498 l 0,-5.14866 c -0.50317,-0.11716 -0.91752,-0.15415 -1.51068,-0.15415 z m 65.63772,0 c -8.79649,0 -14.18194,7.10331 -14.18194,16.21674 10e-6,9.0197 5.57535,15.16851 14.82937,15.16851 4.7861,1e-5 8.13305,-1.03837 10.05068,-1.91148 l -0.95574,-3.88462 c -2.0262,0.83613 -4.43586,1.54152 -8.35501,1.54152 -5.5026,-2e-5 -10.22086,-3.02999 -10.32815,-10.42065 l 21.14959,0 c 0.12208,-0.59562 0.18498,-1.44162 0.18498,-2.58974 -10e-6,-5.53465 -2.56756,-14.12028 -12.39378,-14.12028 z m 35.17738,0 c -5.02536,2e-5 -7.8198,2.66004 -9.49574,5.51862 l -0.15415,0 -0.27747,-4.84035 -4.7787,0 c 0.14676,2.49231 0.24664,4.96984 0.24664,8.10837 l 0,21.95117 5.36448,0 0,-18.12822 c -1e-5,-0.93849 0.13072,-1.87819 0.40079,-2.68223 0.91009,-2.73652 3.43202,-5.45697 6.84433,-5.45697 4.13738,2e-5 6.25855,3.44068 6.25855,8.23169 l 0,18.03573 5.33364,0 0,-18.6215 c 2e-5,-0.97053 0.20103,-1.92382 0.46246,-2.71307 0.9681,-2.64157 3.36544,-4.93285 6.50519,-4.93285 4.38528,2e-5 6.53603,3.453 6.53603,9.27993 l 0,16.98749 5.36447,0 0,-17.69659 c 0,-10.45889 -5.93544,-13.04122 -9.95819,-13.04122 -2.84008,2e-5 -4.80829,0.72882 -6.62852,2.09646 -1.24676,0.90272 -2.42572,2.20376 -3.39133,3.91545 l -0.12332,0 c -1.29238,-3.54671 -4.42724,-6.01191 -8.50916,-6.01191 z m 86.97229,0 c -8.79406,0 -14.18194,7.10331 -14.18194,16.21674 10e-6,9.0197 5.57411,15.16851 14.82937,15.16851 4.78859,1e-5 8.13797,-1.03837 10.05068,-1.91148 l -0.95574,-3.88462 c -2.02738,0.83613 -4.43586,1.54152 -8.35501,1.54152 -5.50259,-2e-5 -10.19003,-3.02999 -10.29732,-10.42065 l 21.11876,0 c 0.12084,-0.59562 0.18498,-1.44162 0.18498,-2.58974 10e-6,-5.53465 -2.56386,-14.12028 -12.39378,-14.12028 z m 34.06748,0 c -3.6577,2e-5 -6.97874,2.52933 -8.38584,6.56685 l -0.21581,0 -0.18498,-5.88858 -4.80953,0 c 0.15906,2.78951 0.24664,5.82199 0.24664,9.37241 l 0,20.68713 5.45697,0 0,-16.06259 c -10e-6,-0.88792 0.0752,-1.79309 0.21581,-2.55891 0.74117,-4.09306 3.47642,-6.99848 7.33761,-6.99848 0.7535,3e-5 1.29118,0.0678 1.84982,0.18498 l 0,-5.14866 c -0.50071,-0.11716 -0.9138,-0.15415 -1.51069,-0.15415 z m 19.36144,0 c -6.95654,0 -13.59617,5.74307 -13.59617,15.93927 -10e-6,8.33158 5.31391,14.70605 12.82541,14.70605 4.64555,-1e-5 7.94189,-2.23088 9.58822,-5.05617 l 0.12332,0 0,3.32968 c -10e-6,7.61382 -4.11647,10.54396 -9.71154,10.54396 -3.75885,2e-5 -6.84063,-1.15305 -8.8483,-2.40476 l -1.38736,4.19292 c 2.44918,1.62537 6.40776,2.49725 10.05068,2.49725 3.802,2e-5 8.01589,-0.89777 10.97558,-3.60714 2.87829,-2.63536 4.31625,-6.82337 4.31625,-13.78115 l 0,-17.44995 c -10e-6,-3.66389 0.0949,-6.10688 0.24664,-8.23169 l -4.84036,0 -0.21581,4.50122 -0.12332,0 c -1.34297,-2.50218 -4.17196,-5.17949 -9.40324,-5.17949 z m -604.27399,0.67827 0,17.57327 c 0,10.54024 5.64194,13.16454 10.35899,13.16454 5.3953,-2e-5 8.60165,-3.16196 9.98901,-5.58029 l 0.15416,0 0.27747,4.90202 4.84036,0 c -0.1492,-2.37885 -0.24665,-5.07835 -0.24665,-8.23169 l 0,-21.82785 -5.45696,0 0,18.40569 c 0,1.03836 -0.21212,2.01877 -0.49328,2.80556 -1.0137,2.45406 -3.57754,5.02534 -7.24513,5.02534 -4.94394,2e-5 -6.721,-3.89203 -6.721,-9.61906 l 0,-16.61753 -5.45697,0 z m 313.69836,0 0,17.57327 c -2e-5,10.54024 5.67524,13.16454 10.38981,13.16454 5.39899,-2e-5 8.56713,-3.16196 9.95819,-5.58029 l 0.15415,0 0.27747,4.90202 4.84036,0 c -0.14428,-2.37885 -0.24664,-5.07835 -0.24664,-8.23169 l 0,-21.82785 -5.45696,0 0,18.40569 c 0,1.03836 -0.20843,2.01877 -0.49329,2.80556 -1.01372,2.45406 -3.57385,5.02534 -7.24512,5.02534 -4.94643,2e-5 -6.72101,-3.89203 -6.72101,-9.61906 l 0,-16.61753 -5.45696,0 z m -128.19241,3.23718 c 6.1451,2e-5 7.61014,5.4027 7.55342,8.8483 l -15.97009,0 c 0.43779,-3.80695 2.82406,-8.8483 8.41667,-8.8483 z m 242.72699,0 c 6.1439,2e-5 7.63976,5.4027 7.58426,8.8483 l -15.9701,0 c 0.44025,-3.80695 2.79693,-8.8483 8.38584,-8.8483 z m 122.1805,0 c 6.14262,2e-5 7.60522,5.4027 7.55343,8.8483 l -15.9701,0 c 0.43411,-3.80695 2.82529,-8.8483 8.41667,-8.8483 z m 54.75462,0.33913 c 4.03634,0 6.66675,2.60948 7.67675,5.7961 0.22319,0.73254 0.3083,1.57234 0.3083,2.46642 l 0,5.39531 c 10e-6,0.95695 -0.14059,2.04837 -0.43162,2.92888 -1.17402,3.49618 -4.21882,5.64194 -7.61509,5.64194 -5.87623,0 -8.90995,-4.96861 -8.90995,-10.85227 0,-6.98983 3.74403,-11.37638 8.97161,-11.37638 z m -764.19077,0.0308 c 5.85899,1e-5 8.97162,5.17334 8.97162,11.22223 -1e-5,6.89983 -3.3642,11.56137 -9.12577,11.56137 -3.95738,2e-5 -7.20073,-2.61071 -8.23169,-6.41271 -0.14922,-0.61906 -0.21582,-1.30103 -0.21582,-1.97314 l 0,-5.3953 c 0,-0.8657 0.14059,-1.61552 0.30831,-2.28144 1.09878,-4.1288 4.58015,-6.72101 8.29335,-6.72101 z m 308.73468,0 c 4.12509,2e-5 7.10207,2.84131 7.95421,6.28938 0.16278,0.71772 0.21582,1.63154 0.21582,2.34311 l 0,5.21032 c 0,0.85708 -0.053,1.62414 -0.24665,2.3431 -1.01122,4.09426 -4.34708,6.56686 -8.01588,6.56686 -5.90832,2e-5 -8.97161,-5.08578 -8.97161,-11.1914 0,-6.60879 3.39133,-11.56137 9.06411,-11.56137 z m 366.1407,0 c 5.86018,1e-5 8.97162,5.17334 8.97162,11.22223 0,6.89983 -3.3938,11.56137 -9.1566,11.56137 -3.95614,2e-5 -7.1699,-2.61071 -8.20086,-6.41271 -0.14551,-0.61906 -0.21582,-1.30103 -0.21582,-1.97314 l 0,-5.3953 c 2e-5,-0.8657 0.13935,-1.61552 0.30831,-2.28144 1.09879,-4.1288 4.58015,-6.72101 8.29335,-6.72101 z m -440.41091,6.35104 4.50122,0 c 5.91697,0.0123 10.8831,2.41463 10.8831,8.10837 0,6.09823 -5.1869,8.13921 -10.82143,8.13921 -1.95713,2e-5 -3.45053,-0.0247 -4.56289,-0.24665 l 0,-16.00093 z m 164.57217,3.26802 15.38432,0 -15.38432,0 z m -505.709501,1.47985 0,5.24115 c -2e-6,0.52164 -0.05673,1.1469 -0.246642,1.7265 -0.873115,2.54412 -3.367903,5.02534 -7.337613,5.02534 -2.747596,-2e-5 -5.117831,-1.65374 -5.117831,-5.24115 0,-5.81585 6.776502,-6.87639 12.702086,-6.75184 z m 31.539411,0 0,5.24115 c 0,0.52164 -0.058,1.1469 -0.24665,1.7265 -0.87311,2.54412 -3.40366,5.02534 -7.36844,5.02534 -2.75007,-2e-5 -5.087004,-1.65374 -5.087004,-5.24115 0,-5.81585 6.774034,-6.87639 12.702094,-6.75184 z m 114.56541,0 0,5.24115 c 0,0.52164 -0.0555,1.1469 -0.24664,1.7265 -0.87065,2.54412 -3.37037,5.02534 -7.33762,5.02534 -2.74883,-2e-5 -5.11783,-1.65374 -5.11783,-5.24115 0,-5.81585 6.77157,-6.87639 12.70209,-6.75184 z m 241.24714,0 0,5.24115 c -1e-5,0.52164 -0.0863,1.1469 -0.27748,1.7265 -0.8731,2.54412 -3.37036,5.02534 -7.33761,5.02534 -2.74882,-2e-5 -5.11783,-1.65374 -5.11783,-5.24115 1e-5,-5.81585 6.80239,-6.87639 12.73292,-6.75184 z" /></svg>