<?xml version="1.0" encoding="UTF-8" standalone="no"?>
<!-- Created with Inkscape (http://www.inkscape.org/) -->

<svg
   xmlns:dc="http://purl.org/dc/elements/1.1/"
   xmlns:cc="http://creativecommons.org/ns#"
   xmlns:rdf="http://www.w3.org/1999/02/22-rdf-syntax-ns#"
   xmlns:svg="http://www.w3.org/2000/svg"
   xmlns="http://www.w3.org/2000/svg"
   xmlns:sodipodi="http://sodipodi.sourceforge.net/DTD/sodipodi-0.dtd"
   xmlns:inkscape="http://www.inkscape.org/namespaces/inkscape"
   version="1.0"
   width="708.06226"
   height="267.20917"
   id="svg4313"
   inkscape:version="0.48.3.1 r9886"
   sodipodi:docname="lbb.svg">
  <metadata
     id="metadata15">
    <rdf:RDF>
      <cc:Work
         rdf:about="">
        <dc:format>image/svg+xml</dc:format>
        <dc:type
           rdf:resource="http://purl.org/dc/dcmitype/StillImage" />
      </cc:Work>
    </rdf:RDF>
  </metadata>
  <sodipodi:namedview
     pagecolor="#ffffff"
     bordercolor="#666666"
     borderopacity="1"
     objecttolerance="10"
     gridtolerance="10"
     guidetolerance="10"
     inkscape:pageopacity="0"
     inkscape:pageshadow="2"
     inkscape:window-width="640"
     inkscape:window-height="480"
     id="namedview13"
     showgrid="false"
     fit-margin-top="0"
     fit-margin-left="0"
     fit-margin-right="0"
     fit-margin-bottom="0"
     inkscape:zoom="0.43139683"
     inkscape:cx="354.03111"
     inkscape:cy="133.60458"
     inkscape:window-x="0"
     inkscape:window-y="24"
     inkscape:window-maximized="0"
     inkscape:current-layer="svg4313" />
  <defs
     id="defs4315" />
  <g
     transform="translate(-232.80933,-79.475911)"
     id="layer1">
    <g
       transform="translate(18.01614,16.98597)"
       id="g8536">
      <path
         d="m 214.79319,329.6991 59.2178,-266.010842 16.27743,0 -59.21783,266.010842 -16.2774,0"
         style="fill:#ea1a25;fill-rule:nonzero;stroke:none"
         id="path7674"
         inkscape:connector-curvature="0" />
      <path
         d="m 269.81681,329.6991 -26.663,0 59.2178,-266.010842 26.76291,0 -59.31771,266.010842"
         style="fill:#ea1a25;fill-rule:nonzero;stroke:none"
         id="path7684"
         inkscape:connector-curvature="0" />
      <path
         d="m 342.61574,63.688258 41.84199,0 -58.81833,266.010842 -42.94043,0 59.91677,-266.010842"
         style="fill:#ea1a25;fill-rule:nonzero;stroke:none"
         id="path7694"
         inkscape:connector-curvature="0" />
      <path
         d="m 399.03746,63.688258 61.31496,0 -57.8198,266.010842 -63.41201,0 59.91685,-266.010842"
         style="fill:#ea1a25;fill-rule:nonzero;stroke:none"
         id="path7704"
         inkscape:connector-curvature="0" />
      <path
         d="m 493.70607,62.489941 -36.04992,165.210729 110.14715,0 6.29123,-32.2153 -72.39954,0 29.05972,-132.995429 -37.04864,0"
         style="fill:#211d1e;fill-rule:nonzero;stroke:none"
         id="path7732"
         inkscape:connector-curvature="0" />
      <path
         d="m 798.48316,62.489941 80.68801,0 c 21.86969,0 42.24138,9.886262 43.63949,37.448027 0.99861,20.072142 -14.87941,37.048592 -30.85722,40.843302 15.57835,4.49376 20.47158,14.52986 20.47158,30.80726 0,33.59336 -25.96398,56.11214 -62.01393,56.11214 l -86.57989,0 34.65196,-165.210729 z m 22.86829,65.109619 33.95287,0 c 18.97362,0.99864 30.75734,-5.19276 31.15672,-19.07353 0.39947,-15.678223 -8.98753,-17.675474 -20.47158,-17.675474 l -37.04856,0 -7.58945,36.749004 z m -14.57982,67.88581 33.65332,0 c 19.37314,0 32.85446,-3.11568 36.34959,-18.35454 1.39802,-6.23136 -0.69903,-22.86827 -27.06247,-22.16924 l -34.55205,0 -8.38839,40.52378"
         style="fill:#211d1e;fill-rule:nonzero;stroke:none"
         id="path7734"
         inkscape:connector-curvature="0" />
      <path
         d="m 618.43304,62.489941 80.68804,0 c 21.76977,0 42.1415,9.886262 43.63937,37.448027 0.99864,20.072142 -14.97917,37.048592 -30.85713,40.843302 15.57838,4.49376 20.47161,14.52986 20.47161,30.80726 0,33.59336 -25.96398,56.11214 -62.01402,56.11214 l -86.5798,0 34.65193,-165.210729 z m 22.76841,65.109619 33.9529,0 c 19.0735,0.99864 30.85713,-5.19276 31.2566,-19.07353 0.29958,-15.678223 -9.08741,-17.675474 -20.47161,-17.675474 l -37.04856,0 -7.68933,36.749004 z m -14.47991,67.88581 33.55341,0 c 19.37308,0 32.95426,-3.11568 36.34953,-18.35454 1.39808,-6.23136 -0.69897,-22.86827 -26.96253,-22.16924 l -34.65193,0 -8.28848,40.52378"
         style="fill:#211d1e;fill-rule:nonzero;stroke:none"
         id="path7736"
         inkscape:connector-curvature="0" />
    </g>
  </g>
</svg>
