<?xml version="1.0" encoding="UTF-8" standalone="no"?>
<svg
   xmlns:dc="http://purl.org/dc/elements/1.1/"
   xmlns:cc="http://creativecommons.org/ns#"
   xmlns:rdf="http://www.w3.org/1999/02/22-rdf-syntax-ns#"
   xmlns:svg="http://www.w3.org/2000/svg"
   xmlns="http://www.w3.org/2000/svg"
   id="svg6690"
   viewBox="-8.7987306 -8.7987306 686.49935 293.291"
   height="426.41507"
   width="998.25537"
   version="1.0">
  <metadata
     id="metadata7">
    <rdf:RDF>
      <cc:Work
         rdf:about="">
        <dc:format>image/svg+xml</dc:format>
        <dc:type
           rdf:resource="http://purl.org/dc/dcmitype/StillImage" />
        <dc:title></dc:title>
      </cc:Work>
    </rdf:RDF>
  </metadata>
  <defs
     id="defs6692" />
  <path
     style="fill:#009c31;fill-opacity:1;fill-rule:nonzero;stroke:none"
     id="path6593"
     d="m 677.7528,5.8155191 0,-14.61425 -151.74805,0 0,0 c -0.083,0 -0.17577,0 -0.2539,0 -10.92774,0 -30.66406,0 -47.3291,6.36717 0,0 3.62793,9.5752 3.67675,18.6328299 0.0342,8.01757 -3.66699,17.08007 -3.66699,17.08007 0,0 0,68.886711 0,76.665041 0,3.39355 1.26953,5.23926 3.55469,6.2793 4.19434,1.91894 9.16016,3.32519 14.08203,5.21972 3.28125,1.26465 6.91406,-1.43555 9.33593,-5.68847 7.01662,-12.30958 14.4336,-27.426761 14.4336,-27.426761 0,0 7.7002,-4.16015 11.33789,-12.00195 3.33009,-7.19728 2.87598,-11.5625 2.87598,-11.5625 25.69336,37.397461 26.05468,88.706051 26.05468,88.706051 0,0 -28.45215,-6.50879 -43.0371,-9.89747 -9.48731,-2.20215 -20.66895,-4.86816 -25.85937,-4.86816 -6.7627,0 -12.47071,4.34083 -12.68068,10.54688 -0.10741,3.16895 1.7627,8.71093 5.09767,17.79785 3.53027,9.60937 4.00391,10.63965 8.43261,23.47656 l 22.61719,0 -4.97559,-19.81934 c 17.51954,5.67871 24.11134,14.2627 43.13477,19.81934 l 124.91699,0 0,-63.33984 c 0,0 -3.82812,-7.09961 -9.63379,-17.27051 l 9.63379,0 0,-14.619141 -18.12989,0 c -2.20213,-3.71582 -4.5166,-7.55371 -6.88963,-11.40625 l 25.01952,0 0,-14.61914 -34.29687,0 c -1.83594,-2.79786 -3.68164,-5.51758 -5.4834,-8.11036 -0.78125,-1.11327 -1.5625,-2.20702 -2.34375,-3.29589 l 42.12402,0 0,-14.61915 -53.21777,0 c -3.23242,-4.0039 -6.49414,-7.81737 -9.75587,-11.40625 l 62.97364,0 0,-14.61425 -77.71972,0 C 594.73034,12.583089 589.54479,8.7207891 584.56433,5.8155191 l 93.18847,0 z m -0.0244,272.9296809 0,-31.70898 -22.91015,0 0,7.45606 11.14257,0 0,21.55274 c -0.99121,1.26463 -3.77441,2.52441 -7.2754,2.52441 -13.38866,0 -16.17675,-12.6709 -16.17675,-27.58301 0,-8.26173 0,-24.52149 12.58789,-24.52149 8.61816,0 9.06739,7.63184 9.33594,11.31347 l 12.75879,0 c 0,-11.85058 -8.62304,-17.24121 -22.09473,-17.24121 -19.14062,0 -24.97559,13.20313 -24.97559,31.43555 0,18.14941 8.08107,32.51954 27.57325,32.51954 8.54004,0 15.3662,-2.96388 20.03418,-5.74708 z m -66.30371,4.76074 0,-61.9873 -9.61427,0 0,45.9961 -0.18066,0 -23.98925,-45.9961 -12.8418,0 0,61.9873 9.60938,0 0,-48.24217 0.18066,0 25.15137,48.24217 11.68457,0 z m -67.02149,-21.11327 0,-40.87403 -11.76758,0 0,40.87403 c 0,9.70702 -1.25976,16.17676 -10.78613,16.17676 -8.98438,0 -10.50293,-6.46974 -10.50293,-16.17676 l 0,-40.87403 -11.76757,0 0,40.87403 c 0,11.05468 2.3291,22.09961 22.2705,22.09961 20.21973,0 22.55371,-11.04493 22.55371,-22.09961 z m -75.28809,-23.80372 c 0,9.07227 -5.92772,11.23048 -14.28222,11.23048 l -2.33887,0 0,-21.73829 2.33887,0 c 7.2754,0 14.28222,0.62989 14.28222,10.50781 z m 14.28224,44.91699 -3.50098,-16.43554 c -1.52832,-7.19238 -2.78321,-13.11523 -11.95313,-14.82422 l 0,-0.18066 c 5.5713,-1.44043 12.93946,-4.76074 12.93946,-14.37012 0,-14.10645 -12.30469,-16.17676 -26.04981,-16.17676 l -14.10644,0 0,61.9873 11.76757,0 0,-27.1289 3.68164,0 c 9.25294,0 11.05469,4.13086 13.20801,15.4541 l 2.24609,11.6748 11.76759,0 z m -60.28321,0 0,-7.46092 -25.23925,0 0,-21.28908 23.17382,0 0,-7.09472 -23.17382,0 0,-19.04297 24.43358,0 0,-7.09961 -36.20605,0 0,61.9873 37.01172,0 z m -58.04199,0 0,-61.9873 -11.76758,0 0,25.96191 -21.5625,0 0,-25.96191 -11.76758,0 0,61.9873 11.76758,0 0,-28.92577 21.5625,0 0,28.92577 11.76758,0 z m -60.19043,-45.09276 c 0,-10.87403 -7.09961,-17.87599 -21.74317,-17.87599 -18.77929,0 -25.33203,14.375 -25.33203,30.81055 0,17.51465 7.45605,33.14454 27.03614,33.14454 7.46094,0 13.56934,-2.3291 17.52441,-3.86231 l 0,-9.69727 c -2.25097,1.7041 -7.54883,6.10352 -15.36132,6.10352 -16.53321,0 -16.80665,-20.47852 -16.80665,-27.66602 0,-8.2666 1.79687,-22.90527 12.22169,-22.90527 7.54393,0 9.07715,7.09472 9.07715,11.94825 l 13.38378,0 z m -65.67383,45.09276 0,-61.9873 -11.76758,0 0,61.9873 11.76758,0 z m -28.56934,-17.42675 c 0,-19.22364 -30.2832,-19.94629 -30.2832,-32.0752 0,-3.8623 3.50586,-6.37695 8.44727,-6.37695 7.18749,0 14.9121,3.14453 17.07519,4.22364 l 0,-9.61426 c -2.33886,-0.44434 -8.90136,-1.69923 -15.4541,-1.69923 -13.38867,0 -20.9375,6.01563 -20.9375,15.98634 0,19.58496 29.375,19.3164 29.375,33.33007 0,5.83984 -5.74707,7.54395 -9.69726,7.54395 -7.00684,0 -13.92579,-3.68165 -18.68653,-6.64551 l 0,10.95703 c 2.24609,0.62988 9.34082,2.78321 16.80175,2.78321 13.29103,0 23.35938,-4.93653 23.35938,-18.41309 z m -68.82324,-27.49024 c 0,9.07227 -5.92774,11.23048 -14.28222,11.23048 l -2.33887,0 0,-21.73829 2.33887,0 c 7.27538,0 14.28222,0.62989 14.28222,10.50781 z m 14.28223,44.91699 -3.50587,-16.43554 c -1.52343,-7.19238 -2.7832,-13.11523 -11.94335,-14.82422 l 0,-0.18066 c 5.5664,-1.44043 12.93457,-4.76074 12.93457,-14.37012 0,-14.10645 -12.30469,-16.17676 -26.0498,-16.17676 l -14.10645,0 0,61.9873 11.76758,0 0,-27.1289 3.68652,0 c 9.25293,0 11.04492,4.13086 13.20312,15.4541 l 2.2461,11.6748 11.76758,0 z m -60.278321,0 0,-7.46092 -25.249018,0 0,-21.28908 23.178708,0 0,-7.09472 -23.178708,0 0,-19.04297 24.433588,0 0,-7.09961 -36.20117,0 0,61.9873 37.0166,0 z m -49.956054,-61.9873 -10.419921,0 -16.083984,47.79785 -0.185547,0 -15.8056642,-47.79785 -12.22168,0 21.1132812,61.9873 12.128907,0 21.474608,-61.9873 z M 265.90221,-8.7841009 l -57.63671,0 L 168.39245,101.93857 128.52916,-8.7596809 70.960811,-8.7841009 150.67761,190.51278 l 35.45898,0 79.76562,-199.2968809 z M 119.67663,190.51278 l -17.70995,-44.27246 -57.5879,0 0,-155.0244209 -53.1494132,0 0,199.2968809 128.4472632,0 z m 327.75391,0 -53.14454,0 0,-88.57421 -35.43456,88.57421 -53.13965,0 -0.0195,-88.57421 -35.41504,88.57421 -53.13476,0 79.76559,-199.3115109 53.08593,0 0,110.7373009 44.37012,-110.7373009 53.06641,0 0,199.3115109" />
</svg>
