<?xml version="1.0" encoding="UTF-8" standalone="no"?>
<!-- Created with Inkscape (http://www.inkscape.org/) -->

<svg
   xmlns:dc="http://purl.org/dc/elements/1.1/"
   xmlns:cc="http://creativecommons.org/ns#"
   xmlns:rdf="http://www.w3.org/1999/02/22-rdf-syntax-ns#"
   xmlns:svg="http://www.w3.org/2000/svg"
   xmlns="http://www.w3.org/2000/svg"
   version="1.1"
   width="1000"
   height="325.92343"
   id="svg2">
  <defs
     id="defs4" />
  <metadata
     id="metadata7">
    <rdf:RDF>
      <cc:Work
         rdf:about="">
        <dc:format>image/svg+xml</dc:format>
        <dc:type
           rdf:resource="http://purl.org/dc/dcmitype/StillImage" />
        <dc:title></dc:title>
      </cc:Work>
    </rdf:RDF>
  </metadata>
  <g
     transform="translate(200,-426.43874)"
     id="layer1">
    <path
       d="m 126.99091,612.96429 c -44.51229,-8.99531 -74.680361,-50.39172 -71.595937,-98.24343 1.916807,-29.73725 15.291165,-55.24432 37.096896,-70.74982 6.10615,-4.34192 15.594011,-9.5053 17.466271,-9.5053 0.66917,0 1.03321,5.80697 1.03321,16.48148 l 0,16.48148 -6.25383,6.26852 c -11.721256,11.74875 -17.725076,27.84984 -17.738486,47.57111 -0.0217,31.91812 15.900706,54.71503 43.489286,62.26575 10.2654,2.80954 26.46236,2.33257 36.22427,-1.06672 14.17477,-4.93595 25.94377,-15.30031 32.31042,-28.45415 5.066,-10.46662 6.93097,-19.22447 6.93097,-32.54747 0,-20.22594 -5.71242,-35.69418 -17.52176,-47.44586 l -6.44284,-6.41139 0,-16.68801 c 0,-19.42358 -0.95408,-18.50464 11.71368,-11.28219 14.68301,8.37143 27.66082,22.74387 35.20114,38.98393 6.57089,14.15215 8.50258,23.76132 8.51212,42.34352 0.01,19.04762 -1.93131,28.49712 -8.85716,43.11816 -5.54644,11.70897 -9.23528,17.04783 -17.37703,25.14983 -12.34316,12.28288 -27.7412,20.3649 -45.05278,23.647 -10.05972,1.90721 -29.90462,1.94958 -39.13844,0.0836 z m 399.15281,-0.61962 c -35.10244,-5.83684 -63.19674,-33.70717 -70.50336,-69.94131 -3.78414,-18.76589 -2.78219,-36.60688 3.04585,-54.23494 12.88589,-38.97598 44.66491,-61.72773 86.17407,-61.69513 25.81622,0.0203 44.62469,7.57648 62.20982,24.99245 8.67897,8.59548 10.13244,10.59494 15.26552,21 8.18619,16.59394 9.91097,23.98252 10.03784,43 0.0569,8.525 -0.21997,16.2875 -0.6152,17.25 -0.67512,1.64413 -5.13658,1.75 -73.74795,1.75 -40.16615,0 -73.02935,0.12154 -73.02935,0.2701 0,0.14855 0.93184,3.63285 2.07075,7.74288 5.93015,21.40024 21.00648,35.75322 42.6019,40.55788 10.24745,2.2799 27.02766,1.50864 36.26066,-1.66664 8.18474,-2.81477 20.6514,-11.26128 24.55317,-16.63544 1.65578,-2.28062 3.56456,-4.17407 4.24174,-4.20768 1.10737,-0.055 23.69314,13.06036 25.52047,14.81947 1.13458,1.09221 -9.52788,13.51473 -16.03018,18.67632 -11.45875,9.09606 -24.89727,15.29901 -39.05871,18.02871 -8.08573,1.55857 -30.37946,1.72627 -38.99704,0.29333 z m 75.10649,-109.64474 c -3.61677,-22.2663 -21.62463,-41.07992 -43.77127,-45.7298 -31.28241,-6.56801 -60.13765,10.4147 -69.40963,40.85094 -1.14861,3.77044 -2.08846,7.14544 -2.08856,7.5 -10e-5,0.35457 26.03542,0.52505 57.8567,0.37886 l 57.85687,-0.2658 z M -200,525.47916 l 0,-84.98658 3.24991,-1.3477 c 5.44177,-2.25664 28.85289,-8.61058 37.81055,-10.26205 11.73909,-2.16427 37.34823,-2.95699 48.30157,-1.49515 30.699355,4.09713 54.602641,20.22594 66.359244,44.7761 7.672527,16.02178 7.56678,14.9645 8.008787,80.07704 l 0.395599,58.27509 -16.314656,-0.27509 -16.314657,-0.27508 -0.499986,-58 c -0.494446,-57.35706 -0.525065,-58.06199 -2.762563,-63.59177 -8.224291,-20.32556 -27.371549,-31.31384 -56.735788,-32.5597 -11.97153,-0.50792 -29.47689,1.64314 -36.74898,4.51571 l -2.74992,1.08625 0,74.52476 0,74.52475 -15.99955,0 -15.99956,0 z m 196.2392576,-5.62458 0.255283,-90.61115 15.9995554,0 15.999555,0 0.255283,90.61115 0.255283,90.61116 -16.510121,0 -16.5101213,0 z m 268.9921924,5.39775 0.25561,-85.2134 11.99967,-3.82527 c 34.3549,-10.95171 69.15454,-12.81067 93.99738,-5.02125 25.48519,7.99083 43.4866,24.19516 52.10562,46.90393 5.01898,13.22365 5.32029,17.56046 5.3579,77.1194 l 0.0349,55.25 -15.94645,0 -15.94645,0 -0.36123,-56.75 c -0.38214,-60.03541 -0.23371,-58.00905 -5.07236,-69.25 -10.41453,-24.19467 -47.1175,-34.91971 -86.92005,-25.39909 l -6.74981,1.61453 0,74.89228 0,74.89228 -16.50517,0 -16.50515,0 0.25561,-85.21341 z m 370.87608,78.98428 c 2.32843,-3.44898 15.69553,-22.47087 29.70466,-42.27087 14.00913,-19.8 26.31868,-37.21818 27.35455,-38.70706 l 1.88341,-2.70705 -30.63943,-44.22895 c -16.85168,-24.32592 -30.87003,-44.82993 -31.15189,-45.56447 -0.41897,-1.09183 3.10024,-1.28598 19.28696,-1.064 l 19.79944,0.27153 7.06506,10.53609 c 3.88578,5.79485 13.58988,20.52884 21.56466,32.7422 7.97478,12.21336 14.72459,22.20314 14.99959,22.1995 0.27499,-0.004 3.64989,-4.86898 7.49979,-10.81187 3.84989,-5.9429 13.52462,-20.77263 21.4994,-32.95494 l 14.4996,-22.14967 19.85643,-0.0307 c 17.0416,-0.0263 19.7767,0.17713 19.29399,1.43511 -0.30935,0.80618 -5.23312,8.11868 -10.94171,16.25 -34.35791,48.9395 -50.70809,72.62419 -50.70809,73.45519 0,0.27059 14.18086,20.48033 31.51303,44.91052 L 800,609.96569 l -19.2339,0.27236 c -10.57863,0.14981 -19.69714,0.0918 -20.26333,-0.12895 -0.5662,-0.22073 -10.70417,-14.84201 -22.52885,-32.49174 -11.82467,-17.64973 -21.72439,-32.08777 -21.99938,-32.08453 -0.275,0.003 -10.22872,14.50195 -22.11938,32.21937 l -21.61939,32.21349 -20.18088,0.27087 -20.18089,0.27087 4.23353,-6.27087 z m -502.8769,-129.32607 0.2601,-45.61178 12.83297,1.6e-4 c 7.05815,8e-5 13.00738,0.17456 13.22054,0.38772 0.21316,0.21316 0.42818,20.61316 0.47783,45.33333 l 0.0903,44.94577 -13.5709,0.27828 -13.57091,0.27829 0.2601,-45.61178 z"
       id="path2996"
       style="fill:#025a99;fill-opacity:1" />
    <path
       d="m 601.47772,750.89147 c -5.45772,-1.95576 -8.50069,-5.62032 -8.49602,-10.23149 0.004,-4.16166 3.21298,-10.19424 5.42238,-10.19424 2.32784,0 2.81507,-1.81724 1.13162,-4.22075 -2.16486,-3.09087 -1.94446,-7.42759 0.55595,-10.9392 l 2.11383,-2.96868 -2.04722,-2.18569 c -5.61912,-5.99916 -5.55622,-16.41312 0.1361,-22.533 6.02906,-6.4819 19.99203,-8.68252 28.47132,-4.48718 3.36957,1.66718 4.40166,1.79105 6.36628,0.76411 2.20532,-1.15275 5.76561,-1.79082 8.59458,-1.5403 0.7732,0.0685 1.24997,1.63639 1.24997,4.11069 0,3.93324 -0.0607,4 -3.63582,4 l -3.63583,0 0.58421,4.26233 c 1.85969,13.56838 -8.00015,22.43582 -24.00262,21.58672 -5.22768,-0.27739 -6.78857,-0.0177 -7.6027,1.26503 -2.39026,3.766 -0.44175,4.56318 12.52207,5.12306 17.77887,0.76784 22.77077,3.56224 22.77077,12.74678 0,7.88787 -4.18113,12.51117 -13.93111,15.40438 -6.72109,1.99442 -21.05026,2.01461 -26.56776,0.0374 z m 26.73326,-7.56684 c 2.40128,-1.2111 3.9706,-2.82635 4.39712,-4.52583 1.41715,-5.64653 -3.0385,-8.29777 -13.97973,-8.31832 -11.90258,-0.0224 -17.9232,3.77879 -16.29031,10.28493 1.39532,5.55954 16.88605,7.0918 25.87292,2.55922 z m -3.37894,-35.28389 c 5.20468,-2.69152 6.84609,-11.14249 3.09132,-15.91604 -3.67428,-4.67122 -12.93519,-5.67784 -18.52707,-2.01379 -6.0539,3.96678 -5.65062,14.44419 0.69126,17.95932 3.17955,1.76234 11.31102,1.74608 14.74449,-0.0295 z M 352.4333,730.91428 c -8.11531,-4.00524 -9.6509,-18.0481 -2.70161,-24.70612 3.56227,-3.41297 13.80224,-6.11036 20.9471,-5.51784 l 5.3052,0.43997 0,-3.72149 c 0,-2.17651 -0.79447,-4.70158 -1.91369,-6.08228 -1.66036,-2.04828 -2.75239,-2.35164 -8.24977,-2.29172 -5.47337,0.0597 -9.39693,1.15367 -14.9912,4.17999 -0.36043,0.19499 -1.20046,-1.29725 -1.86671,-3.31608 -1.43603,-4.35131 -1.12753,-4.66269 7.02192,-7.08742 7.73755,-2.30217 17.91638,-2.16074 22.1552,0.30785 5.72382,3.3334 6.28479,5.63722 6.84178,28.09828 l 0.5022,20.25169 -4.23083,-0.002 c -3.69882,-0.001 -4.31119,-0.32187 -4.8699,-2.54803 -0.57854,-2.30512 -0.79696,-2.40347 -2.30559,-1.03814 -4.85543,4.39423 -15.7833,5.92557 -21.6441,3.03303 z m 19.5691,-8.84195 c 3.91765,-2.59265 3.98159,-2.73274 3.98159,-8.72339 l 0,-6.08843 -8.58636,0.35263 c -8.05509,0.33082 -8.74233,0.53397 -11.10713,3.28328 -2.08712,2.42648 -2.42711,3.62895 -1.97634,6.98977 1.07443,8.0107 9.05512,9.89942 17.68824,4.18614 z m 36.13765,8.70068 c -8.87344,-4.37228 -12.67026,-12.53069 -11.94854,-25.67436 0.51348,-9.35117 2.72778,-14.61346 8.15394,-19.37782 5.91166,-5.19065 17.42476,-6.35555 25.00392,-2.5299 2.55484,1.28958 2.80433,1.832 2.2927,4.98483 -0.31575,1.94578 -0.74878,3.71249 -0.9623,3.92601 -0.21352,0.21353 -2.54895,-0.56759 -5.18985,-1.73582 -6.16998,-2.72935 -11.61087,-2.13293 -15.62478,1.71275 -3.45737,3.31247 -4.86884,7.85015 -4.87638,15.67688 -0.0131,13.64108 9.24333,20.78996 20.48196,15.81844 2.6213,-1.15955 4.88977,-2.10828 5.04104,-2.10828 0.15128,0 0.78334,1.4581 1.40457,3.24022 0.9602,2.7545 0.86936,3.43045 -0.60597,4.50927 -4.72342,3.45395 -17.5693,4.3176 -23.17031,1.55778 z m 119.82411,-0.16073 c -9.97751,-5.30751 -14.04023,-24.33841 -8.03677,-37.64654 5.06158,-11.22023 17.01332,-15.22902 27.34737,-9.1727 l 4.70433,2.75701 0,-12.54216 0,-12.54215 4.47478,0 4.47478,0 0.27509,35.00044 0.27509,35.00043 -4.23083,-4.3e-4 c -3.65755,-3.8e-4 -4.31428,-0.33294 -4.84671,-2.45434 l -0.61586,-2.4539 -5.23387,2.9539 c -6.27868,3.54356 -13.22185,3.95462 -18.5874,1.10044 z m 19.49924,-8.91689 4.01571,-2.8201 0.27986,-11.48906 c 0.27828,-11.42447 0.26423,-11.50382 -2.49993,-14.11161 -6.19579,-5.8453 -15.64297,-5.3752 -19.92711,0.99158 -4.69374,6.97553 -3.88138,22.4718 1.43777,27.42603 1.49045,1.38819 3.38489,2.79024 4.20987,3.11565 2.82524,1.11442 8.46829,-0.29252 12.48383,-3.11249 z m 141.01151,9.38444 c -5.75507,-2.50825 -5.97042,-3.2999 -6.32885,-23.26522 l -0.32941,-18.34887 -4.48083,0 -4.48082,0 0.31036,-3.75 c 0.3086,-3.72871 0.33427,-3.74881 4.52046,-3.54104 l 4.2101,0.20897 0.28978,-8.20897 0.28977,-8.20896 4.20854,-0.30548 4.20854,-0.30548 0.29134,8.30548 0.29133,8.30548 4.99986,0.1497 c 2.74992,0.0823 5.33735,0.19483 5.74984,0.25 0.41249,0.0552 0.74998,1.65284 0.74998,3.5504 l 0,3.45009 -5.74984,0.29991 -5.74984,0.2999 -0.27614,15.2669 c -0.33871,18.72704 -0.002,19.65839 6.87417,18.99768 l 4.90165,-0.47099 0,3.7282 c 0,3.37559 -0.29555,3.78732 -3.12492,4.35321 -4.6385,0.92773 -8.01948,0.70156 -11.37507,-0.76091 z m 29.80389,-0.57009 c -1.75756,-1.07168 -3.84449,-2.9825 -4.63762,-4.24626 -3.58095,-5.70581 -2.70207,-15.06362 1.8622,-19.82783 3.52806,-3.6826 13.35186,-6.39329 20.90105,-5.76723 l 5.56938,0.46187 0,-3.87773 c 0,-2.83717 -0.69382,-4.57157 -2.58559,-6.4634 -2.33969,-2.33975 -3.12429,-2.53481 -8.24978,-2.05094 -3.11529,0.2941 -7.73922,1.43537 -10.2754,2.53616 l -4.61124,2.00143 -1.05228,-3.42875 c -1.02529,-3.34079 -0.95479,-3.47849 2.74852,-5.36783 8.41698,-4.29414 22.27137,-4.46049 27.79851,-0.33377 4.1876,3.12659 5.04211,7.59764 5.39808,28.24453 l 0.32892,19.07779 -4.24988,-10e-4 c -3.53981,-8.5e-4 -4.24988,-0.32532 -4.24988,-1.942 0,-2.32243 -1.58241,-3.54365 -2.5542,-1.97121 -1.34889,2.18261 -9.01409,4.86852 -13.94535,4.88649 -3.22267,0.0117 -6.13572,-0.67437 -8.19544,-1.9303 z m 19.71342,-8.43741 c 3.90524,-2.58443 3.98159,-2.74976 3.98159,-8.62078 l 0,-5.98581 -7.2498,0.004 c -8.00635,0.004 -13.01901,2.11893 -14.25529,6.0142 -1.06947,3.36967 0.36386,8.76438 2.79553,10.52177 3.07973,2.22573 9.77076,1.3475 14.72797,-1.93312 z m 50.18031,9.19341 c -0.65998,-0.66 -1.19997,-2.67463 -1.19997,-4.47695 0,-2.43043 0.67556,-3.7196 2.61516,-4.99051 2.34208,-1.53464 2.89027,-1.55989 5.24985,-0.24186 2.95556,1.65094 4.13099,7.00389 2.08051,9.47464 -1.44561,1.7419 -7.087,1.89328 -8.74555,0.23468 z m -606.18315,-34.8 0,-35 21.4994,0 21.49941,0 0,4.5 0,4.5 -16.99953,0 -16.99953,0 0,10.5 0,10.5 14.99958,0 14.99959,0 0,4 0,4 -14.99959,0 -14.99958,0 0,12 0,12 16.99953,0 16.99953,0 0,4 0,4 -21.49941,0 -21.4994,0 z m 54.99847,10.5 c 0,-13.475 0.33749,-24.5375 0.74998,-24.58333 0.41249,-0.0458 1.87495,-0.20842 3.24991,-0.36129 5.07871,-0.56467 4.99986,-0.95973 4.99986,25.05161 l 0,24.39301 -4.49987,0 -4.49988,0 z m 22.99936,0.10941 0,-24.3906 3.3906,-0.39584 c 4.62913,-0.54044 5.60915,-0.0582 5.60915,2.76036 0,2.45973 1.37649,3.23449 2.50433,1.40956 1.10412,-1.78656 6.40686,-4.04442 11.8709,-5.05453 7.08207,-1.30923 12.24177,0.35922 15.33739,4.95952 2.20027,3.26976 2.28649,4.18416 2.28649,24.25 l 0,20.85212 -4.49987,0 -4.49988,0 -0.0136,-18.25 c -0.008,-10.0375 -0.27759,-19.23419 -0.60017,-20.4371 -1.37853,-5.14055 -10.95251,-4.86375 -18.5943,0.53758 l -3.74859,2.64952 -0.0213,17.75 -0.0213,17.75 -4.49987,0 -4.49988,0 0,-24.39059 z m 58.99836,3.39059 0,-21 -4.56024,0 -4.56023,0 0.31035,-3.75 c 0.30827,-3.72479 0.33893,-3.74895 4.56024,-3.59381 l 4.24988,0.15619 0.006,-4.65619 c 0.0134,-11.55936 4.09978,-16.15619 14.36163,-16.15619 l 5.63182,0 0,3.93713 c 0,3.91617 -0.018,3.9342 -3.38734,3.38743 -5.0869,-0.82552 -7.81354,2.29205 -7.415,8.47808 l 0.30263,4.69736 3.99989,0.10148 c 6.45342,0.16373 6.49982,0.19157 6.49982,3.89852 l 0,3.5 -5.49985,0 -5.49985,0 0,21 0,21 -4.49987,0 -4.49988,0 z m 123.66323,20.33333 c -0.84508,-0.8451 -0.86017,-60.52901 -0.0166,-65.63403 0.61925,-3.74745 0.68565,-3.79649 4.73886,-3.5 l 4.11083,0.3007 0,12.75075 c 0,7.01291 0.23056,12.63791 0.51236,12.5 0.28181,-0.13791 3.13959,-1.56325 6.35063,-3.16742 7.0245,-3.50929 15.79519,-4.01975 20.14095,-1.17222 4.82244,3.15988 5.49516,6.65575 5.49516,28.55677 l 0,20.03212 -4.49988,0 -4.49987,0 0,-18.56574 c 0,-11.17424 -0.42232,-19.35488 -1.06077,-20.54787 -2.51123,-4.69238 -10.27472,-4.33962 -18.07305,0.82122 l -3.86555,2.55816 0,17.86712 0,17.86711 -4.3332,0 c -2.38328,0 -4.63322,-0.3 -4.99987,-0.66667 z m 132.32966,-23.72492 0,-24.39159 2.28008,-0.57228 c 1.25405,-0.31476 3.27899,-0.31106 4.49988,0.008 2.21651,0.57986 2.21979,0.61676 2.21979,24.96409 l 0,24.38337 -4.49988,0 -4.49987,0 z m 78.9978,10e-4 0,-24.3906 3.7499,-0.47 c 2.06244,-0.2585 4.08738,-0.28117 4.49987,-0.0504 0.41249,0.23079 0.74998,11.41806 0.74998,24.8606 l 0,24.44099 -4.49988,0 -4.49987,0 z m 109.99694,-10.66691 0,-35.0575 4.24988,0.3075 4.24989,0.3075 0.26295,34.75 0.26295,34.75 -4.51283,0 -4.51284,0 z M 237.55927,672.89431 c -1.85961,-1.85966 -2.0704,-6.52955 -0.37142,-8.22857 1.33256,-1.3326 5.65681,-1.57842 7.47051,-0.42467 0.64387,0.40959 1.47035,1.9387 1.8366,3.39803 1.25637,5.00593 -5.31837,8.87264 -8.93569,5.25521 z m 338.64166,0.0147 c -4.16503,-2.91736 -1.90014,-9.44327 3.2774,-9.44327 5.17754,0 7.44243,6.52591 3.2774,9.4433 -1.22234,0.85618 -2.69718,1.5567 -3.2774,1.5567 -0.58022,0 -2.05506,-0.70052 -3.2774,-1.5567 z m 78.7753,-0.44327 c -5.00586,-5.006 0.66004,-11.39303 7.06555,-7.96482 2.38135,1.2745 2.59268,6.16346 0.36282,8.39339 -2.14016,2.14022 -5.02616,1.97371 -7.42837,-0.42857 z"
       id="path2996-1"
       style="fill:#000000;fill-opacity:1" />
  </g>
</svg>
