<?xml version="1.0" encoding="UTF-8" standalone="no"?>
<!-- Created with Inkscape (http://www.inkscape.org/) -->

<svg
   xmlns:dc="http://purl.org/dc/elements/1.1/"
   xmlns:cc="http://creativecommons.org/ns#"
   xmlns:rdf="http://www.w3.org/1999/02/22-rdf-syntax-ns#"
   xmlns:svg="http://www.w3.org/2000/svg"
   xmlns="http://www.w3.org/2000/svg"
   xmlns:sodipodi="http://sodipodi.sourceforge.net/DTD/sodipodi-0.dtd"
   xmlns:inkscape="http://www.inkscape.org/namespaces/inkscape"
   version="1.0"
   width="510.23401"
   height="74.244003"
   viewBox="0 -0.256 510.23401 74.244003"
   id="svg2"
   xml:space="preserve"
   inkscape:version="0.48.3.1 r9886"
   sodipodi:docname="pixelpark.svg"><metadata
   id="metadata16"><rdf:RDF><cc:Work
       rdf:about=""><dc:format>image/svg+xml</dc:format><dc:type
         rdf:resource="http://purl.org/dc/dcmitype/StillImage" /></cc:Work></rdf:RDF></metadata><sodipodi:namedview
   pagecolor="#ffffff"
   bordercolor="#666666"
   borderopacity="1"
   objecttolerance="10"
   gridtolerance="10"
   guidetolerance="10"
   inkscape:pageopacity="0"
   inkscape:pageshadow="2"
   inkscape:window-width="640"
   inkscape:window-height="480"
   id="namedview14"
   showgrid="false"
   fit-margin-top="0"
   fit-margin-left="0"
   fit-margin-right="0"
   fit-margin-bottom="0"
   inkscape:zoom="0.62818004"
   inkscape:cx="255.5"
   inkscape:cy="37"
   inkscape:window-x="0"
   inkscape:window-y="24"
   inkscape:window-maximized="0"
   inkscape:current-layer="svg2" />
	<defs
   id="defs4">
	</defs>
	<g
   id="g6"
   transform="translate(0,-0.256)">
		<path
   d="m 8.399,22.49 0.542,-0.271 c 3.523,-2.71 6.233,-4.336 11.109,-4.336 12.193,0 18.697,10.296 18.697,21.678 0,11.108 -6.231,21.136 -18.426,21.136 -3.792,0 -9.212,-1.356 -11.922,-4.608 l 0,18.155 -8.399,0 0,-55.548 8.399,0 0,3.794 0,0 z m 0,16.8 c 0,7.315 2.71,14.361 11.109,14.361 8.13,0 10.84,-6.773 10.84,-13.819 0,-7.315 -2.168,-14.632 -10.84,-14.632 -8.399,0 -11.109,7.044 -11.109,14.09 l 0,0 z"
   style="fill-rule:evenodd"
   id="path8"
   inkscape:connector-curvature="0" />
		<path
   d="m 81.29,18.696 0,41.459 -8.399,0 0,-33.6 -13.278,0 0,-7.859 21.677,0 0,0 z M 69.639,0 81.29,0 l 0,10.567 -11.651,0 0,-10.567 0,0 z"
   style="fill-rule:evenodd"
   id="path10"
   inkscape:connector-curvature="0" />
		<polygon
   points="133.046,39.019 148.762,60.155 137.924,60.155 127.897,44.979 117.872,60.155 108.117,60.155 123.29,39.29 108.117,18.696 119.769,18.696 128.44,32.517 128.44,32.517 137.382,18.696 147.136,18.696 "
   style="fill-rule:evenodd"
   id="polygon12" />
		<path
   d="m 178.298,41.187 c -0.271,7.314 4.605,12.464 12.193,12.464 2.439,0 5.691,-0.27 6.504,-2.71 l 8.399,0 c -0.271,7.857 -8.941,9.756 -15.445,9.756 -13.006,0 -20.051,-8.13 -20.051,-20.865 0,-12.464 5.96,-21.949 18.967,-21.949 13.007,0 18.155,8.672 18.155,20.594 l 0,2.71 -28.722,0 0,0 z M 198.35,33.87 c 0,-5.418 -4.065,-8.67 -9.485,-8.67 -5.149,0 -10.025,3.252 -10.567,8.67 l 20.052,0 0,0 z"
   style="fill-rule:evenodd"
   id="path14"
   inkscape:connector-curvature="0" />
		<path
   d="m 243.331,44.168 c 0,6.773 2.439,8.941 9.212,8.941 l 5.689,0 0,7.046 -7.857,0 c -12.193,0 -15.716,-6.504 -15.716,-18.155 l 0,-42 8.672,0 0,44.168 0,0 z"
   style="fill-rule:evenodd"
   id="path16"
   inkscape:connector-curvature="0" />
		<path
   d="m 293.73,22.49 0.542,-0.271 c 3.524,-2.71 6.231,-4.336 10.84,-4.336 12.463,0 18.967,10.296 18.967,21.678 0,11.108 -6.504,21.136 -18.425,21.136 -4.066,0 -9.214,-1.356 -11.924,-4.608 l 0,18.155 -8.669,0 0,-55.548 8.669,0 0,3.794 0,0 z m 0,16.8 c 0,7.315 2.71,14.361 10.84,14.361 8.127,0 10.84,-6.773 10.84,-13.819 0,-7.315 -1.898,-14.632 -10.84,-14.632 -8.13,0 -10.84,7.044 -10.84,14.09 l 0,0 z"
   style="fill-rule:evenodd"
   id="path18"
   inkscape:connector-curvature="0" />
		<path
   d="m 374.209,56.089 c -3.252,2.982 -7.588,4.608 -11.924,4.608 -8.127,0 -14.903,-4.336 -14.903,-12.735 0,-10.569 10.028,-13.821 18.97,-13.821 l 7.857,0 0,-1.625 c 0,-4.607 -0.812,-8.13 -7.857,-8.13 -4.336,0 -8.672,0.813 -8.672,4.878 l -8.399,0 c 0.542,-9.214 9.211,-11.382 16.799,-11.382 11.924,0 16.529,4.336 16.529,16.529 l 0,25.743 -8.399,0 0,-4.065 -10e-4,0 z m -8.941,-15.444 c -4.608,0 -9.483,1.626 -9.483,7.044 0,4.336 2.979,6.773 7.315,6.773 7.315,0 11.109,-5.689 11.109,-12.463 l 0,-1.355 -8.941,0 0,0.001 z"
   style="fill-rule:evenodd"
   id="path20"
   inkscape:connector-curvature="0" />
		<path
   d="m 424.339,23.303 0.27,0 c 2.44,-3.523 6.234,-5.42 10.57,-5.42 7.315,0 12.463,5.42 12.463,12.735 l 0,1.626 -8.399,0 0,-1.354 c 0,-3.252 -1.626,-6.504 -5.15,-6.504 -8.127,0 -9.753,8.13 -9.753,14.361 l 0,21.407 -8.399,0 0,-41.458 8.399,0 0,4.607 -10e-4,0 z"
   style="fill-rule:evenodd"
   id="path22"
   inkscape:connector-curvature="0" />
		<polygon
   points="488.83,36.58 510.234,60.155 499.125,60.155 481.512,40.645 481.512,60.155 473.112,60.155 473.112,0 481.512,0 481.512,33.599 481.512,33.599 497.229,18.696 508.339,18.696 "
   style="fill-rule:evenodd"
   id="polygon24" />
	</g>
</svg>