<?xml version="1.0" encoding="UTF-8" standalone="no"?>
<svg
   xmlns:dc="http://purl.org/dc/elements/1.1/"
   xmlns:cc="http://creativecommons.org/ns#"
   xmlns:rdf="http://www.w3.org/1999/02/22-rdf-syntax-ns#"
   xmlns:svg="http://www.w3.org/2000/svg"
   xmlns="http://www.w3.org/2000/svg"
   id="svg2770"
   viewBox="-1.8751125 -1.8751125 90.672509 56.080795"
   height="569.66205"
   width="920.90991"
   version="1.0">
  <metadata
     id="metadata9">
    <rdf:RDF>
      <cc:Work
         rdf:about="">
        <dc:format>image/svg+xml</dc:format>
        <dc:type
           rdf:resource="http://purl.org/dc/dcmitype/StillImage" />
        <dc:title></dc:title>
      </cc:Work>
    </rdf:RDF>
  </metadata>
  <defs
     id="defs2772" />
  <path
     style="fill:#e6001d;fill-opacity:1;fill-rule:nonzero;stroke:none"
     id="path2650"
     d="m 1.0411375,54.209205 80.5087525,0 c 4.00375,0 7.2475,-3.24 7.2475,-7.23875 l -0.0012,-16.39 c -43.776303,-0.815 -78.298802,17.92875 -87.7550525,23.62875" />
  <path
     style="fill:#005088;fill-opacity:1;fill-rule:nonzero;stroke:none"
     id="path2652"
     d="m 5.4686375,-1.8795445 c -4.00249,0 -7.34375,3.22125 -7.34375,7.2187502 l 0,46.1562493 c 8.345,-5.15 44.4562495,-25.5875 90.6562535,-24.75 l 0,-28.6249995 -83.3125035,0 z m 39.4375005,7.9062502 2.3125,0 6.593752,16.0624993 -3.28125,0 -1.34375,-3.34375 -6.437502,0 -1.40625,3.34375 -3.25,0 6.8125,-16.0624993 z m -23.90625,0.03125 2.09375,0 4.3125,10.2812493 4.4375,-10.2812493 2.125,0 2.625,16.0312493 -3.09375,0 -1.40625,-9.71875 -4.3125,9.90625 -0.84375,0 -4.1875,-9.90625 -1.59375,9.71875 -3.0625,0 2.90625,-16.0312493 z m -9.71875,0.03125 c 1.722519,0 3.30375,0.59375 4.625,1.75 l -1.59375,2.09375 c -0.80128,-0.89625 -1.57125,-1.28125 -2.5625,-1.28125 -1.24998,0 -2.21875,0.78375 -2.21875,1.7500003 2e-5,0.84875 0.56625,1.284999 2.40625,1.968749 1.74501,0.63625 2.4175,1.00375 3.125,1.59375 0.919969,0.77875 1.40625,1.92125 1.40625,3.3125 9e-6,3.09 -2.24375,5.1875 -5.5,5.1875 -2.26373,0 -3.96,-0.94875 -5.3750005,-3 l 1.9687505,-1.90625 c 0.70747,1.34375 1.8975,2.09375 3.3125,2.09375 1.39126,0 2.40625,-0.945 2.40625,-2.21875 1.9e-5,-0.63625 -0.2775,-1.1925 -0.84375,-1.59375 -0.30747,-0.235 -0.89125,-0.46625 -2.1875,-0.9375 -2.83,-1.015 -3.8750005,-2.175 -3.8750005,-4.249999 2e-5,-2.6412503 2.0762505,-4.5625003 4.9062505,-4.5625003 z m 34.75,4.5312503 -2.28125,5.656249 4.468752,0 -2.187502,-5.656249 z" />
</svg>
