<?xml version="1.0" encoding="UTF-8" standalone="no"?>
<!-- Created with Inkscape (http://www.inkscape.org/) -->

<svg
   xmlns:dc="http://purl.org/dc/elements/1.1/"
   xmlns:cc="http://creativecommons.org/ns#"
   xmlns:rdf="http://www.w3.org/1999/02/22-rdf-syntax-ns#"
   xmlns:svg="http://www.w3.org/2000/svg"
   xmlns="http://www.w3.org/2000/svg"
   version="1.1"
   width="2086.637"
   height="511.97867"
   id="svg2">
  <defs
     id="defs4" />
  <metadata
     id="metadata7">
    <rdf:RDF>
      <cc:Work
         rdf:about="">
        <dc:format>image/svg+xml</dc:format>
        <dc:type
           rdf:resource="http://purl.org/dc/dcmitype/StillImage" />
        <dc:title></dc:title>
      </cc:Work>
    </rdf:RDF>
  </metadata>
  <g
     transform="translate(594.93518,15.651218)"
     id="layer1">
    <path
       d="m -594.93518,245.32548 0,-251.0019725 250.75,0.25196 250.750001,0.25197 0.25196,250.7500025 0.25197,250.75 -251.001971,0 -251.00196,0 0,-251.00196 z m 433,212.4654 c 13.37558,-4.02288 21.93757,-10.82635 26.86015,-21.34343 2.33926,-4.99782 2.631,-6.83781 2.63516,-16.62001 0.004,-9.83183 -0.27834,-11.60379 -2.66047,-16.68554 -4.97233,-10.60734 -12.96808,-16.26225 -35.83174,-25.34157 -11.6041,-4.60808 -16.18958,-7.54709 -18.51653,-11.86796 -3.41025,-6.33247 -0.0798,-17.09131 6.46772,-20.89332 7.14758,-4.15048 22.03033,-4.01753 34.60603,0.30914 3.17231,1.09144 5.87457,1.87076 6.00502,1.73184 0.33932,-0.36136 2.42847,-17.84228 2.43184,-20.34834 0.002,-1.79894 -1.09481,-2.34108 -7.74718,-3.82788 -11.39272,-2.54627 -29.10757,-3.12953 -37.91828,-1.24846 -14.44347,3.08365 -24.57308,10.321 -29.9998,21.4341 -2.59109,5.30615 -2.8031,6.64112 -2.81695,17.73799 -0.0127,10.21631 0.30688,12.69648 2.15035,16.68569 4.42986,9.58607 14.63394,16.52809 38.74228,26.35708 3.79918,1.54892 8.7351,4.21011 10.96872,5.91375 10.40799,7.93843 7.70152,20.8222 -5.57376,26.53307 -9.22487,3.96843 -24.29359,2.59056 -37.43571,-3.42309 l -5.13314,-2.34886 -0.60077,5.64118 c -0.33042,3.10265 -0.89047,8.63301 -1.24455,12.28969 l -0.64378,6.64852 9.37769,2.08161 c 13.81251,3.06603 13.32502,3.01949 27.3777,2.61406 8.18187,-0.23606 15.03844,-0.98815 18.5,-2.02926 z m -240,-56.46344 0,-57 19.5,0 19.5,0 0,-11.00892 0,-11.00892 -52.25,0.25892 -52.25,0.25892 0,10.5 0,10.5 19.25,0.27159 19.25,0.2716 0,56.9784 0,56.97841 13.5,0 13.5,0 0,-57 z m 78.24084,6.62551 0.25916,-50.37449 10.59295,20.62449 c 5.82612,11.34347 17.4425,34.01199 25.81418,50.37449 l 15.22122,29.75 16.43583,0 16.43582,0 0,-68 0,-68 -13,0 -13,0 -0.0259,50.75 -0.0259,50.75 -20.62098,-40.5 c -11.34154,-22.275 -22.97223,-45 -25.84598,-50.5 l -5.22499,-10 -16.62815,-0.27418 -16.6281,-0.27418 0,68.02418 0,68.02418 12.99084,0 12.99083,0 0.25917,-50.37449 z M 665.56482,120.70224 c -1.1,-0.21626 -5.7125,-1.12142 -10.25,-2.01148 -6.2956,-1.23492 -8.2459,-2.00266 -8.2327,-3.24081 0.032,-2.97675 1.998,-20.471162 2.3391,-20.812262 0.1849,-0.18488 2.8112,0.75843 5.8363,2.09626 23.9572,10.595012 50.4646,1.06912 43.488,-15.62816 -1.9709,-4.71715 -7.6415,-8.42397 -21.6806,-14.17246 -13.7877,-5.64552 -18.2476,-8.17435 -23.3857,-13.25998 -6.4708,-6.40478 -8.1187,-11.16137 -8.0878,-23.34591 0.024,-9.38273 0.3187,-11.10044 2.7719,-16.14286 7.2951,-14.99468046 21.9008,-21.5573805 45.7015,-20.5348605 9.9572,0.42778 23.2377,2.58206 24.655,3.99938 0.1312,0.13124 -0.2633,4.8566 -0.8767,10.5008 -0.9486,8.7280505 -1.3518,10.1625205 -2.6968,9.5955605 -5.4726,-2.30679 -16.4884,-4.41802 -23.052,-4.41802 -10.0953,0 -15.5579,2.60928 -18.8419,9 -5.2328,10.18323 -0.8133,16.66243 15.7599,23.1047 21.0629,8.18745 29.4693,14.01921 34.2785,23.77991 1.9279,3.91299 2.274,6.21334 2.274,15.11539 0,9.45867 -0.2758,11.06146 -2.7807,16.161362 -6.8003,13.84523 -22.2602,20.97774 -44.9167,20.72264 -5.6664,-0.0638 -11.2026,-0.29294 -12.3026,-0.5092 z m 441.12398,-0.9532 c -16.5251,-5.27204 -23.9195,-18.96131 -19.0676,-35.299692 1.9003,-6.39899 7.1125,-12.41369 13.611,-15.70673 7.8288,-3.96715 16.0194,-5.38422 31.2143,-5.4004 l 13.8816,-0.0148 -0.5175,-3.85829 c -1.4494,-10.80657 -7.1412,-15.14171 -19.88,-15.14171 -8.6152,0 -16.1534,1.93236 -23.4947,6.02271 l -5.1288,2.85766 -0.6102,-3.69019 c -0.3355,-2.0296 -0.615,-6.65675 -0.6211,-10.28256 l -0.011,-6.59238 9.0178,-2.76625 c 6.3375,-1.94405 12.1171,-2.92443 19.4455,-3.29845 26.0007,-1.32701 39.328,7.10664 42.4327,26.85186 0.5533,3.51868 1.2038,19.7851 1.4457,36.1476 l 0.4396,29.750002 -10.2836,0 c -11.6286,0 -11.4977,0.0917 -11.4977,-8.05944 l 0,-4.89587 -4.035,4.3774 c -6.0605,6.57494 -13.6529,9.89532 -23.457,10.25848 -5.2468,0.19435 -9.6893,-0.23976 -12.884,-1.25897 z m 28.5008,-18.98611 c 4.133,-2.137262 8.5483,-8.683912 9.8032,-14.535352 1.9657,-9.16555 2.1784,-8.90223 -7.178,-8.88452 -9.5806,0.0181 -18.8792,1.95518 -22.6244,4.71304 -9.802,7.21779 -6.8433,19.531772 5.1041,21.243192 4.8025,0.68795 10.5537,-0.29137 14.8951,-2.53636 z m 81.8687,19.63017 c -4.9794,-1.51467 -8.8603,-4.09216 -12.4157,-8.24576 -5.9503,-6.95157 -6.5778,-10.76413 -6.5778,-39.962472 l 0,-25.77956 -8.75,-0.28894 -8.75,-0.28893 -0.2889,-8.75 -0.289,-8.75 9.039,0 9.0389,0 0,-9.28735 0,-9.2873505 9.75,-3.13067 c 5.3625,-1.72187 10.7625,-3.42289 12,-3.78004 l 2.25,-0.64937 0,13.0673905 0,13.06739 10.5,0 10.5,0 0,9 0,9 -10.5,0 -10.5,0 0,23.59887 c 0,25.49543 0.5638,28.75936 5.4164,31.356392 2.374,1.27053 11.6567,1.0658 14.6919,-0.32403 1.3964,-0.63944 1.6794,0.48896 2.148,8.56616 0.2969,5.11643 0.3963,9.45446 0.221,9.64005 -1.8051,1.91049 -22.2389,2.82365 -27.4838,1.22822 z m 69.7666,-0.56019 c -7.9972,-2.02654 -13.2662,-4.92509 -19.2639,-10.59751 -9.5616,-9.04293 -14.1479,-22.775822 -13.1609,-39.407962 0.8723,-14.70004 5.6502,-25.70531 14.6874,-33.83048 8.0135,-7.20488 14.0876,-9.14696 28.4773,-9.10519 10.2047,0.0296 12.8965,0.38835 17.9926,2.39788 8.2433,3.25054 16.3869,11.43927 19.4373,19.54516 3.1213,8.29407 5.0322,17.84036 5.0527,25.24263 l 0.017,6.25 -31.5,0 c -17.325,0 -31.5,0.37848 -31.5,0.84107 0,2.65903 3.1962,10.72734 5.3877,13.60064 6.5997,8.652652 21.2883,11.064662 36.436,5.983182 4.222,-1.416312 9.1388,-3.478022 10.9263,-4.581562 l 3.25,-2.00645 0,10.046382 c 0,11.37415 0.5299,10.60412 -9.8477,14.31033 -7.5318,2.68987 -28.0373,3.42906 -36.3922,1.31188 z m 30.2343,-56.755472 c -0.014,-3.13485 -2.4191,-9.55241 -4.7244,-12.60611 -3.2224,-4.26848 -7.7333,-6.14389 -14.7777,-6.14389 -10.571,0 -17.8017,6.10934 -19.8245,16.75 l -0.6178,3.25 19.975,0 c 15.3163,0 19.9737,-0.29153 19.9694,-1.25 z m 44.2066,56.543462 -8.299,-1.60239 0.6803,-9.59554 c 0.3741,-5.27754 0.7876,-9.724502 0.9189,-9.882132 0.1313,-0.15762 3.639,0.85488 7.795,2.250002 13.7313,4.60945 27.4193,2.846 30.5067,-3.930242 1.783,-3.91326 1.4745,-6.05007 -1.36,-9.4187 -2.0298,-2.41228 -4.8654,-3.76058 -13.75,-6.53803 -12.9071,-4.0349 -18.3677,-7.22185 -22.0167,-12.84944 -6.0186,-9.28207 -4.2373,-24.07497 3.8759,-32.18823 3.3788,-3.37875 10.653,-6.95976 17.3378,-8.53514 6.2313,-1.46852 24.7164,-0.88756 32.6467,1.02602 l 5.0366,1.21534 -0.8237,8.58128 c -0.4531,4.71971 -0.9822,8.73981 -1.176,8.93356 -0.1937,0.19375 -3.0545,-0.34795 -6.3572,-1.20378 -12.679,-3.28545 -25.6054,-1.38695 -28.119,4.12985 -2.7719,6.08359 0.2464,9.27143 12.6632,13.37464 12.9626,4.2836 18.1557,6.99744 22.4181,11.71539 6.1934,6.85533 7.5497,19.95592 2.9911,28.891422 -2.8995,5.6835 -9.9486,11.72149 -16.7509,14.34818 -7.829,3.02314 -26.0275,3.63167 -38.2178,1.27794 z m 100.1449,-0.37967 c -6.778,-2.60648 -12.708,-9.0265 -14.779,-16.00032 -1.2456,-4.194452 -1.5669,-10.562962 -1.5669,-31.056042 l 0,-25.77956 -8.75,-0.28894 -8.75,-0.28893 -0.2889,-8.75 -0.289,-8.75 9.039,0 9.0389,0 0,-9.31282 0,-9.3128205 10.75,-3.36148 c 5.9125,-1.84882 11.3125,-3.5562 12,-3.79417 0.9584,-0.33176 1.25,2.62461 1.25,12.6743005 l 0,13.10699 10.5,0 10.5,0 0,9 0,9 -10.5,0 -10.5,0 0.01,22.75 c 0,12.5125 0.4614,24.39123 1.0186,26.39719 1.4475,5.211522 4.8395,7.113302 11.819,6.626562 3.1112,-0.21697 6.3763,-0.72686 7.2556,-1.13309 1.3824,-0.63864 1.6801,0.51552 2.1992,8.52788 0.3302,5.09657 0.4338,9.43295 0.2304,9.63641 -1.1217,1.12173 -9.0936,2.1438 -16.5284,2.11909 -6.0185,-0.02 -10.0047,-0.60687 -13.6541,-2.01025 z M 445.06482,67.327438 l 0,-52 -18,0 -18,0 0,-10.0000005 0,-10 48.5362,0 48.5362,0 -0.2862,9.75 -0.2862,9.7500005 -17.75,0.27307 -17.75,0.27308 0,51.97692 0,51.976932 -12.5,0 -12.5,0 0,-52.000002 z m 75,-10.02539 0,-62.0254005 15.5662,0.2754 15.5662,0.27539 9.5043,18.5000005 c 5.2274,10.175 15.6601,30.65 23.1838,45.5 l 13.6795,27 0.2601,-45.75 0.2601,-45.7500005 11.9899,0 11.9899,0 0,62.0000005 0,62.000002 -15.2996,0 -15.2996,0 -15.6499,-30.750002 c -8.6075,-16.9125 -19.2625,-37.725 -23.6779,-46.25 l -8.028,-15.5 -0.023,46.25 -0.023,46.250002 -12,0 -12,0 0,-62.025392 z m 276,0.0254 0,-62.0000005 12.5,0 12.5,0 0,62.0000005 0,62.000002 -12.5,0 -12.5,0 0,-62.000002 z m 49,16.5 0,-45.5 11.5,0 11.5,0 0,5.82858 0,5.82859 4.5989,-4.40651 c 6.3252,-6.06058 12.0729,-8.35683 22.5012,-8.98935 13.9783,-0.84784 23.3287,3.66079 29.356,14.15505 3.9699,6.91216 4.5439,12.80315 4.5439,46.63286 l 0,31.950782 -12,0 -12,0 0,-29.318502 c 0,-32.98459 -0.6582,-37.53324 -6.0932,-42.10645 -6.213,-5.22792 -18.7608,-2.6818 -23.7617,4.82158 -5.148,7.72413 -5.5316,10.26782 -5.9346,39.35337 l -0.3775,27.250002 -11.9165,0 -11.9165,0 0,-45.500002 z m 118,9.03893 0,-36.46106 -8.75,-0.28894 -8.75,-0.28893 -0.2889,-8.75 -0.289,-8.75 9.039,0 9.0389,0 0,-9.8185 c 0,-5.78711 0.6118,-11.8787805 1.4901,-14.8363505 4.3727,-14.7242295 16.661,-21.0612295 36.68288,-18.9170695 3.5151,0.37643 6.8597,0.9966 7.4325,1.37817 0.7136,0.47525 0.7382,3.68584 0.078,10.1937495 -0.5299,5.225 -1.0964,9.6584 -1.2589,9.852 -0.1626,0.1936 -1.3248,-0.3689 -2.5827,-1.25 -3.3829,-2.36948 -11.32529,-2.11892 -13.88208,0.43793 -3.1053,3.10555 -3.9598,6.3477305 -3.9598,15.0251705 l 0,7.9349 10.53889,0 10.53899,0 -0.289,8.75 c -0.2012,6.09417 -0.6683,8.78794 -1.5389,8.875 -0.6875,0.0688 -5.3,0.18125 -10.24999,0.25 l -8.99999,0.125 0,36.5 0,36.500002 -12,0 -12,0 0,-36.461072 z m 60.99998,-9.03893 0,-45.5 10.5,0 10.5,0 0.045,9.25 0.045,9.25 2.2048,-4.20561 c 3.0407,-5.80001 9.3702,-12.23722 14.1817,-14.42293 2.4954,-1.13356 6.3964,-1.83588 10.2731,-1.8495 l 6.2504,-0.022 0,11.76943 0,11.76944 -7.25,-0.33133 c -13.0925,-0.59834 -19.1481,4.81108 -21.6889,19.37437 -0.5836,3.34505 -1.0611,16.05756 -1.0611,28.25 l 0,22.168092 -12,0 -12,0 0,-45.500002 z"
       id="path2996"
       style="fill:#d10075;fill-opacity:1" />
  </g>
</svg>
