<?xml version="1.0" encoding="UTF-8" standalone="no"?>
<!-- Generator: Adobe Illustrator 14.0.0, SVG Export Plug-In . SVG Version: 6.00 Build 43363)  -->

<svg
   xmlns:dc="http://purl.org/dc/elements/1.1/"
   xmlns:cc="http://creativecommons.org/ns#"
   xmlns:rdf="http://www.w3.org/1999/02/22-rdf-syntax-ns#"
   xmlns:svg="http://www.w3.org/2000/svg"
   xmlns="http://www.w3.org/2000/svg"
   xmlns:sodipodi="http://sodipodi.sourceforge.net/DTD/sodipodi-0.dtd"
   xmlns:inkscape="http://www.inkscape.org/namespaces/inkscape"
   version="1.1"
   id="Ebene_1"
   x="0px"
   y="0px"
   width="547.54498"
   height="77.397003"
   viewBox="0 0 547.54498 77.397003"
   enable-background="new 0 0 555 85"
   xml:space="preserve"
   inkscape:version="0.48.3.1 r9886"
   sodipodi:docname="tsystems.svg"><metadata
   id="metadata43"><rdf:RDF><cc:Work
       rdf:about=""><dc:format>image/svg+xml</dc:format><dc:type
         rdf:resource="http://purl.org/dc/dcmitype/StillImage" /></cc:Work></rdf:RDF></metadata><defs
   id="defs41" /><sodipodi:namedview
   pagecolor="#ffffff"
   bordercolor="#666666"
   borderopacity="1"
   objecttolerance="10"
   gridtolerance="10"
   guidetolerance="10"
   inkscape:pageopacity="0"
   inkscape:pageshadow="2"
   inkscape:window-width="1920"
   inkscape:window-height="1056"
   id="namedview39"
   showgrid="false"
   fit-margin-top="0"
   fit-margin-left="0"
   fit-margin-right="0"
   fit-margin-bottom="0"
   inkscape:zoom="2.3135135"
   inkscape:cx="273.222"
   inkscape:cy="39.598"
   inkscape:window-x="1920"
   inkscape:window-y="24"
   inkscape:window-maximized="1"
   inkscape:current-layer="Ebene_1" />
<g
   id="g3"
   transform="translate(-4.278,-4.701)">
	<path
   d="M 4.278,43.95 V 33.378 H 14.85 V 43.95 H 4.278 z"
   id="path5"
   inkscape:connector-curvature="0"
   style="fill:#e20074" />
	<path
   d="M 36.951,43.95 V 33.378 H 47.523 V 43.95 H 36.951 z"
   id="path7"
   inkscape:connector-curvature="0"
   style="fill:#e20074" />
	<path
   d="M 69.625,43.95 V 33.378 H 80.196 V 43.95 H 69.625 z"
   id="path9"
   inkscape:connector-curvature="0"
   style="fill:#e20074" />
	<path
   d="M 107.709,43.95 V 33.378 h 10.572 V 43.95 h -10.572 z"
   id="path11"
   inkscape:connector-curvature="0"
   style="fill:#e20074" />
	<path
   d="M 140.382,43.95 V 33.378 h 10.572 V 43.95 h -10.572 z"
   id="path13"
   inkscape:connector-curvature="0"
   style="fill:#e20074" />
	<path
   d="M 173.055,43.95 V 33.378 h 10.571 V 43.95 h -10.571 z"
   id="path15"
   inkscape:connector-curvature="0"
   style="fill:#e20074" />
	<path
   d="m 224.874,25.793 c -1.082,-5.35 -2.485,-9.296 -4.21,-11.84 -2.748,-4.063 -6.256,-6.095 -10.524,-6.095 -2.602,0 -4.794,0.789 -6.578,2.368 -2.163,1.93 -3.245,4.473 -3.245,7.63 0,3.333 1.169,5.964 3.508,7.893 1.433,1.199 4.195,2.5 8.288,3.903 5.993,2.076 10.013,3.874 12.059,5.394 4.356,3.216 6.534,7.689 6.534,13.419 0,5.496 -1.783,10.086 -5.35,13.77 -3.274,3.42 -7.323,5.13 -12.147,5.13 -2.573,0 -4.955,-0.468 -7.148,-1.403 -0.936,-0.38 -2.47,-1.242 -4.604,-2.587 -0.702,-0.438 -1.389,-0.657 -2.061,-0.657 -0.789,0 -1.505,0.408 -2.148,1.228 -0.292,0.409 -0.687,1.067 -1.184,1.974 h -2.763 V 44.211 h 2.851 c 1.052,5.496 2.5,9.691 4.341,12.586 3.099,4.882 7.177,7.322 12.234,7.322 2.953,0 5.408,-0.861 7.367,-2.587 2.485,-2.222 3.727,-5.276 3.727,-9.165 0,-4.619 -1.929,-8.039 -5.788,-10.261 -1.228,-0.702 -4.604,-1.988 -10.13,-3.859 -3.917,-1.315 -6.987,-2.953 -9.209,-4.911 -3.274,-2.865 -4.911,-6.812 -4.911,-11.84 0,-5.438 1.783,-9.735 5.35,-12.893 2.894,-2.602 6.417,-3.902 10.568,-3.902 2.251,0 4.473,0.438 6.666,1.315 0.906,0.38 2.324,1.155 4.253,2.324 0.614,0.351 1.169,0.526 1.666,0.526 0.907,0 1.813,-0.936 2.72,-2.806 h 2.455 v 19.733 h -2.587 z"
   id="path17"
   inkscape:connector-curvature="0"
   style="fill:#e20074" />
	<path
   d="m 233.118,24.609 h 18.725 v 2.763 h -1.623 c -2.426,0 -3.64,0.658 -3.64,1.973 0,0.526 0.205,1.331 0.614,2.412 l 8.989,23.504 7.806,-21.75 c 0.556,-1.52 0.833,-2.704 0.833,-3.552 0,-1.725 -1.315,-2.587 -3.946,-2.587 h -1.974 v -2.763 h 14.734 v 2.763 h -0.965 c -0.936,0 -1.71,0.314 -2.324,0.943 -0.614,0.629 -1.213,1.703 -1.798,3.223 L 253.685,71.53 c -1.403,3.713 -2.953,6.388 -4.648,8.025 -1.754,1.695 -3.918,2.543 -6.49,2.543 -2.192,0 -4.034,-0.629 -5.525,-1.886 -1.813,-1.549 -2.719,-3.479 -2.719,-5.788 0,-1.433 0.409,-2.631 1.228,-3.596 0.877,-1.082 2.076,-1.623 3.597,-1.623 1.666,0 2.938,0.614 3.814,1.842 0.526,0.731 0.789,1.564 0.789,2.5 0,1.345 -0.481,2.47 -1.446,3.376 -0.585,0.556 -1.359,0.906 -2.324,1.053 0.672,0.76 1.593,1.141 2.763,1.141 1.725,0 3.23,-0.688 4.517,-2.062 1.169,-1.257 2.47,-3.902 3.902,-7.938 l 0.965,-2.806 -12.322,-33.152 c -0.965,-2.514 -1.783,-4.078 -2.455,-4.692 -0.761,-0.731 -1.915,-1.096 -3.465,-1.096 h -0.745 v -2.762 z"
   id="path19"
   inkscape:connector-curvature="0"
   style="fill:#e20074" />
	<path
   d="m 303.148,24.609 v 13.068 h -2.719 c -1.462,-7.572 -4.955,-11.357 -10.48,-11.357 -1.988,0 -3.596,0.599 -4.823,1.798 -1.287,1.228 -1.93,2.733 -1.93,4.517 0,2.046 0.892,3.669 2.675,4.868 0.877,0.584 2.471,1.257 4.779,2.017 4.971,1.579 8.303,2.997 9.999,4.253 3.273,2.485 4.911,5.745 4.911,9.778 0,4.094 -1.418,7.441 -4.254,10.043 -2.397,2.163 -5.481,3.244 -9.253,3.244 -2.134,0 -4.107,-0.38 -5.92,-1.14 -1.022,-0.409 -2.382,-1.14 -4.078,-2.192 -0.438,-0.264 -0.789,-0.395 -1.052,-0.395 -0.585,0 -1.155,0.936 -1.711,2.807 h -2.543 V 50.701 h 2.543 c 1.023,3.713 2.135,6.432 3.333,8.156 2.368,3.391 5.511,5.087 9.428,5.087 2.251,0 4.035,-0.774 5.351,-2.324 1.257,-1.433 1.886,-3.099 1.886,-4.999 0,-2.748 -1.229,-4.883 -3.684,-6.402 -1.315,-0.789 -3.962,-1.827 -7.938,-3.113 -3.566,-1.17 -6.205,-2.733 -7.915,-4.692 -1.71,-1.958 -2.565,-4.414 -2.565,-7.367 0,-3.479 1.228,-6.285 3.684,-8.419 2.222,-1.929 5.028,-2.894 8.419,-2.894 3.012,0 5.848,0.804 8.508,2.412 0.526,0.321 0.965,0.482 1.315,0.482 0.585,0 1.023,-0.672 1.315,-2.017 h 2.719 z"
   id="path21"
   inkscape:connector-curvature="0"
   style="fill:#e20074" />
	<path
   d="m 320.82,27.679 v 24.864 c 0,3.187 0.22,5.539 0.658,7.061 0.672,2.309 2.09,3.464 4.254,3.464 1.987,0 3.405,-1.009 4.253,-3.026 0.818,-1.93 1.229,-4.282 1.229,-7.06 v -1.228 h 2.981 v 1.666 c 0,8.945 -3.537,13.418 -10.612,13.418 -3.508,0 -6.109,-1.008 -7.806,-3.025 -1.257,-1.52 -2.017,-3.348 -2.28,-5.481 -0.175,-1.608 -0.263,-3.537 -0.263,-5.788 V 27.679 h -6.49 v -2.543 c 4.063,-0.906 6.885,-2.543 8.464,-4.911 1.637,-2.602 2.646,-6.33 3.025,-11.182 h 2.587 V 24.61 h 12.06 v 3.07 h -12.06 z"
   id="path23"
   inkscape:connector-curvature="0"
   style="fill:#e20074" />
	<path
   d="M 369.847,44.957 H 345.29 c 0.029,5.788 0.628,10.07 1.798,12.848 1.637,3.918 4.443,5.877 8.419,5.877 3.099,0 5.687,-1.229 7.762,-3.684 1.141,-1.346 2.28,-3.201 3.421,-5.57 l 2.675,1.404 c -3.771,7.571 -8.858,11.357 -15.261,11.357 -4.706,0 -8.565,-1.608 -11.576,-4.824 -3.742,-4.005 -5.613,-9.793 -5.613,-17.365 0,-6.958 1.871,-12.526 5.613,-16.707 2.952,-3.303 6.504,-4.955 10.655,-4.955 6.169,0 10.803,3.099 13.901,9.296 1.666,3.304 2.587,7.411 2.763,12.323 z m -8.288,-3.158 c 0,-3.654 -0.395,-6.666 -1.184,-9.034 -1.433,-4.18 -3.684,-6.271 -6.754,-6.271 -3.449,0 -5.891,2.573 -7.323,7.718 -0.584,2.076 -0.892,4.604 -0.921,7.586 h 16.182 z"
   id="path25"
   inkscape:connector-curvature="0"
   style="fill:#e20074" />
	<path
   d="M 421.721,65.918 V 40.659 c 0,-5.204 -0.363,-8.566 -1.095,-10.086 -0.993,-1.988 -2.543,-2.982 -4.647,-2.982 -2.515,0 -4.549,1.418 -6.098,4.253 -0.848,1.55 -1.403,3.245 -1.667,5.087 -0.204,1.345 -0.305,3.888 -0.305,7.631 v 11.313 c 0.029,3.362 0.393,5.424 1.095,6.184 0.584,0.701 1.741,1.066 3.466,1.096 h 1.27 v 2.764 H 400.322 V 42.063 c 0,-4.093 -0.088,-6.753 -0.264,-7.981 -0.613,-4.356 -2.496,-6.534 -5.653,-6.534 -2.543,0 -4.548,1.447 -6.01,4.341 -0.73,1.403 -1.228,2.88 -1.491,4.429 -0.292,1.579 -0.438,4.327 -0.438,8.245 v 11.313 c 0.029,3.362 0.365,5.424 1.011,6.184 0.614,0.701 1.796,1.066 3.55,1.096 h 1.274 v 2.764 h -19.428 v -2.764 h 1.447 c 1.666,-0.029 2.807,-0.395 3.42,-1.096 0.731,-0.73 1.111,-2.792 1.141,-6.184 V 34.564 c -0.029,-3.362 -0.409,-5.409 -1.141,-6.139 -0.613,-0.702 -1.754,-1.053 -3.42,-1.053 h -1.009 v -2.763 l 12.587,-0.614 v 7.279 c 0.582,-1.462 1.403,-2.763 2.455,-3.903 2.249,-2.426 4.938,-3.64 8.069,-3.64 3.331,0 6.004,1.213 8.021,3.64 0.877,1.053 1.695,2.543 2.455,4.473 2.603,-5.408 6.303,-8.112 11.097,-8.112 1.9,0 3.654,0.417 5.263,1.25 1.607,0.833 2.877,1.98 3.813,3.442 1.053,1.637 1.695,3.508 1.93,5.613 0.204,1.695 0.309,3.566 0.309,5.613 v 16.225 c 0.029,3.362 0.393,5.424 1.095,6.184 0.585,0.701 1.741,1.066 3.466,1.096 h 1.007 v 2.764 h -13.157 z"
   id="path27"
   inkscape:connector-curvature="0"
   style="fill:#e20074" />
	<path
   d="m 465.488,24.609 v 13.068 h -2.719 c -1.462,-7.572 -4.957,-11.357 -10.482,-11.357 -1.988,0 -3.596,0.599 -4.824,1.798 -1.286,1.228 -1.929,2.733 -1.929,4.517 0,2.046 0.894,3.669 2.677,4.868 0.877,0.584 2.468,1.257 4.777,2.017 4.97,1.579 8.303,2.997 9.998,4.253 3.274,2.485 4.912,5.745 4.912,9.778 0,4.094 -1.416,7.441 -4.252,10.043 -2.397,2.163 -5.483,3.244 -9.255,3.244 -2.134,0 -4.105,-0.38 -5.918,-1.14 -1.022,-0.409 -2.384,-1.14 -4.08,-2.192 -0.438,-0.264 -0.789,-0.395 -1.052,-0.395 -0.585,0 -1.153,0.936 -1.709,2.807 h -2.543 V 50.701 h 2.543 c 1.023,3.713 2.135,6.432 3.333,8.156 2.368,3.391 5.509,5.087 9.426,5.087 2.251,0 4.034,-0.774 5.351,-2.324 1.257,-1.433 1.888,-3.099 1.888,-4.999 0,-2.748 -1.229,-4.883 -3.684,-6.402 -1.315,-0.789 -3.964,-1.827 -7.939,-3.113 -3.566,-1.17 -6.206,-2.733 -7.914,-4.692 -1.713,-1.958 -2.564,-4.414 -2.564,-7.367 0,-3.479 1.228,-6.285 3.684,-8.419 2.222,-1.929 5.028,-2.894 8.419,-2.894 3.012,0 5.848,0.804 8.508,2.412 0.526,0.321 0.965,0.482 1.315,0.482 0.585,0 1.023,-0.672 1.315,-2.017 h 2.718 z"
   id="path29"
   inkscape:connector-curvature="0"
   style="fill:#e20074" />
	<path
   d="M 475.907,43.95 V 33.378 h 10.571 V 43.95 h -10.571 z"
   id="path31"
   inkscape:connector-curvature="0"
   style="fill:#e20074" />
	<path
   d="M 508.579,43.95 V 33.378 h 10.57 V 43.95 h -10.57 z"
   id="path33"
   inkscape:connector-curvature="0"
   style="fill:#e20074" />
	<path
   d="M 541.253,43.95 V 33.378 h 10.57 V 43.95 h -10.57 z"
   id="path35"
   inkscape:connector-curvature="0"
   style="fill:#e20074" />
	<path
   d="m 98.867,8.999 v 45.254 c 0,3.274 0.173,5.292 0.52,6.052 0.6,1.783 2.619,2.704 6.056,2.763 h 2.271 v 2.894 H 81.076 v -2.894 h 2.271 c 2.492,0 4.196,-0.453 5.11,-1.359 0.632,-0.556 1.025,-1.389 1.184,-2.5 0.188,-1.14 0.284,-2.792 0.284,-4.955 V 8.999 h -1.988 c -3.122,0 -5.93,0.848 -8.421,2.543 -3.754,2.572 -5.931,7.732 -6.53,15.479 L 70.147,26.889 70.668,6.103 h 47.74 l 0.379,20.786 -2.887,0.132 c -0.662,-4.912 -1.766,-8.727 -3.312,-11.445 -1.388,-2.427 -3.122,-4.151 -5.204,-5.174 -1.861,-0.906 -4.212,-1.374 -7.05,-1.403 h -1.467 z"
   id="path37"
   inkscape:connector-curvature="0"
   style="fill:#e20074" />
</g>
</svg>